<?xml version="1.0" encoding="UTF-8" standalone="no"?>
<!-- Generator: Adobe Illustrator 27.3.1, SVG Export Plug-In . SVG Version: 6.00 Build 0)  -->

<svg
   version="1.1"
   id="Layer_1"
   x="0px"
   y="0px"
   viewBox="0 0 296 296"
   style="enable-background:new 0 0 296 296;"
   xml:space="preserve"
   sodipodi:docname="2.3.svg"
   inkscape:version="1.3 (0e150ed6c4, 2023-07-21)"
   xmlns:inkscape="http://www.inkscape.org/namespaces/inkscape"
   xmlns:sodipodi="http://sodipodi.sourceforge.net/DTD/sodipodi-0.dtd"
   xmlns="http://www.w3.org/2000/svg"
   xmlns:svg="http://www.w3.org/2000/svg"><defs
   id="defs1">&#10;	&#10;</defs><sodipodi:namedview
   id="namedview1"
   pagecolor="#505050"
   bordercolor="#ffffff"
   borderopacity="1"
   inkscape:showpageshadow="0"
   inkscape:pageopacity="0"
   inkscape:pagecheckerboard="1"
   inkscape:deskcolor="#505050"
   inkscape:zoom="1.9239865"
   inkscape:cx="158.7849"
   inkscape:cy="157.22564"
   inkscape:window-width="2560"
   inkscape:window-height="1377"
   inkscape:window-x="-8"
   inkscape:window-y="-8"
   inkscape:window-maximized="1"
   inkscape:current-layer="Layer_1" />&#10;<style
   type="text/css"
   id="style1">&#10;	.st0{fill:#706CFF;}&#10;	.st1{fill:#FFFFFF;}&#10;</style>&#10;<path
   id="path150"
   class="st0"
   d="M 0,0 V 296.00196 H 296.00196 V 0 Z"
   style="stroke-width:0.0605425"
   clip-path="none" />&#10;<path
   id="path1"
   class="st1"
   d="M 144.10938 117.58984 C 142.30938 117.56984 140.4993 118.07914 139.0293 119.11914 C 137.6593 120.06914 136.62977 121.46953 136.00977 123.01953 C 135.23977 124.95953 135.08039 127.11016 135.40039 129.16016 C 135.65039 130.89015 136.35977 132.56086 137.50977 133.88086 C 138.68976 135.23086 140.33985 136.14977 142.08984 136.50977 C 142.94984 136.67977 143.8407 136.74922 144.7207 136.69922 C 145.6107 136.62922 146.48906 136.38094 147.28906 135.96094 C 148.04906 135.55094 148.70047 134.93 149.23047 134.25 C 149.36047 134.94 149.50063 135.63055 149.64062 136.31055 L 152.21094 136.31055 L 152.21094 126.41992 L 144.5293 126.41992 L 144.5293 129.43945 L 148.57031 129.43945 C 148.53031 129.81945 148.45937 130.20031 148.35938 130.57031 C 148.12938 131.35031 147.68953 132.10008 147.01953 132.58008 C 146.36953 133.06008 145.5693 133.27008 144.7793 133.33008 C 144.0893 133.37008 143.3907 133.35039 142.7207 133.15039 C 142.0407 132.95039 141.42969 132.56031 140.92969 132.07031 C 140.33969 131.47031 139.93969 130.71969 139.67969 129.92969 C 139.29969 128.71969 139.20984 127.42015 139.33984 126.16016 C 139.44984 125.19016 139.67039 124.20984 140.15039 123.33984 C 140.52039 122.62984 141.07977 122.01937 141.75977 121.60938 C 142.50976 121.12938 143.42055 120.96047 144.31055 120.98047 C 145.30055 120.97047 146.3193 121.30977 147.0293 122.00977 C 147.5993 122.54977 147.91961 123.30078 148.09961 124.05078 L 151.94922 124.05078 C 151.91922 123.67078 151.84977 123.28016 151.75977 122.91016 C 151.39977 121.39016 150.44945 120.03914 149.18945 119.11914 C 147.81945 118.11914 146.12922 117.60984 144.44922 117.58984 L 144.10938 117.58984 z M 34.919922 117.59961 C 34.209923 119.85961 33.510546 122.10914 32.810547 124.36914 L 35.230469 124.36914 C 35.780468 122.61914 36.34086 120.86914 36.880859 119.11914 C 37.420859 120.86914 37.979532 122.60938 38.519531 124.35938 L 40.949219 124.35938 C 40.249219 122.10938 39.549609 119.85961 38.849609 117.59961 L 34.919922 117.59961 z M 62.320312 118.00977 C 62.310313 124.10976 62.320312 130.21055 62.320312 136.31055 L 66.349609 136.31055 C 66.349609 133.68055 66.349844 131.04968 66.339844 128.42969 L 73.720703 128.42969 L 73.720703 136.31055 L 77.759766 136.31055 L 77.759766 118.01953 L 73.720703 118.01953 L 73.720703 125.0293 L 66.349609 125.0293 C 66.339609 122.6893 66.349609 120.34976 66.349609 118.00977 L 62.320312 118.00977 z M 87.660156 118.00977 L 87.660156 136.30078 C 92.310152 136.31078 96.940551 136.31055 101.56055 136.31055 L 101.56055 132.91016 L 91.699219 132.91016 L 91.699219 128.44922 C 94.649216 128.44922 97.61055 128.45945 100.56055 128.43945 C 100.55055 127.39945 100.56078 126.35055 100.55078 125.31055 L 91.689453 125.31055 L 91.689453 121.41016 L 101.33984 121.41016 L 101.33984 118.00977 L 87.660156 118.00977 z M 183.0293 118.00977 C 184.7193 124.10976 186.40961 130.21079 188.09961 136.30078 C 188.74961 136.31078 189.3893 136.31055 190.0293 136.31055 C 191.4593 131.22055 192.90008 126.12929 194.33008 121.0293 C 194.44008 120.6693 194.51016 120.28969 194.66016 119.92969 C 196.22015 125.38968 197.75078 130.85079 199.30078 136.30078 L 201.15039 136.30078 C 202.83039 130.20079 204.51922 124.10976 206.19922 118.00977 L 204.43945 118.00977 C 203.03945 123.34976 201.65976 128.6893 200.25977 134.0293 C 200.14977 133.8093 200.11906 133.56031 200.03906 133.32031 C 198.60906 128.22032 197.18 123.10976 195.75 118.00977 L 193.56055 118.00977 C 192.08055 123.33976 190.58961 128.67977 189.09961 134.00977 C 189.00961 133.88977 189.01094 133.72961 188.96094 133.59961 C 187.61094 128.39961 186.26992 123.20976 184.91992 118.00977 L 183.0293 118.00977 z M 214.50977 118.00977 L 214.50977 136.30078 C 218.75976 136.31078 223.00977 136.31055 227.25977 136.31055 L 227.25977 134.81055 L 216.25977 134.81055 L 216.25977 127.59961 L 226.44922 127.59961 L 226.44922 126.09961 L 216.25977 126.09961 L 216.25977 119.51953 L 227.14062 119.51953 L 227.14062 118.00977 L 214.50977 118.00977 z M 236.07031 118.00977 L 236.07031 136.30078 L 248.83008 136.30078 L 248.83008 134.81055 L 237.83008 134.81055 L 237.83008 127.59961 L 248.00977 127.59961 L 248.00977 126.09961 L 237.83008 126.09961 L 237.83008 119.51953 L 248.69922 119.51953 L 248.69922 118.00977 L 236.07031 118.00977 z M 257.64062 118.00977 L 257.64062 136.30078 C 258.23062 136.31078 258.82016 136.31055 259.41016 136.31055 C 259.41016 134.21055 259.40016 132.11953 259.41016 130.01953 C 260.58016 128.94953 261.73063 127.86906 262.89062 126.78906 C 265.42062 129.95906 267.96024 133.13078 270.49023 136.30078 L 272.76953 136.30078 C 269.91953 132.72078 267.0707 129.15031 264.2207 125.57031 C 266.9507 123.05032 269.67063 120.53976 272.39062 118.00977 L 270.00977 118.00977 C 266.46977 121.27976 262.94039 124.55032 259.40039 127.82031 L 259.40039 118.00977 L 257.64062 118.00977 z M 110.65039 118.01953 L 110.65039 136.31055 C 113.02039 136.31055 115.38977 136.31031 117.75977 136.32031 C 118.13977 136.32031 118.52039 136.33055 118.90039 136.31055 C 120.05039 136.28055 121.2 136.06984 122.25 135.58984 C 123.61 134.97984 124.76953 133.94039 125.51953 132.65039 C 126.51953 130.95039 126.84961 128.94023 126.84961 126.99023 C 126.83961 125.81024 126.71937 124.63 126.35938 123.5 C 126.09938 122.7 125.73953 121.93023 125.26953 121.24023 C 124.71953 120.44024 123.99992 119.75023 123.16992 119.24023 C 122.20992 118.64023 121.11 118.29086 120 118.13086 C 119.47 118.05086 118.94992 118.01953 118.41992 118.01953 L 117.89062 118.01953 L 110.65039 118.01953 z M 161.83984 118.01953 L 161.83984 136.31055 L 175.7207 136.31055 L 175.7207 132.91016 L 165.86914 132.91016 L 165.86914 128.44922 L 174.74023 128.44922 L 174.74023 125.32031 L 165.86914 125.32031 L 165.86914 121.41992 L 175.51953 121.41992 L 175.51953 118.01953 L 161.83984 118.01953 z M 114.67969 121.41016 C 115.53969 121.41016 116.40953 121.40992 117.26953 121.41992 C 117.94953 121.40992 118.64078 121.44938 119.30078 121.60938 C 120.30078 121.83937 121.24055 122.39977 121.81055 123.25977 C 122.45055 124.17976 122.66953 125.31016 122.76953 126.41016 C 122.84953 127.48016 122.83078 128.56938 122.55078 129.60938 C 122.29078 130.52937 121.80906 131.4293 121.03906 132.0293 C 120.29906 132.6193 119.34992 132.87016 118.41992 132.91016 L 114.67969 132.91016 L 114.67969 121.41016 z M 22.900391 126.75 L 22.900391 131.92969 L 28.300781 135.83008 C 26.880783 140.18007 25.47078 144.51961 24.050781 148.84961 C 24.630781 148.83961 25.209297 148.86984 25.779297 148.83984 C 29.859293 145.88985 33.930004 142.93047 38 139.98047 C 44.079994 135.57047 50.160475 131.17 56.230469 126.75 L 22.900391 126.75 z M 42.080078 131.14062 C 38.800081 133.14062 35.5007 135.12914 32.220703 137.11914 C 31.680704 135.56914 31.120078 134.03047 30.580078 132.48047 C 34.420074 132.04047 38.250082 131.58062 42.080078 131.14062 z M 45.460938 138.0293 C 44.800938 138.5393 44.140234 139.04078 43.490234 139.55078 C 44.090234 141.35078 44.689063 143.13945 45.289062 144.93945 C 43.749064 143.78945 42.190389 142.65023 40.650391 141.49023 C 40.030391 141.99023 39.430312 142.49977 38.820312 143.00977 L 46.800781 148.85938 L 48.919922 148.85938 C 47.769923 145.24938 46.610936 141.63929 45.460938 138.0293 z M 72.230469 141.21094 C 71.920469 141.21094 71.600781 141.25055 71.300781 141.31055 C 70.680782 141.43055 70.089765 141.79961 69.759766 142.34961 C 69.459766 142.83961 69.4 143.44 69.5 144 C 69.57 144.37 69.760547 144.74047 70.060547 144.98047 C 70.300547 145.18047 70.59086 145.30063 70.880859 145.39062 C 71.530859 145.61062 72.209376 145.71063 72.859375 145.89062 C 73.119375 145.97062 73.37961 146.04094 73.599609 146.21094 C 73.949609 146.49094 73.869062 147.07984 73.539062 147.33984 C 73.209063 147.60984 72.759609 147.64039 72.349609 147.65039 C 71.92961 147.64039 71.470156 147.5893 71.160156 147.2793 C 70.930156 147.0693 70.860547 146.75094 70.810547 146.46094 L 69.349609 146.46094 C 69.329609 147.07094 69.55 147.68938 70 148.10938 C 70.519999 148.60937 71.229688 148.83063 71.929688 148.89062 C 72.559687 148.93062 73.210782 148.90945 73.800781 148.68945 C 74.370781 148.48945 74.859141 148.0693 75.119141 147.5293 C 75.34914 147.0493 75.380234 146.48094 75.240234 145.96094 C 75.140234 145.58094 74.900312 145.23953 74.570312 145.01953 C 74.070313 144.68953 73.480156 144.57945 72.910156 144.43945 C 72.460157 144.32945 72.010312 144.23961 71.570312 144.09961 C 71.370313 144.03961 71.159531 143.95906 71.019531 143.78906 C 70.789531 143.49906 70.86086 143.05055 71.130859 142.81055 C 71.380859 142.58055 71.740313 142.51023 72.070312 142.49023 C 72.500312 142.48023 72.969063 142.54961 73.289062 142.84961 C 73.499062 143.03961 73.589375 143.31961 73.609375 143.59961 C 74.099375 143.60961 74.599844 143.59961 75.089844 143.59961 C 75.069844 143.22961 75.000312 142.84977 74.820312 142.50977 C 74.600313 142.05977 74.19 141.7393 73.75 141.5293 C 73.28 141.2993 72.750468 141.21094 72.230469 141.21094 z M 118.94922 141.21094 C 118.47922 141.22094 118.00031 141.2907 117.57031 141.4707 C 116.88031 141.7607 116.34953 142.41992 116.26953 143.16992 C 116.19953 143.74992 116.28922 144.39008 116.69922 144.83008 C 116.98922 145.15008 117.41031 145.30945 117.82031 145.43945 C 118.47031 145.64945 119.16055 145.73969 119.81055 145.92969 C 120.05055 146.00969 120.32023 146.10078 120.49023 146.30078 C 120.75023 146.63078 120.61953 147.17063 120.26953 147.39062 C 119.94953 147.61062 119.53086 147.64039 119.13086 147.65039 C 118.72086 147.64039 118.2807 147.58078 117.9707 147.30078 C 117.7307 147.09078 117.64961 146.76094 117.59961 146.46094 L 116.13086 146.46094 C 116.13086 147.02094 116.29945 147.59977 116.68945 148.00977 C 117.29945 148.67976 118.26063 148.91039 119.14062 148.90039 C 119.99062 148.92039 120.91953 148.72984 121.51953 148.08984 C 122.11953 147.50984 122.27 146.58055 122 145.81055 C 121.87 145.45055 121.6093 145.14922 121.2793 144.94922 C 120.7993 144.66922 120.25094 144.55969 119.71094 144.42969 C 119.26094 144.31969 118.80914 144.22984 118.36914 144.08984 C 118.18914 144.02984 117.99937 143.97008 117.85938 143.83008 C 117.59938 143.56008 117.64039 143.08984 117.90039 142.83984 C 118.16039 142.57984 118.54039 142.50023 118.90039 142.49023 C 119.30039 142.48023 119.74055 142.55031 120.06055 142.82031 C 120.29055 143.01031 120.39016 143.30961 120.41016 143.59961 C 120.90016 143.59961 121.40063 143.60984 121.89062 143.58984 C 121.86063 143.09984 121.73969 142.60094 121.42969 142.21094 C 120.94969 141.61094 120.17992 141.2907 119.41992 141.2207 C 119.25992 141.2107 119.10922 141.20094 118.94922 141.21094 z M 66.689453 141.41992 L 66.689453 146.08008 C 66.679453 146.48008 66.63914 146.92047 66.369141 147.23047 C 66.099141 147.54047 65.669296 147.60961 65.279297 147.59961 C 64.899297 147.59961 64.480234 147.48992 64.240234 147.16992 C 63.970235 146.78992 63.969219 146.29961 63.949219 145.84961 L 63.949219 141.42969 L 62.390625 141.42969 L 62.390625 145.2793 C 62.390625 145.8393 62.370234 146.39922 62.490234 146.94922 C 62.570234 147.36922 62.739297 147.77984 63.029297 148.08984 C 63.579296 148.69984 64.44047 148.89062 65.230469 148.89062 C 65.970468 148.91062 66.74961 148.79984 67.349609 148.33984 C 67.679609 148.08984 67.930547 147.72984 68.060547 147.33984 C 68.220547 146.85984 68.26 146.34984 68.25 145.83984 L 68.25 141.41992 L 66.689453 141.41992 z M 84.980469 141.41992 L 87.050781 148.71094 C 87.530781 148.72094 88.000469 148.7207 88.480469 148.7207 L 89.380859 144.36914 C 89.460859 143.96914 89.499141 143.56016 89.619141 143.16016 C 89.95914 145.02015 90.360235 146.86094 90.740234 148.71094 L 92.210938 148.71094 C 92.880937 146.28094 93.580001 143.84992 94.25 141.41992 L 92.689453 141.41992 C 92.299454 143.17992 91.85 144.92922 91.5 146.69922 C 91.17 144.92922 90.779922 143.17992 90.419922 141.41992 L 88.800781 141.41992 C 88.470782 143.13992 88.120781 144.85031 87.800781 146.57031 L 87.75 146.53906 C 87.7 146.36906 87.690391 146.18953 87.650391 146.01953 C 87.560391 145.45953 87.409062 144.90937 87.289062 144.35938 C 87.059063 143.37938 86.839375 142.39992 86.609375 141.41992 L 84.980469 141.41992 z M 109.19922 141.41992 L 109.19922 148.71094 C 110.27922 148.71094 111.36922 148.72094 112.44922 148.71094 C 113.18922 148.71094 113.94945 148.41008 114.43945 147.83008 C 115.11945 147.04008 115.35938 145.94969 115.35938 144.92969 C 115.35938 144.18969 115.24914 143.40976 114.86914 142.75977 C 114.60914 142.27977 114.18969 141.87016 113.67969 141.66016 C 113.09969 141.41016 112.45008 141.40992 111.83008 141.41992 L 109.19922 141.41992 z M 80.949219 141.42969 C 80.07922 143.85969 79.219609 146.29071 78.349609 148.7207 L 79.960938 148.7207 C 80.130937 148.2207 80.300938 147.72047 80.460938 147.23047 L 83.130859 147.23047 C 83.280859 147.73047 83.439844 148.2207 83.589844 148.7207 L 85.259766 148.7207 C 84.409766 146.29071 83.529687 143.85969 82.679688 141.42969 L 80.949219 141.42969 z M 96.689453 141.42969 C 95.819454 143.85969 94.949843 146.28071 94.089844 148.7207 C 94.629843 148.7207 95.159219 148.7307 95.699219 148.7207 C 95.859219 148.2207 96.039219 147.73047 96.199219 147.23047 L 98.869141 147.23047 C 99.01914 147.73047 99.180078 148.2207 99.330078 148.7207 L 101 148.7207 L 98.419922 141.42969 L 96.689453 141.42969 z M 101.92969 141.42969 L 101.92969 148.7207 L 103.42969 148.7207 L 103.42969 145.86914 L 104.90039 145.86914 C 105.20039 145.85914 105.51906 145.86977 105.78906 146.00977 C 105.97906 146.10977 106.06938 146.31953 106.10938 146.51953 C 106.19937 146.93953 106.13992 147.38055 106.16992 147.81055 C 106.17992 148.12055 106.24008 148.4207 106.33008 148.7207 L 108.01953 148.7207 L 108.01953 148.5293 C 107.82953 148.4093 107.7307 148.1907 107.7207 147.9707 C 107.6707 147.3207 107.77984 146.6593 107.58984 146.0293 C 107.47984 145.6493 107.16078 145.38023 106.80078 145.24023 C 107.12078 145.13023 107.40984 144.92086 107.58984 144.63086 C 107.78984 144.28086 107.91039 143.87094 107.90039 143.46094 C 107.90039 142.72094 107.44906 141.99016 106.78906 141.66016 C 106.25906 141.42016 105.65008 141.42969 105.08008 141.42969 L 101.92969 141.42969 z M 139.58008 141.57031 C 138.90008 141.55031 138.2 141.76906 137.75 142.28906 C 137.35 142.72906 137.18945 143.33969 137.18945 143.92969 L 137.89062 143.92969 C 137.86063 143.40969 138.05922 142.86953 138.44922 142.51953 C 139.08922 141.89953 140.28953 142.03906 140.76953 142.78906 C 141.02953 143.18906 141.05039 143.71039 140.90039 144.15039 C 140.74039 144.59039 140.37023 144.90039 139.99023 145.15039 C 139.05024 145.71039 138.04086 146.26016 137.38086 147.16016 C 137.05086 147.60016 137.01047 148.16922 136.98047 148.69922 C 138.54047 148.70922 140.10016 148.69922 141.66016 148.69922 L 141.66016 148.14062 C 140.34016 148.14062 139.01922 148.13063 137.69922 148.14062 C 137.68922 147.64063 138.03969 147.20062 138.42969 146.89062 C 138.83969 146.53063 139.34055 146.28953 139.81055 146.01953 C 140.36055 145.69953 140.93055 145.37961 141.31055 144.84961 C 141.83055 144.15961 141.87062 143.13992 141.39062 142.41992 C 141.05063 141.92992 140.45914 141.64984 139.86914 141.58984 C 139.77914 141.57984 139.68008 141.57031 139.58008 141.57031 z M 128.23047 141.58008 C 127.89047 141.58008 127.55023 141.6493 127.24023 141.7793 C 126.84023 141.9393 126.4993 142.23914 126.2793 142.61914 C 126.0493 143.00914 125.9507 143.46969 125.9707 143.92969 L 126.66992 143.92969 C 126.63992 143.38969 126.8593 142.82047 127.2793 142.48047 C 127.8693 141.98047 128.84086 142.04984 129.38086 142.58984 C 129.77086 142.98984 129.84945 143.61086 129.68945 144.13086 C 129.57945 144.46086 129.34031 144.72945 129.07031 144.93945 C 128.78031 145.16945 128.45086 145.3393 128.13086 145.5293 C 127.39086 145.9693 126.66062 146.46992 126.14062 147.16992 C 125.81063 147.60992 125.76023 148.1807 125.74023 148.7207 L 130.41992 148.7207 L 130.41992 148.16016 L 126.44922 148.16016 C 126.44922 147.65016 126.78016 147.22016 127.16016 146.91016 C 127.56016 146.55016 128.03977 146.32078 128.50977 146.05078 C 129.08977 145.71078 129.69984 145.38031 130.08984 144.82031 C 130.58984 144.13031 130.62086 143.11039 130.13086 142.40039 C 129.83086 141.98039 129.33984 141.72086 128.83984 141.63086 C 128.63984 141.60086 128.43047 141.58008 128.23047 141.58008 z M 133.64062 141.58008 C 133.12063 141.58008 132.57922 141.71984 132.19922 142.08984 C 131.54922 142.66984 131.37055 143.58992 131.31055 144.41992 C 131.26055 145.09992 131.26938 145.78094 131.35938 146.46094 C 131.41937 146.91094 131.53023 147.35953 131.74023 147.76953 C 131.94023 148.13953 132.25086 148.46039 132.63086 148.65039 C 133.11086 148.88039 133.66945 148.90008 134.18945 148.83008 C 134.67945 148.76008 135.12969 148.48961 135.42969 148.09961 C 135.84969 147.55961 136.01031 146.85945 136.07031 146.18945 C 136.14031 145.42945 136.1293 144.66016 136.0293 143.91016 C 135.9193 143.22016 135.69062 142.49906 135.14062 142.03906 C 134.73063 141.68906 134.17062 141.57008 133.64062 141.58008 z M 144.98047 141.58008 C 144.70047 141.58008 144.42039 141.61992 144.15039 141.66992 C 143.65039 141.76992 143.25023 142.13055 142.99023 142.56055 C 142.79023 142.89055 142.71094 143.28992 142.71094 143.66992 L 143.36914 143.66992 C 143.38914 143.36992 143.44914 143.06078 143.61914 142.80078 C 143.83914 142.43078 144.24992 142.20016 144.66992 142.16016 C 144.98992 142.12016 145.31914 142.15977 145.61914 142.25977 C 145.96914 142.37977 146.27938 142.68078 146.35938 143.05078 C 146.46937 143.52078 146.37094 144.08063 145.96094 144.39062 C 145.50094 144.73062 144.89937 144.73023 144.35938 144.74023 L 144.35938 145.2793 C 144.97937 145.2493 145.66969 145.27992 146.17969 145.66992 C 146.78969 146.15992 146.79977 147.1807 146.25977 147.7207 C 145.83977 148.1707 145.19961 148.3593 144.59961 148.2793 C 144.14961 148.2393 143.69016 148.03016 143.41016 147.66016 C 143.19016 147.36016 143.11914 146.99086 143.11914 146.63086 L 142.46094 146.63086 C 142.51094 147.14086 142.60992 147.67961 142.91992 148.09961 C 143.15992 148.43961 143.53945 148.65023 143.93945 148.74023 C 144.38945 148.84023 144.86031 148.87008 145.32031 148.83008 C 145.88031 148.77008 146.44055 148.51984 146.81055 148.08984 C 147.33055 147.49984 147.42969 146.62039 147.17969 145.90039 C 146.99969 145.42039 146.55031 145.07992 146.07031 144.91992 C 146.51031 144.73992 146.87023 144.35062 146.99023 143.89062 C 147.12023 143.39063 147.08078 142.82086 146.80078 142.38086 C 146.58078 142.03086 146.21055 141.78969 145.81055 141.67969 C 145.54055 141.59969 145.26047 141.57008 144.98047 141.58008 z M 133.75 142.16016 C 134.09 142.16016 134.41969 142.26047 134.67969 142.48047 C 135.08969 142.82047 135.27914 143.35914 135.36914 143.86914 C 135.50914 144.78914 135.49961 145.73992 135.34961 146.66992 C 135.24961 147.14992 135.06945 147.6407 134.68945 147.9707 C 134.36945 148.2607 133.90047 148.33906 133.48047 148.28906 C 133.16047 148.25906 132.85086 148.13039 132.63086 147.90039 C 132.32086 147.60039 132.17008 147.1893 132.08008 146.7793 C 131.95008 146.1793 131.93922 145.55945 131.94922 144.93945 C 131.97922 144.31945 132.03078 143.69062 132.30078 143.14062 C 132.50078 142.67063 132.88992 142.23969 133.41992 142.17969 C 133.52992 142.16969 133.64 142.16016 133.75 142.16016 z M 103.42969 142.71094 L 105.33008 142.71094 C 105.61008 142.72094 105.93086 142.77023 106.13086 142.99023 C 106.35086 143.23023 106.37961 143.59039 106.34961 143.90039 C 106.31961 144.13039 106.2 144.36047 106 144.48047 C 105.77 144.61047 105.49047 144.64062 105.23047 144.64062 L 103.42969 144.64062 L 103.42969 142.71094 z M 110.67969 142.71094 L 112.16016 142.71094 C 112.53016 142.71094 112.9207 142.78953 113.2207 143.01953 C 113.4607 143.19953 113.57016 143.4993 113.66016 143.7793 C 113.78016 144.2393 113.81078 144.70969 113.80078 145.17969 C 113.78078 145.73969 113.66961 146.33078 113.34961 146.80078 C 113.15961 147.08078 112.86906 147.30086 112.53906 147.38086 C 112.31906 147.44086 112.08914 147.43945 111.86914 147.43945 L 110.67969 147.43945 L 110.67969 142.71094 z M 81.800781 143.11914 C 82.100781 144.05914 82.409219 144.99922 82.699219 145.94922 L 80.880859 145.94922 C 81.190859 145.00922 81.500782 144.06914 81.800781 143.11914 z M 97.529297 143.15039 C 97.849297 144.08039 98.129688 145.02094 98.429688 145.96094 L 96.609375 145.96094 C 96.919375 145.02094 97.219297 144.08039 97.529297 143.15039 z M 22.890625 161.24023 L 22.890625 161.96094 L 230.14062 161.96094 L 273.90039 161.96094 L 273.90039 161.24023 L 22.890625 161.24023 z M 165.71094 173.48047 C 165.49094 173.48047 165.28031 173.48977 165.07031 173.50977 C 164.59031 173.57977 164.11047 173.72906 163.73047 174.03906 C 163.17047 174.46906 162.86937 175.16914 162.85938 175.86914 C 162.84938 176.29914 162.9507 176.74984 163.2207 177.08984 C 163.4607 177.39984 163.81969 177.59094 164.17969 177.71094 C 164.68969 177.89094 165.22977 177.96984 165.75977 178.08984 C 166.29977 178.20984 166.85008 178.31008 167.33008 178.58008 C 167.66008 178.78008 167.75 179.19078 167.75 179.55078 C 167.74 179.93078 167.55047 180.3 167.23047 180.5 C 166.68047 180.85 165.99914 180.90937 165.36914 180.85938 C 164.85914 180.80938 164.32 180.61922 164 180.19922 C 163.75 179.87922 163.66086 179.47031 163.63086 179.07031 L 162.59961 179.07031 C 162.55961 179.85031 162.8507 180.66016 163.4707 181.16016 C 164.1607 181.75016 165.11024 181.88984 165.99023 181.83984 C 166.52023 181.81984 167.0493 181.6907 167.5293 181.4707 C 167.8593 181.3207 168.19016 181.12031 168.41016 180.82031 C 168.71016 180.43031 168.82008 179.93922 168.83008 179.44922 C 168.84008 179.05922 168.77031 178.65078 168.57031 178.30078 C 168.35031 177.93078 168.01086 177.66 167.63086 177.5 C 167.19086 177.3 166.71977 177.21937 166.25977 177.10938 C 165.68977 176.96938 165.11055 176.86016 164.56055 176.66016 C 164.27055 176.56016 164.01945 176.33906 163.93945 176.03906 C 163.77945 175.48906 164.08961 174.88086 164.59961 174.63086 C 164.93961 174.47086 165.31922 174.43922 165.69922 174.44922 C 166.18922 174.44922 166.72008 174.56992 167.08008 174.91992 C 167.39008 175.20992 167.49078 175.65055 167.55078 176.06055 L 168.59961 176.06055 C 168.57961 175.69055 168.55016 175.32047 168.41016 174.98047 C 168.25016 174.56047 167.94078 174.1907 167.55078 173.9707 C 167.00078 173.6207 166.35094 173.49047 165.71094 173.48047 z M 176.31055 173.65039 L 176.31055 181.63086 C 176.64055 181.64086 176.96906 181.63086 177.28906 181.63086 L 177.28906 173.65039 L 176.31055 173.65039 z M 23.689453 173.66016 L 23.689453 181.64062 L 27.230469 181.64062 C 27.700468 181.63063 28.17961 181.54008 28.599609 181.33008 C 29.329609 180.96008 29.840078 180.15984 29.830078 179.33984 C 29.840078 178.88984 29.740703 178.42055 29.470703 178.06055 C 29.210703 177.71055 28.81039 177.50961 28.400391 177.34961 C 28.80039 177.14961 29.150547 176.84016 29.310547 176.41016 C 29.560547 175.71016 29.459687 174.83906 28.929688 174.28906 C 28.519688 173.84906 27.910312 173.68016 27.320312 173.66016 L 23.689453 173.66016 z M 48.089844 173.66016 L 48.089844 174.60938 L 50.769531 174.60938 L 50.769531 181.63086 L 51.890625 181.63086 L 51.890625 174.60938 L 54.570312 174.60938 C 54.560313 174.28938 54.560547 173.98016 54.560547 173.66016 L 48.089844 173.66016 z M 95.109375 173.66016 L 95.109375 181.64062 L 96.150391 181.64062 C 96.140391 179.41063 96.179375 177.17922 96.109375 174.94922 C 96.869374 177.17922 97.63086 179.41063 98.380859 181.64062 L 99.470703 181.64062 C 99.880703 180.42063 100.29094 179.1907 100.71094 177.9707 C 101.05094 176.9907 101.36094 176.00906 101.71094 175.03906 C 101.73094 175.81906 101.69094 176.61063 101.71094 177.39062 L 101.71094 181.64062 L 102.74023 181.64062 L 102.74023 173.66016 L 101.19922 173.66016 C 100.42922 175.89015 99.679687 178.12938 98.929688 180.35938 C 98.159688 178.12938 97.420155 175.89015 96.660156 173.66016 L 95.109375 173.66016 z M 187.93945 173.66016 L 187.93945 174.75977 L 188.94922 174.75977 L 188.94922 173.66016 L 188.43945 173.66016 L 187.93945 173.66016 z M 42.869141 174.23047 L 42.869141 175.81055 L 42.080078 175.81055 L 42.080078 176.61914 L 42.869141 176.61914 L 42.869141 180.16016 C 42.869141 180.54016 42.839063 180.9393 43.039062 181.2793 C 43.169062 181.5593 43.479297 181.71047 43.779297 181.73047 C 44.119297 181.75047 44.459063 181.75016 44.789062 181.66016 L 44.789062 180.88086 C 44.579063 180.88086 44.369922 180.87984 44.169922 180.83984 C 43.989922 180.80984 43.870859 180.61922 43.880859 180.44922 L 43.880859 176.63086 L 44.800781 176.63086 L 44.800781 175.82031 L 43.880859 175.82031 C 43.860859 175.28031 43.859375 174.76047 43.859375 174.23047 L 42.869141 174.23047 z M 156.75 174.23047 L 156.75 175.81055 L 155.96094 175.81055 L 155.96094 176.61914 L 156.75 176.61914 L 156.75 180.53906 C 156.74 180.83906 156.82023 181.15039 156.99023 181.40039 C 157.14023 181.61039 157.40039 181.70047 157.65039 181.73047 C 157.99039 181.75047 158.33016 181.75016 158.66016 181.66016 L 158.66016 180.88086 C 158.45016 180.88086 158.23906 180.87984 158.03906 180.83984 C 157.84906 180.79984 157.73023 180.61945 157.74023 180.43945 L 157.74023 176.61914 L 158.66016 176.61914 L 158.66016 175.81055 L 157.74023 175.81055 L 157.74023 174.23047 L 156.75 174.23047 z M 185.08984 174.23047 L 185.08984 175.81055 L 184.30078 175.81055 C 184.29078 176.08055 184.30078 176.34914 184.30078 176.61914 L 185.08984 176.61914 L 185.08984 180.58984 C 185.08984 180.88984 185.16961 181.18969 185.34961 181.42969 C 185.49961 181.61969 185.75023 181.71047 185.99023 181.73047 C 186.33023 181.75047 186.67 181.75016 187 181.66016 L 187 180.88086 C 186.79 180.88086 186.57914 180.87984 186.36914 180.83984 C 186.18914 180.80984 186.07008 180.61945 186.08008 180.43945 L 186.08008 176.61914 L 187 176.61914 L 187 175.81055 L 186.08008 175.81055 L 186.08008 174.23047 L 185.08984 174.23047 z M 24.779297 174.61914 L 25.679688 174.61914 L 26.580078 174.61914 C 27.040078 174.64914 27.560938 174.62039 27.960938 174.90039 C 28.290937 175.12039 28.399375 175.55922 28.359375 175.94922 C 28.339375 176.28922 28.169375 176.64055 27.859375 176.81055 C 27.449375 177.05055 26.969531 177.03078 26.519531 177.05078 L 24.769531 177.05078 C 24.769531 176.24078 24.769297 175.41914 24.779297 174.61914 z M 172.42969 175.60938 C 172.27969 175.61937 172.14 175.62063 172 175.64062 C 171.63 175.69062 171.27094 175.8193 170.96094 176.0293 C 170.33094 176.4593 169.94078 177.17016 169.80078 177.91016 C 169.66078 178.72016 169.67023 179.57984 169.99023 180.33984 C 170.29023 181.06984 170.96 181.65906 171.75 181.78906 C 172.56 181.90906 173.45938 181.8193 174.10938 181.2793 C 174.52937 180.9193 174.80094 180.41086 174.96094 179.88086 C 175.18094 179.10086 175.2 178.26047 175 177.48047 C 174.82 176.78047 174.32969 176.19086 173.67969 175.88086 C 173.28969 175.68086 172.85969 175.60938 172.42969 175.60938 z M 192.74023 175.60938 C 192.59023 175.61937 192.45055 175.62063 192.31055 175.64062 C 191.73055 175.72062 191.16906 176.01094 190.78906 176.46094 C 190.25906 177.06094 190.0493 177.88969 190.0293 178.67969 C 190.0193 179.24969 190.08031 179.83914 190.32031 180.36914 C 190.58031 180.97914 191.0807 181.48922 191.7207 181.69922 C 192.2007 181.86922 192.73047 181.86078 193.23047 181.80078 C 193.73047 181.72078 194.21031 181.51062 194.57031 181.14062 C 194.91031 180.77063 195.1393 180.31984 195.2793 179.83984 C 195.4893 179.05984 195.51078 178.21945 195.30078 177.43945 C 195.11078 176.75945 194.62023 176.18086 193.99023 175.88086 C 193.60023 175.68086 193.17023 175.60938 192.74023 175.60938 z M 33.410156 175.69922 C 33.360156 175.69922 33.309766 175.71094 33.259766 175.71094 C 32.489766 175.71094 31.739062 176.12 31.289062 176.75 C 30.729063 177.5 30.620938 178.49039 30.710938 179.40039 C 30.770937 179.85039 30.900391 180.29945 31.150391 180.68945 C 31.55039 181.30945 32.230704 181.75031 32.970703 181.82031 C 33.400703 181.85031 33.849532 181.83922 34.269531 181.69922 C 35.11953 181.45922 35.740156 180.68008 35.910156 179.83008 L 34.919922 179.83008 C 34.819922 180.12008 34.659922 180.40938 34.419922 180.60938 C 34.119922 180.85937 33.729609 180.97094 33.349609 180.96094 C 32.92961 180.97094 32.479218 180.84 32.199219 180.5 C 31.869219 180.09 31.760234 179.57055 31.740234 179.06055 L 35.980469 179.06055 C 35.990469 178.24055 35.949218 177.35016 35.449219 176.66016 C 34.969219 176.04016 34.180155 175.69922 33.410156 175.69922 z M 39.199219 175.69922 C 38.879219 175.69922 38.550234 175.72031 38.240234 175.82031 C 37.830235 175.95031 37.470469 176.21055 37.230469 176.56055 C 36.990469 176.92055 36.920234 177.38055 36.990234 177.81055 C 37.060234 178.21055 37.370703 178.50945 37.720703 178.68945 C 38.240703 178.94945 38.819141 179.04922 39.369141 179.19922 C 39.70914 179.28922 40.059141 179.3493 40.369141 179.5293 C 40.74914 179.7593 40.700859 180.35914 40.380859 180.61914 C 40.05086 180.86914 39.640468 180.95945 39.230469 180.93945 C 38.820469 180.93945 38.380312 180.86984 38.070312 180.58984 C 37.850313 180.38984 37.780234 180.09055 37.740234 179.81055 L 36.800781 179.81055 C 36.830781 180.46055 37.119454 181.14023 37.689453 181.49023 C 38.259453 181.82023 38.940313 181.83055 39.570312 181.81055 C 40.100312 181.77055 40.660782 181.62023 41.050781 181.24023 C 41.570781 180.75023 41.760234 179.9393 41.490234 179.2793 C 41.370234 178.9993 41.120078 178.78016 40.830078 178.66016 C 40.170079 178.37016 39.439999 178.26031 38.75 178.07031 C 38.5 177.99031 38.240078 177.88992 38.080078 177.66992 C 37.910078 177.43992 37.929141 177.10062 38.119141 176.89062 C 38.30914 176.68063 38.589375 176.59984 38.859375 176.58984 C 39.279375 176.56984 39.719844 176.58055 40.089844 176.81055 C 40.329844 176.96055 40.450234 177.24953 40.490234 177.51953 L 41.419922 177.51953 C 41.409922 177.02953 41.200078 176.54094 40.830078 176.21094 C 40.470078 175.89094 39.989531 175.75094 39.519531 175.71094 C 39.409531 175.71094 39.309219 175.69922 39.199219 175.69922 z M 61.080078 175.69922 C 61.030078 175.69922 60.979687 175.71094 60.929688 175.71094 C 60.159688 175.71094 59.410937 176.12 58.960938 176.75 C 58.400938 177.51 58.280859 178.50016 58.380859 179.41016 C 58.430859 179.85016 58.560781 180.28992 58.800781 180.66992 C 59.240781 181.35992 60.019845 181.83008 60.839844 181.83008 C 61.219843 181.85008 61.610469 181.81945 61.980469 181.68945 C 62.800468 181.42945 63.420078 180.67008 63.580078 179.83008 L 62.589844 179.83008 C 62.489844 180.12008 62.329844 180.40938 62.089844 180.60938 C 61.789844 180.85937 61.399531 180.97094 61.019531 180.96094 C 60.599532 180.97094 60.14914 180.84 59.869141 180.5 C 59.539141 180.09 59.440156 179.57055 59.410156 179.06055 L 63.650391 179.06055 C 63.660391 178.24055 63.61914 177.35016 63.119141 176.66016 C 62.639141 176.04016 61.850077 175.69922 61.080078 175.69922 z M 146.66016 175.69922 C 146.61016 175.69922 146.55977 175.71094 146.50977 175.71094 C 145.73977 175.71094 144.98906 176.12 144.53906 176.75 C 143.97906 177.5 143.86094 178.49039 143.96094 179.40039 C 144.02094 179.86039 144.15039 180.30945 144.40039 180.68945 C 144.84039 181.35945 145.60992 181.82031 146.41992 181.82031 C 146.79992 181.84031 147.19055 181.79969 147.56055 181.67969 C 148.38055 181.41969 149.00016 180.66031 149.16016 179.82031 L 148.16992 179.82031 C 148.06992 180.12031 147.91039 180.41914 147.65039 180.61914 C 147.36039 180.84914 146.97937 180.95922 146.60938 180.94922 C 146.18938 180.96922 145.74094 180.83023 145.46094 180.49023 C 145.13094 180.09023 145.02 179.56055 145 179.06055 L 149.24023 179.06055 C 149.25023 178.24055 149.20922 177.35016 148.69922 176.66016 C 148.21922 176.04016 147.44016 175.69922 146.66016 175.69922 z M 57.480469 175.71094 C 57.210469 175.71094 56.940703 175.78922 56.720703 175.94922 C 56.410703 176.16922 56.149219 176.45906 55.949219 176.78906 L 55.949219 175.81055 L 55.019531 175.81055 L 55.019531 181.64062 L 55.990234 181.64062 L 55.990234 178.33984 C 55.990234 177.84984 56.190547 177.3593 56.560547 177.0293 C 56.910547 176.7393 57.399844 176.66977 57.839844 176.75977 L 57.839844 175.74023 C 57.729844 175.72023 57.610469 175.71094 57.480469 175.71094 z M 67.179688 175.71094 C 66.829688 175.70094 66.470625 175.72961 66.140625 175.84961 C 65.770625 175.97961 65.389922 176.16 65.169922 176.5 C 64.939922 176.82 64.879375 177.21938 64.859375 177.60938 L 65.789062 177.60938 C 65.829062 177.36938 65.880547 177.10992 66.060547 176.91992 C 66.310547 176.65992 66.689063 176.58008 67.039062 176.58008 C 67.419062 176.57008 67.830391 176.60984 68.150391 176.83984 C 68.44039 177.04984 68.490391 177.4593 68.400391 177.7793 C 68.350391 177.9693 68.160703 178.09914 67.970703 178.11914 C 67.400704 178.19914 66.829531 178.25984 66.269531 178.33984 C 65.739532 178.41984 65.20914 178.65008 64.869141 179.08008 C 64.559141 179.49008 64.509375 180.04906 64.609375 180.53906 C 64.769375 181.29906 65.519298 181.84008 66.279297 181.83008 C 67.099296 181.89008 67.930704 181.54945 68.470703 180.93945 C 68.500703 181.28945 68.690782 181.65 69.050781 181.75 C 69.380781 181.82 69.740547 181.78945 70.060547 181.68945 L 70.060547 180.98047 C 69.890547 180.99047 69.699062 181.03047 69.539062 180.98047 C 69.429063 180.90047 69.419922 180.76062 69.419922 180.64062 L 69.419922 177.28906 C 69.419922 176.89906 69.270937 176.50023 68.960938 176.24023 C 68.560938 175.91023 68.039296 175.7607 67.529297 175.7207 C 67.409297 175.7207 67.299687 175.71094 67.179688 175.71094 z M 72.849609 175.71094 C 72.26961 175.72094 71.66 175.90984 71.25 176.33984 C 70.87 176.71984 70.730313 177.30031 70.820312 177.82031 C 70.890312 178.21031 71.200782 178.51922 71.550781 178.69922 C 72.200781 179.01922 72.929141 179.11031 73.619141 179.32031 C 73.88914 179.40031 74.199141 179.47094 74.369141 179.71094 C 74.56914 180.02094 74.46039 180.47969 74.150391 180.67969 C 73.840391 180.87969 73.469375 180.97094 73.109375 180.96094 C 72.689375 180.97094 72.22039 180.89937 71.900391 180.60938 C 71.680391 180.40938 71.610078 180.11008 71.580078 179.83008 L 70.640625 179.83008 C 70.670625 180.36008 70.860235 180.8993 71.240234 181.2793 C 71.580234 181.6293 72.069063 181.76031 72.539062 181.82031 C 72.839062 181.85031 73.149219 181.84008 73.449219 181.83008 C 73.999218 181.79008 74.569219 181.60945 74.949219 181.18945 C 75.349218 180.76945 75.530156 180.15984 75.410156 179.58984 C 75.350156 179.20984 75.099765 178.86922 74.759766 178.69922 C 74.199766 178.42922 73.570703 178.32016 72.970703 178.16016 C 72.610703 178.07016 72.220937 178.0007 71.960938 177.7207 C 71.740938 177.5007 71.750938 177.12062 71.960938 176.89062 C 72.180937 176.65063 72.520078 176.58008 72.830078 176.58008 C 73.210078 176.57008 73.609688 176.60055 73.929688 176.81055 C 74.169687 176.96055 74.290078 177.24953 74.330078 177.51953 L 75.259766 177.51953 C 75.249766 176.96953 74.979296 176.42937 74.529297 176.10938 C 74.079297 175.78938 73.510703 175.69094 72.970703 175.71094 L 72.849609 175.71094 z M 85.199219 175.71094 C 84.929219 175.71094 84.659453 175.78922 84.439453 175.94922 C 84.129453 176.16922 83.869922 176.45906 83.669922 176.78906 L 83.669922 175.81055 L 82.740234 175.81055 L 82.740234 181.64062 L 83.710938 181.64062 L 83.710938 178.58984 C 83.710938 178.29984 83.710313 178.00047 83.820312 177.73047 C 83.930312 177.44047 84.109141 177.16047 84.369141 176.98047 C 84.71914 176.74047 85.170313 176.68953 85.570312 176.76953 L 85.570312 175.75 C 85.450313 175.72 85.319219 175.71094 85.199219 175.71094 z M 113.25977 175.71094 C 112.96977 175.71094 112.68016 175.73008 112.41016 175.83008 C 111.98016 175.97008 111.61031 176.26914 111.32031 176.61914 L 111.32031 175.81055 L 110.36914 175.81055 L 110.36914 181.64062 L 111.36914 181.64062 L 111.36914 179.73047 C 111.37914 179.15047 111.35063 178.58 111.39062 178 C 111.42062 177.49 111.73992 177.02953 112.16992 176.76953 C 112.48992 176.58953 112.8707 176.55984 113.2207 176.58984 C 113.4607 176.61984 113.69984 176.73945 113.83984 176.93945 C 114.02984 177.19945 114.08961 177.53938 114.09961 177.85938 L 114.09961 181.63086 L 115.10938 181.63086 L 115.10938 177.66992 C 115.08938 177.19992 115.0207 176.69055 114.7207 176.31055 C 114.4407 175.95055 113.99078 175.7707 113.55078 175.7207 C 113.45078 175.7107 113.35977 175.71094 113.25977 175.71094 z M 118.89062 175.71094 C 118.52063 175.70094 118.16055 175.72961 117.81055 175.84961 C 117.45055 175.97961 117.07937 176.16047 116.85938 176.48047 C 116.62938 176.81047 116.55906 177.21914 116.53906 177.61914 L 117.4707 177.61914 C 117.5007 177.47914 117.52008 177.33922 117.58008 177.19922 C 117.72008 176.81922 118.12977 176.62961 118.50977 176.59961 C 118.93977 176.57961 119.3993 176.58055 119.7793 176.81055 C 120.1093 177.02055 120.19031 177.48008 120.07031 177.83008 C 120.01031 178.02008 119.80914 178.12063 119.61914 178.14062 C 119.07914 178.21062 118.54977 178.27961 118.00977 178.34961 C 117.48977 178.41961 116.94961 178.62906 116.59961 179.03906 C 116.30961 179.38906 116.22977 179.87055 116.25977 180.31055 C 116.29977 181.01055 116.85906 181.6193 117.53906 181.7793 C 118.47906 181.9793 119.52016 181.66945 120.16016 180.93945 C 120.20016 181.13945 120.25063 181.35953 120.39062 181.51953 C 120.52062 181.66953 120.70063 181.7593 120.89062 181.7793 C 121.18062 181.7993 121.47977 181.78945 121.75977 181.68945 L 121.75977 180.98047 C 121.58977 180.99047 121.41094 181.0307 121.21094 180.9707 C 121.10094 180.9007 121.08984 180.76062 121.08984 180.64062 L 121.08984 177.30078 C 121.08984 176.92078 120.95016 176.52953 120.66016 176.26953 C 120.27016 175.92953 119.75 175.78047 119.25 175.73047 C 119.13 175.72047 119.01062 175.71094 118.89062 175.71094 z M 131.17969 175.71094 C 130.38969 175.70094 129.62016 176.11 129.16016 176.75 C 128.60016 177.5 128.48008 178.50016 128.58008 179.41016 C 128.64008 179.87016 128.77906 180.3307 129.03906 180.7207 C 129.47906 181.3807 130.23906 181.83008 131.03906 181.83008 C 131.41906 181.85008 131.80969 181.80945 132.17969 181.68945 C 132.99969 181.42945 133.6193 180.67008 133.7793 179.83008 L 132.78906 179.83008 C 132.68906 180.13008 132.52953 180.43086 132.26953 180.63086 C 131.96953 180.86086 131.5907 180.97094 131.2207 180.96094 C 130.8007 180.97094 130.35031 180.83 130.07031 180.5 C 129.74031 180.1 129.62937 179.57055 129.60938 179.06055 L 133.84961 179.06055 C 133.84961 178.38055 133.84078 177.68055 133.55078 177.06055 C 133.18078 176.22055 132.25937 175.73094 131.35938 175.71094 L 131.17969 175.71094 z M 137.74023 175.71094 C 137.41023 175.71094 137.0793 175.77969 136.7793 175.92969 C 136.4693 176.08969 136.22977 176.34938 136.00977 176.60938 L 136.00977 175.81055 L 135.01953 175.81055 L 135.01953 181.64062 L 136.01953 181.64062 L 136.01953 178.73047 C 136.00953 178.30047 136.02945 177.84945 136.18945 177.43945 C 136.34945 177.00945 136.75945 176.70937 137.18945 176.60938 C 137.50945 176.55938 137.89039 176.57055 138.15039 176.81055 C 138.38039 177.03055 138.39992 177.36992 138.41992 177.66992 L 138.41992 181.64062 L 139.42969 181.64062 L 139.42969 178.7793 C 139.42969 178.2993 139.39984 177.79961 139.58984 177.34961 C 139.87984 176.63961 140.88953 176.36078 141.51953 176.80078 C 141.77953 176.99078 141.81031 177.34086 141.82031 177.63086 L 141.82031 181.64062 L 142.83984 181.64062 L 142.83984 177.58008 C 142.82984 177.13008 142.73922 176.64906 142.44922 176.28906 C 142.20922 175.96906 141.81969 175.79047 141.42969 175.73047 C 141.00969 175.69047 140.56016 175.68938 140.16016 175.85938 C 139.80016 175.99937 139.49953 176.27008 139.26953 176.58008 C 139.07953 176.20008 138.75008 175.8793 138.33008 175.7793 C 138.14008 175.7293 137.94023 175.71094 137.74023 175.71094 z M 199.46094 175.71094 C 199.20094 175.71094 198.95094 175.72078 198.71094 175.80078 C 198.24094 175.93078 197.84906 176.23914 197.53906 176.61914 L 197.53906 175.81055 C 197.21906 175.80055 196.89984 175.81055 196.58984 175.81055 L 196.58984 181.64062 L 197.58984 181.64062 L 197.58984 179.53906 C 197.59984 178.99906 197.55914 178.44992 197.61914 177.91992 C 197.65914 177.53992 197.87016 177.18922 198.16016 176.94922 C 198.56016 176.59922 199.14063 176.52016 199.64062 176.66016 C 200.11062 176.80016 200.30031 177.3293 200.32031 177.7793 C 200.33031 179.0693 200.32031 180.36016 200.32031 181.66016 L 201.33008 181.66016 L 201.33008 177.68945 C 201.30008 177.18945 201.21969 176.69055 200.92969 176.31055 C 200.63969 175.94055 200.17094 175.7507 199.71094 175.7207 C 199.63094 175.7207 199.54094 175.71094 199.46094 175.71094 z M 106.44922 175.7207 C 105.86922 175.7307 105.29031 175.87047 104.82031 176.23047 C 104.39031 176.56047 104.26023 177.13063 104.24023 177.64062 L 105.16992 177.64062 C 105.21992 177.32063 105.31961 176.99055 105.59961 176.81055 C 105.92961 176.58055 106.35023 176.57961 106.74023 176.59961 C 107.05023 176.62961 107.37938 176.69992 107.60938 176.91992 C 107.81937 177.13992 107.85906 177.46977 107.78906 177.75977 C 107.73906 177.94977 107.57086 178.08914 107.38086 178.11914 C 107.06086 178.17914 106.73992 178.2 106.41992 178.25 C 105.83992 178.33 105.24047 178.34992 104.73047 178.66992 C 104.34047 178.88992 104.0407 179.28047 103.9707 179.73047 C 103.9007 180.15047 103.93016 180.61023 104.16016 180.99023 C 104.39016 181.38023 104.79047 181.6693 105.23047 181.7793 C 106.16047 181.9793 107.19984 181.66945 107.83984 180.93945 C 107.86984 181.09945 107.90023 181.26016 107.99023 181.41016 C 108.11023 181.62016 108.33031 181.7593 108.57031 181.7793 C 108.86031 181.7993 109.14969 181.78945 109.42969 181.68945 L 109.42969 180.98047 C 109.25969 180.99047 109.08016 181.03023 108.91016 180.99023 C 108.80016 180.91023 108.78906 180.77039 108.78906 180.65039 L 108.78906 177.58984 C 108.80906 177.22984 108.78008 176.84906 108.58008 176.53906 C 108.29008 176.08906 107.75023 175.8693 107.24023 175.7793 C 106.98023 175.7393 106.71922 175.7207 106.44922 175.7207 z M 153.30078 175.7207 C 153.01078 175.7207 152.71922 175.73984 152.44922 175.83984 C 152.01922 175.97984 151.64937 176.28086 151.35938 176.63086 L 151.35938 175.82031 L 150.41016 175.82031 L 150.41016 181.65039 L 151.41016 181.65039 L 151.41016 178.34961 C 151.42016 178.05961 151.44055 177.76023 151.56055 177.49023 C 151.78055 177.04023 152.21094 176.67914 152.71094 176.61914 C 153.05094 176.58914 153.41922 176.57906 153.69922 176.78906 C 154.00922 177.02906 154.10914 177.45008 154.11914 177.83008 L 154.11914 181.65039 L 155.13086 181.65039 L 155.13086 177.67969 C 155.14086 177.18969 155.05977 176.69055 154.75977 176.31055 C 154.47977 175.95055 154.02984 175.77047 153.58984 175.73047 C 153.48984 175.72047 153.40078 175.7207 153.30078 175.7207 z M 124.74023 175.76953 C 124.63023 175.76953 124.52016 175.77906 124.41016 175.78906 C 123.64016 175.89906 122.99992 176.46063 122.66992 177.14062 C 122.31992 177.88062 122.27914 178.71953 122.36914 179.51953 C 122.42914 179.98953 122.56938 180.45984 122.85938 180.83984 C 123.18937 181.23984 123.65016 181.53063 124.16016 181.64062 C 124.53016 181.71062 124.92078 181.70062 125.30078 181.64062 C 125.79078 181.56063 126.2007 181.23031 126.4707 180.82031 C 126.4507 181.36031 126.46977 181.92922 126.25977 182.44922 C 126.06977 182.88922 125.61039 183.13969 125.15039 183.17969 C 124.73039 183.20969 124.28992 183.21 123.91992 183 C 123.67992 182.86 123.55 182.60961 123.5 182.34961 L 122.49023 182.34961 C 122.53023 182.86961 122.77023 183.39969 123.24023 183.67969 C 123.69023 183.95969 124.23953 184.08031 124.76953 184.07031 C 125.27953 184.08031 125.79023 184.00953 126.24023 183.76953 C 126.67023 183.54953 127.00969 183.14922 127.17969 182.69922 C 127.35969 182.25922 127.40992 181.77078 127.41992 181.30078 L 127.41992 175.90039 C 127.10992 175.90039 126.80953 175.89992 126.51953 175.91992 L 126.51953 176.64062 C 126.29953 176.36063 126.04094 176.10094 125.71094 175.96094 C 125.41094 175.81094 125.07023 175.75953 124.74023 175.76953 z M 182.38086 175.78906 C 182.36086 176.72906 182.35938 177.65008 182.35938 178.58008 C 182.33938 179.12008 182.33961 179.67969 182.09961 180.17969 C 181.92961 180.55969 181.57992 180.85969 181.16992 180.92969 C 180.82992 180.97969 180.45992 180.9893 180.16992 180.7793 C 179.86992 180.5593 179.75977 180.18031 179.75977 179.82031 L 179.75977 175.80078 L 178.74023 175.80078 L 178.74023 179.66992 C 178.73023 180.08992 178.74969 180.52016 178.92969 180.91016 C 179.08969 181.27016 179.39953 181.55945 179.76953 181.68945 C 180.17953 181.83945 180.63055 181.83906 181.06055 181.78906 C 181.63055 181.69906 182.13969 181.33984 182.42969 180.83984 C 182.42969 181.09984 182.41992 181.35914 182.41992 181.61914 L 183.36914 181.61914 L 183.36914 175.78906 L 182.38086 175.78906 z M 76.570312 175.81055 L 76.570312 179.67969 C 76.550313 180.24969 76.619297 180.89031 77.029297 181.32031 C 77.399297 181.73031 77.989297 181.85008 78.529297 181.83008 C 79.229296 181.85008 79.919766 181.45961 80.259766 180.84961 C 80.259766 181.10961 80.25 181.38063 80.25 181.64062 L 81.199219 181.64062 L 81.199219 175.81055 L 80.189453 175.81055 C 80.189453 176.80055 80.199453 177.78953 80.189453 178.76953 C 80.169453 179.33953 80.119062 179.93992 79.789062 180.41992 C 79.539063 180.77992 79.099921 180.97094 78.669922 180.96094 C 78.389922 180.97094 78.09039 180.89945 77.900391 180.68945 C 77.660391 180.44945 77.589844 180.0993 77.589844 179.7793 L 77.589844 175.81055 L 76.570312 175.81055 z M 85.779297 175.81055 C 86.499296 177.81054 87.209923 179.81055 87.919922 181.81055 C 87.789922 182.12055 87.669062 182.43047 87.539062 182.73047 C 87.459063 182.92047 87.290078 183.11063 87.080078 183.14062 C 86.820078 183.18062 86.560547 183.12078 86.310547 183.05078 L 86.310547 183.96094 C 86.520547 184.02094 86.750703 184.0293 86.970703 184.0293 C 87.300703 184.0293 87.640391 183.95977 87.900391 183.75977 C 88.10039 183.59977 88.220078 183.37039 88.330078 183.15039 C 88.580078 182.65039 88.780235 182.12937 88.990234 181.60938 C 89.740234 179.69938 90.38961 177.74054 91.099609 175.81055 L 90.550781 175.81055 L 90 175.81055 C 89.480001 177.38055 88.969218 178.94953 88.449219 180.51953 C 87.929219 178.94953 87.420156 177.38055 86.910156 175.81055 L 85.779297 175.81055 z M 187.93945 175.84961 L 187.93945 181.63086 L 188.94922 181.63086 L 188.94922 175.84961 L 187.93945 175.84961 z M 172.44922 176.48047 C 172.77922 176.48047 173.12063 176.55 173.39062 176.75 C 173.75062 177 173.9393 177.42961 174.0293 177.84961 C 174.1493 178.50961 174.11039 179.19078 173.90039 179.80078 C 173.80039 180.10078 173.67969 180.40914 173.42969 180.61914 C 173.14969 180.85914 172.77992 180.94945 172.41992 180.93945 C 172.00992 180.95945 171.56906 180.82977 171.28906 180.50977 C 170.98906 180.16977 170.8393 179.72906 170.7793 179.28906 C 170.6893 178.48906 170.78906 177.61094 171.28906 176.96094 C 171.49906 176.71094 171.79914 176.55 172.11914 176.5 C 172.22914 176.49 172.33922 176.48047 172.44922 176.48047 z M 192.74023 176.49023 C 193.08023 176.48023 193.40945 176.55 193.68945 176.75 C 194.07945 177.03 194.26961 177.50094 194.34961 177.96094 C 194.47961 178.77094 194.38047 179.62938 193.98047 180.35938 C 193.74047 180.75937 193.27031 180.96094 192.82031 180.96094 C 192.40031 180.98094 191.94062 180.88031 191.64062 180.57031 C 191.32063 180.24031 191.15984 179.78984 191.08984 179.33984 C 190.97984 178.53984 191.08031 177.67 191.57031 177 C 191.77031 176.73 192.08016 176.55977 192.41016 176.50977 C 192.52016 176.49977 192.63023 176.49023 192.74023 176.49023 z M 33.269531 176.58008 L 33.359375 176.58008 C 33.769375 176.57008 34.210235 176.69977 34.490234 177.00977 C 34.810234 177.35977 34.910938 177.83906 34.960938 178.28906 C 33.890939 178.28906 32.82953 178.2893 31.769531 178.2793 C 31.789531 177.8793 31.909922 177.47039 32.169922 177.15039 C 32.429922 176.82039 32.839532 176.59008 33.269531 176.58008 z M 60.939453 176.58008 L 61.029297 176.58008 C 61.439296 176.56008 61.880157 176.69977 62.160156 177.00977 C 62.480156 177.35977 62.580859 177.83906 62.630859 178.28906 L 59.439453 178.28906 C 59.459453 177.87906 59.579844 177.47039 59.839844 177.15039 C 60.099843 176.82039 60.509454 176.59008 60.939453 176.58008 z M 131.15039 176.58984 L 131.23047 176.58984 C 131.64047 176.56984 132.07938 176.70953 132.35938 177.01953 C 132.67937 177.35953 132.78008 177.83906 132.83008 178.28906 L 132.83008 178.30078 L 129.64062 178.30078 C 129.67062 177.88078 129.79031 177.46062 130.07031 177.14062 C 130.33031 176.81063 130.73039 176.59984 131.15039 176.58984 z M 146.53906 176.58984 L 146.61914 176.58984 C 147.02914 176.56984 147.47 176.70953 147.75 177.01953 C 148.07 177.35953 148.1707 177.83906 148.2207 178.28906 C 147.1507 178.28906 146.0893 178.29078 145.0293 178.30078 C 145.0593 177.88078 145.18094 177.46062 145.46094 177.14062 C 145.72094 176.81063 146.11906 176.59984 146.53906 176.58984 z M 124.93945 176.63086 C 125.28945 176.64086 125.63063 176.74047 125.89062 176.98047 C 126.20062 177.24047 126.36945 177.61977 126.43945 178.00977 C 126.53945 178.56977 126.53008 179.1707 126.33008 179.7207 C 126.20008 180.1107 125.95961 180.46992 125.59961 180.66992 C 125.27961 180.84992 124.8893 180.87984 124.5293 180.83984 C 124.1493 180.77984 123.80914 180.52922 123.61914 180.19922 C 123.36914 179.76922 123.33008 179.25953 123.33008 178.76953 C 123.36008 178.22953 123.41047 177.66094 123.73047 177.21094 C 123.93047 176.92094 124.24961 176.72016 124.59961 176.66016 C 124.70961 176.64016 124.81945 176.63086 124.93945 176.63086 z M 24.769531 177.90039 L 26.669922 177.90039 C 27.149921 177.92039 27.640079 177.90914 28.080078 178.11914 C 28.370078 178.25914 28.609219 178.51008 28.699219 178.83008 C 28.829219 179.33008 28.730312 179.9293 28.320312 180.2793 C 27.980313 180.5893 27.500781 180.65992 27.050781 180.66992 C 26.290782 180.67992 25.52953 180.66992 24.769531 180.66992 L 24.769531 177.90039 z M 68.419922 178.73047 C 68.389922 179.18047 68.490547 179.64984 68.310547 180.08984 C 68.170547 180.42984 67.859297 180.65906 67.529297 180.78906 C 67.179297 180.93906 66.78039 180.99922 66.400391 180.94922 C 66.130391 180.89922 65.870703 180.7593 65.720703 180.5293 C 65.500703 180.1793 65.589688 179.66969 65.929688 179.42969 C 66.199687 179.23969 66.539375 179.18086 66.859375 179.13086 C 67.389374 179.04086 67.949922 179.02047 68.419922 178.73047 z M 107.80078 178.73047 C 107.77078 179.22047 107.88086 179.76094 107.63086 180.21094 C 107.39086 180.63094 106.9207 180.81992 106.4707 180.91992 C 106.1607 180.96992 105.81953 180.99914 105.51953 180.86914 C 105.32953 180.78914 105.15055 180.6607 105.06055 180.4707 C 104.90055 180.1207 104.99055 179.65969 105.31055 179.42969 C 105.60055 179.22969 105.96078 179.16914 106.30078 179.11914 C 106.81078 179.03914 107.35078 179.01047 107.80078 178.73047 z M 120.13086 178.73047 C 120.10086 179.21047 120.2107 179.72969 119.9707 180.17969 C 119.7507 180.59969 119.27984 180.81016 118.83984 180.91016 C 118.40984 180.99016 117.92008 180.99922 117.58008 180.69922 C 117.16008 180.35922 117.25047 179.60914 117.73047 179.36914 C 118.48047 178.97914 119.40086 179.18047 120.13086 178.73047 z "
   clip-path="none" />&#10;</svg>
