<?xml version="1.0" encoding="UTF-8" standalone="no"?>
<!DOCTYPE svg PUBLIC "-//W3C//DTD SVG 1.1//EN" "http://www.w3.org/Graphics/SVG/1.1/DTD/svg11.dtd">
<svg width="100%" height="100%" viewBox="0 0 296 296" version="1.1" xmlns="http://www.w3.org/2000/svg" xmlns:xlink="http://www.w3.org/1999/xlink" xml:space="preserve" xmlns:serif="http://www.serif.com/" style="fill-rule:evenodd;clip-rule:evenodd;stroke-linejoin:round;stroke-miterlimit:2;">
    <g id="Layer-1" serif:id="Layer 1">
        <rect x="0" y="0" width="296" height="296" style="fill:rgb(112,108,255);"/>
        <g transform="matrix(-66.9249,63.8538,63.8538,66.9249,267.8,100.142)">
            <rect x="0.394" y="-0.003" width="0.141" height="0.006" style="fill:url(#_Linear1);"/>
        </g>
        <g transform="matrix(-66.9249,63.8538,63.8538,66.9249,267.8,63.8293)">
            <rect x="0.394" y="-0.003" width="0.141" height="0.006" style="fill:url(#_Linear2);"/>
        </g>
        <g transform="matrix(-66.9249,63.8538,63.8538,66.9249,267.8,51.7423)">
            <rect x="0.394" y="-0.003" width="0.141" height="0.006" style="fill:url(#_Linear3);"/>
        </g>
        <g transform="matrix(-66.9249,63.8538,63.8538,66.9249,267.8,75.9331)">
            <rect x="0.394" y="-0.003" width="0.141" height="0.006" style="fill:url(#_Linear4);"/>
        </g>
        <g transform="matrix(66.9283,-63.8502,-63.8502,-66.9283,205.631,171.559)">
            <rect x="0.394" y="-0.003" width="0.141" height="0.006" style="fill:url(#_Linear5);"/>
        </g>
        <g transform="matrix(-66.9249,63.8538,63.8538,66.9249,267.8,39.6547)">
            <rect x="0.394" y="-0.003" width="0.141" height="0.006" style="fill:url(#_Linear6);"/>
        </g>
        <g transform="matrix(-66.9249,63.8538,63.8538,66.9249,267.8,88.0378)">
            <rect x="0.394" y="-0.003" width="0.141" height="0.006" style="fill:url(#_Linear7);"/>
        </g>
        <g transform="matrix(67.287,-63.4721,-63.4721,-67.287,184.181,179.819)">
            <rect x="0.532" y="-0.003" width="0.131" height="0.005" style="fill:url(#_Linear8);"/>
        </g>
        <g transform="matrix(-67.287,63.4721,63.4721,67.287,264.61,67.6369)">
            <rect x="0.532" y="-0.003" width="0.131" height="0.005" style="fill:url(#_Linear9);"/>
        </g>
        <g transform="matrix(-67.287,63.4721,63.4721,67.287,264.61,55.5502)">
            <rect x="0.532" y="-0.003" width="0.131" height="0.005" style="fill:url(#_Linear10);"/>
        </g>
        <g transform="matrix(-67.287,63.4721,63.4721,67.287,264.61,43.4632)">
            <rect x="0.532" y="-0.003" width="0.131" height="0.005" style="fill:url(#_Linear11);"/>
        </g>
        <g transform="matrix(-66.9285,63.8501,63.8501,66.9285,267.802,27.5696)">
            <rect x="0.394" y="-0.003" width="0.141" height="0.006" style="fill:url(#_Linear12);"/>
        </g>
        <g transform="matrix(-67.287,63.4721,63.4721,67.287,264.61,91.8462)">
            <rect x="0.532" y="-0.003" width="0.131" height="0.005" style="fill:url(#_Linear13);"/>
        </g>
        <g transform="matrix(-67.287,63.4721,63.4721,67.287,264.61,31.3747)">
            <rect x="0.532" y="-0.003" width="0.131" height="0.005" style="fill:url(#_Linear14);"/>
        </g>
        <g transform="matrix(-67.2908,63.4681,63.4681,67.2908,264.612,79.744)">
            <rect x="0.532" y="-0.003" width="0.131" height="0.005" style="fill:url(#_Linear15);"/>
        </g>
        <g transform="matrix(-66.9289,63.8496,63.8496,66.9289,274.659,44.7305)">
            <rect x="0.117" y="-0.003" width="0.158" height="0.007" style="fill:url(#_Linear16);"/>
        </g>
        <g transform="matrix(-66.9324,63.8459,63.8459,66.9324,271.234,36.1794)">
            <rect x="0.256" y="-0.003" width="0.149" height="0.007" style="fill:url(#_Linear17);"/>
        </g>
        <g transform="matrix(-66.9289,63.8496,63.8496,66.9289,274.659,68.9213)">
            <rect x="0.117" y="-0.003" width="0.158" height="0.007" style="fill:url(#_Linear18);"/>
        </g>
        <g transform="matrix(-66.9289,63.8496,63.8496,66.9289,274.659,93.1305)">
            <rect x="0.117" y="-0.003" width="0.158" height="0.007" style="fill:url(#_Linear19);"/>
        </g>
        <g transform="matrix(-66.9289,63.8496,63.8496,66.9289,274.659,105.234)">
            <rect x="0.117" y="-0.003" width="0.158" height="0.007" style="fill:url(#_Linear20);"/>
        </g>
        <g transform="matrix(-92.5,0,0,92.5,279.679,141.895)">
            <path d="M0.141,-0.056L0.256,0.053L0.253,0.056L0.249,0.056L0.137,-0.051L0.141,-0.056Z" style="fill:url(#_Linear21);fill-rule:nonzero;"/>
        </g>
        <g transform="matrix(-66.9289,63.8496,63.8496,66.9289,274.659,56.8173)">
            <rect x="0.117" y="-0.003" width="0.158" height="0.007" style="fill:url(#_Linear22);"/>
        </g>
        <g transform="matrix(66.9259,-63.8528,-63.8528,-66.9259,248.381,142.408)">
            <rect x="0.117" y="-0.003" width="0.158" height="0.007" style="fill:url(#_Linear23);"/>
        </g>
        <g transform="matrix(-66.9321,63.8463,63.8463,66.9321,274.659,81.0266)">
            <rect x="0.117" y="-0.003" width="0.158" height="0.007" style="fill:url(#_Linear24);"/>
        </g>
        <g transform="matrix(-66.9324,63.8459,63.8459,66.9324,271.235,72.4586)">
            <rect x="0.256" y="-0.003" width="0.149" height="0.007" style="fill:url(#_Linear25);"/>
        </g>
        <g transform="matrix(-66.9324,63.8459,63.8459,66.9324,271.235,60.3548)">
            <rect x="0.256" y="-0.003" width="0.149" height="0.007" style="fill:url(#_Linear26);"/>
        </g>
        <g transform="matrix(-66.9291,63.8494,63.8494,66.9291,271.233,48.2652)">
            <rect x="0.256" y="-0.003" width="0.149" height="0.007" style="fill:url(#_Linear27);"/>
        </g>
        <g transform="matrix(-67.287,63.4721,63.4721,67.287,264.61,19.2878)">
            <rect x="0.532" y="-0.003" width="0.131" height="0.005" style="fill:url(#_Linear28);"/>
        </g>
        <g transform="matrix(-66.9324,63.8459,63.8459,66.9324,271.234,108.771)">
            <rect x="0.256" y="-0.003" width="0.149" height="0.007" style="fill:url(#_Linear29);"/>
        </g>
        <g transform="matrix(-66.9324,63.8459,63.8459,66.9324,271.234,84.5624)">
            <rect x="0.256" y="-0.003" width="0.149" height="0.007" style="fill:url(#_Linear30);"/>
        </g>
        <g transform="matrix(66.9292,-63.8493,-63.8493,-66.9292,227.024,163.049)">
            <rect x="0.256" y="-0.003" width="0.149" height="0.007" style="fill:url(#_Linear31);"/>
        </g>
        <g transform="matrix(-66.9291,63.8494,63.8494,66.9291,271.233,96.665)">
            <rect x="0.256" y="-0.003" width="0.149" height="0.007" style="fill:url(#_Linear32);"/>
        </g>
        <g transform="matrix(-63.8445,-66.9338,-66.9338,63.8445,251.586,193.481)">
            <path d="M0.979,-0.058L0.983,-0.058L0.983,0.056L0.979,0.06L0.979,-0.058Z" style="fill:url(#_Linear33);fill-rule:nonzero;"/>
        </g>
        <g transform="matrix(-63.9732,-66.8107,-66.8107,63.9732,251.713,181.273)">
            <path d="M0.979,-0.058L0.983,-0.058L0.983,0.056L0.979,0.06L0.979,-0.058Z" style="fill:url(#_Linear34);fill-rule:nonzero;"/>
        </g>
        <g transform="matrix(-92.5,0,0,92.5,279.678,141.769)">
            <path d="M0,-0.052L0,-0.053L0.004,-0.057L0.124,0.057L0.124,0.057L0.115,0.057L0,-0.052Z" style="fill:url(#_Linear35);fill-rule:nonzero;"/>
        </g>
        <g transform="matrix(-63.8445,-66.9338,-66.9338,63.8445,251.587,205.568)">
            <path d="M0.979,-0.058L0.983,-0.058L0.983,0.056L0.979,0.06L0.979,-0.058Z" style="fill:url(#_Linear36);fill-rule:nonzero;"/>
        </g>
        <g transform="matrix(-63.8445,-66.9338,-66.9338,63.8445,251.587,145.132)">
            <path d="M0.979,-0.058L0.983,-0.058L0.983,0.056L0.979,0.06L0.979,-0.058Z" style="fill:url(#_Linear37);fill-rule:nonzero;"/>
        </g>
        <g transform="matrix(-63.9732,-66.8107,-66.8107,63.9732,251.713,169.186)">
            <path d="M0.979,-0.058L0.983,-0.058L0.983,0.056L0.979,0.06L0.979,-0.058Z" style="fill:url(#_Linear38);fill-rule:nonzero;"/>
        </g>
        <g transform="matrix(-63.8445,-66.9338,-66.9338,63.8445,251.587,157.219)">
            <path d="M0.979,-0.058L0.983,-0.058L0.983,0.056L0.979,0.06L0.979,-0.058Z" style="fill:url(#_Linear39);fill-rule:nonzero;"/>
        </g>
        <g transform="matrix(-92.5,0,0,92.5,279.678,117.765)">
            <path d="M0.004,-0.06L0.124,0.055L0.12,0.06L0,-0.055L0,-0.055L0.004,-0.06Z" style="fill:url(#_Linear40);fill-rule:nonzero;"/>
        </g>
        <g transform="matrix(-92.5,0,0,92.5,279.678,81.4519)">
            <path d="M0.004,-0.06L0.124,0.055L0.12,0.06L0,-0.055L0,-0.055L0.004,-0.06Z" style="fill:url(#_Linear41);fill-rule:nonzero;"/>
        </g>
        <g transform="matrix(-92.5,0,0,92.5,279.678,69.3482)">
            <path d="M0.004,-0.06L0.124,0.055L0.12,0.06L0,-0.055L0,-0.055L0.004,-0.06Z" style="fill:url(#_Linear42);fill-rule:nonzero;"/>
        </g>
        <g transform="matrix(-92.5,0,0,92.5,279.678,57.2425)">
            <path d="M0.004,-0.06L0.124,0.055L0.12,0.06L0,-0.055L0,-0.055L0.004,-0.06Z" style="fill:url(#_Linear43);fill-rule:nonzero;"/>
        </g>
        <g transform="matrix(-92.5,0,0,92.5,279.678,105.661)">
            <path d="M0.004,-0.06L0.124,0.055L0.12,0.06L0,-0.055L0,-0.055L0.004,-0.06Z" style="fill:url(#_Linear44);fill-rule:nonzero;"/>
        </g>
        <g transform="matrix(-92.5,0,0,92.5,279.678,93.5557)">
            <path d="M0.004,-0.06L0.124,0.055L0.12,0.06L0,-0.055L0,-0.055L0.004,-0.06Z" style="fill:url(#_Linear45);fill-rule:nonzero;"/>
        </g>
        <g transform="matrix(66.9298,-63.8486,-63.8486,-66.9298,123.38,130.02)">
            <path d="M0.92,-0.001L1.038,-0.001L1.038,0.003L0.924,0.003L0.92,-0.001Z" style="fill:url(#_Linear46);fill-rule:nonzero;"/>
        </g>
        <g transform="matrix(-92.5,0,0,92.5,279.678,129.869)">
            <path d="M0.004,-0.06L0.124,0.055L0.12,0.06L0,-0.055L0,-0.055L0.004,-0.06Z" style="fill:url(#_Linear47);fill-rule:nonzero;"/>
        </g>
        <g transform="matrix(-67.2092,63.5544,63.5544,67.2092,261.187,22.8273)">
            <rect x="0.67" y="-0.002" width="0.122" height="0.004" style="fill:url(#_Linear48);"/>
        </g>
        <g transform="matrix(-67.2092,63.5544,63.5544,67.2092,261.187,34.914)">
            <rect x="0.67" y="-0.002" width="0.122" height="0.004" style="fill:url(#_Linear49);"/>
        </g>
        <g transform="matrix(-67.2092,63.5544,63.5544,67.2092,261.187,83.2801)">
            <rect x="0.67" y="-0.002" width="0.122" height="0.004" style="fill:url(#_Linear50);"/>
        </g>
        <g transform="matrix(-67.2133,63.5501,63.5501,67.2133,261.19,47.0049)">
            <rect x="0.67" y="-0.002" width="0.122" height="0.004" style="fill:url(#_Linear51);"/>
        </g>
        <g transform="matrix(-67.2133,63.5501,63.5501,67.2133,261.19,59.0926)">
            <rect x="0.67" y="-0.002" width="0.122" height="0.004" style="fill:url(#_Linear52);"/>
        </g>
        <g transform="matrix(67.2133,-63.5501,-63.5501,-67.2133,162.902,188.319)">
            <rect x="0.67" y="-0.002" width="0.122" height="0.004" style="fill:url(#_Linear53);"/>
        </g>
        <g transform="matrix(-67.2092,63.5544,63.5544,67.2092,261.187,71.1762)">
            <rect x="0.67" y="-0.002" width="0.122" height="0.004" style="fill:url(#_Linear54);"/>
        </g>
        <g transform="matrix(-67.2133,63.5501,63.5501,67.2133,261.19,10.7435)">
            <rect x="0.67" y="-0.002" width="0.122" height="0.004" style="fill:url(#_Linear55);"/>
        </g>
        <g transform="matrix(-67.1408,63.6267,63.6267,67.1408,257.726,14.2283)">
            <rect x="0.809" y="-0.002" width="0.113" height="0.004" style="fill:url(#_Linear56);"/>
        </g>
        <g transform="matrix(-67.1364,63.6314,63.6314,67.1364,257.722,26.311)">
            <rect x="0.809" y="-0.002" width="0.113" height="0.004" style="fill:url(#_Linear57);"/>
        </g>
        <g transform="matrix(-67.1408,63.6267,63.6267,67.1408,257.726,74.6641)">
            <rect x="0.809" y="-0.002" width="0.113" height="0.004" style="fill:url(#_Linear58);"/>
        </g>
        <g transform="matrix(-67.1364,63.6314,63.6314,67.1364,257.722,38.3979)">
            <rect x="0.809" y="-0.002" width="0.113" height="0.004" style="fill:url(#_Linear59);"/>
        </g>
        <g transform="matrix(-67.1408,63.6267,63.6267,67.1408,257.727,2.1414)">
            <rect x="0.809" y="-0.002" width="0.113" height="0.004" style="fill:url(#_Linear60);"/>
        </g>
        <g transform="matrix(-67.1408,63.6267,63.6267,67.1408,257.726,50.4896)">
            <rect x="0.809" y="-0.002" width="0.113" height="0.004" style="fill:url(#_Linear61);"/>
        </g>
        <g transform="matrix(67.1408,-63.6267,-63.6267,-67.1408,141.485,196.926)">
            <rect x="0.809" y="-0.002" width="0.113" height="0.004" style="fill:url(#_Linear62);"/>
        </g>
        <g transform="matrix(-67.1408,63.6267,63.6267,67.1408,257.726,62.5772)">
            <rect x="0.809" y="-0.002" width="0.113" height="0.004" style="fill:url(#_Linear63);"/>
        </g>
        <g transform="matrix(1,0,0,1,94.2302,217.46)">
            <path d="M0,7.203L2.49,7.203C3.19,7.203 3.738,7.077 4.133,6.825C4.527,6.574 4.725,6.201 4.725,5.705L4.725,5.507C4.725,4.501 3.984,3.997 2.504,3.997L0,3.997L0,7.203ZM0,2.97L2.329,2.97C3.639,2.97 4.294,2.508 4.294,1.584L4.294,1.436C4.294,0.479 3.616,-0 2.261,-0L0,-0L0,2.97ZM2.41,-1.027C3.37,-1.027 4.133,-0.822 4.698,-0.414C5.263,-0.006 5.546,0.594 5.546,1.386L5.546,1.522C5.546,2.48 5.115,3.106 4.254,3.404C4.783,3.519 5.203,3.756 5.512,4.115C5.822,4.474 5.977,4.942 5.977,5.52L5.977,5.743C5.977,6.576 5.68,7.199 5.088,7.611C4.496,8.024 3.675,8.23 2.625,8.23L-1.225,8.23L-1.225,-1.027L2.41,-1.027Z" style="fill:white;fill-rule:nonzero;"/>
        </g>
        <g transform="matrix(1,0,0,1,103.558,224.403)">
            <path d="M0,-3.725C-0.341,-3.387 -0.511,-2.966 -0.511,-2.463L-0.511,-2.401L3.19,-2.401L3.19,-2.549C3.19,-3.045 3.042,-3.449 2.746,-3.762C2.45,-4.076 2.006,-4.232 1.413,-4.232C0.812,-4.232 0.341,-4.063 0,-3.725M-0.511,-1.374C-0.511,-0.829 -0.337,-0.38 0.014,-0.025C0.363,0.33 0.844,0.507 1.454,0.507C1.957,0.507 2.358,0.398 2.659,0.18C2.959,-0.039 3.132,-0.33 3.177,-0.693L4.348,-0.693C4.276,-0.083 3.976,0.421 3.446,0.817C2.917,1.213 2.253,1.411 1.454,1.411C0.494,1.411 -0.269,1.138 -0.835,0.594C-1.4,0.05 -1.683,-0.697 -1.683,-1.646L-1.683,-2.079C-1.683,-3.028 -1.404,-3.775 -0.848,-4.319C-0.291,-4.864 0.467,-5.136 1.427,-5.136C2.351,-5.136 3.071,-4.878 3.587,-4.362C4.103,-3.847 4.361,-3.14 4.361,-2.24L4.361,-1.522L-0.511,-1.522L-0.511,-1.374Z" style="fill:white;fill-rule:nonzero;"/>
        </g>
        <g transform="matrix(1,0,0,1,113.881,225.269)">
            <path d="M0,-5.458C0.458,-5.095 0.7,-4.6 0.727,-3.973L-0.431,-3.973C-0.475,-4.732 -0.951,-5.112 -1.857,-5.112C-2.306,-5.112 -2.64,-5.027 -2.86,-4.858C-3.08,-4.689 -3.19,-4.464 -3.19,-4.183C-3.19,-4.117 -3.184,-4.056 -3.17,-3.998C-3.157,-3.94 -3.139,-3.888 -3.116,-3.843C-3.094,-3.798 -3.06,-3.754 -3.015,-3.713C-2.97,-3.672 -2.93,-3.637 -2.894,-3.608C-2.858,-3.579 -2.802,-3.55 -2.726,-3.521C-2.649,-3.492 -2.589,-3.47 -2.544,-3.453C-2.499,-3.437 -2.425,-3.414 -2.322,-3.385C-2.219,-3.356 -2.138,-3.336 -2.08,-3.324C-2.021,-3.311 -1.929,-3.292 -1.804,-3.267C-1.678,-3.243 -1.584,-3.222 -1.521,-3.206C-0.678,-3.032 -0.065,-2.822 0.316,-2.574C0.698,-2.327 0.888,-1.927 0.888,-1.374C0.888,-0.764 0.653,-0.291 0.182,0.043C-0.289,0.377 -0.929,0.544 -1.736,0.544C-2.589,0.544 -3.267,0.36 -3.769,-0.007C-4.272,-0.374 -4.527,-0.891 -4.536,-1.559L-3.379,-1.559C-3.37,-1.164 -3.219,-0.86 -2.928,-0.65C-2.636,-0.44 -2.243,-0.335 -1.75,-0.335C-1.301,-0.335 -0.945,-0.413 -0.68,-0.57C-0.415,-0.726 -0.283,-0.954 -0.283,-1.25C-0.283,-1.572 -0.417,-1.805 -0.686,-1.95C-0.956,-2.094 -1.404,-2.228 -2.033,-2.352C-2.472,-2.443 -2.795,-2.519 -3.002,-2.58C-3.208,-2.643 -3.437,-2.739 -3.688,-2.872C-3.94,-3.003 -4.115,-3.171 -4.213,-3.373C-4.312,-3.575 -4.361,-3.833 -4.361,-4.146C-4.361,-4.716 -4.146,-5.167 -3.715,-5.502C-3.284,-5.836 -2.665,-6.002 -1.857,-6.002C-1.077,-6.002 -0.458,-5.821 0,-5.458" style="fill:white;fill-rule:nonzero;"/>
        </g>
        <g transform="matrix(1,0,0,1,120.194,217.373)">
            <path d="M0,8.255C-0.404,8.378 -0.844,8.44 -1.319,8.44C-1.929,8.44 -2.407,8.277 -2.753,7.952C-3.098,7.625 -3.271,7.133 -3.271,6.473L-3.258,2.921L-4.51,2.921L-4.51,2.005L-3.258,2.005L-3.244,-0.185L-2.073,-0.185L-2.086,2.005L-0.067,2.005L-0.067,2.921L-2.086,2.921L-2.114,6.287C-2.114,6.708 -2.017,7.009 -1.824,7.191C-1.631,7.372 -1.342,7.463 -0.956,7.463C-0.579,7.463 -0.265,7.405 -0.014,7.29L0,8.255Z" style="fill:white;fill-rule:nonzero;"/>
        </g>
        <g transform="matrix(1,0,0,1,125.988,221.878)">
            <path d="M0,1.324C-0.282,1.489 -0.419,1.728 -0.411,2.042C-0.411,2.355 -0.294,2.596 -0.06,2.765C0.173,2.935 0.496,3.015 0.909,3.007C1.564,2.999 2.169,2.73 2.726,2.202L2.726,1.175C2.205,1.11 1.694,1.076 1.191,1.076C0.68,1.076 0.283,1.159 0,1.324M3.224,-1.943C3.664,-1.498 3.884,-0.858 3.884,-0.025L3.884,3.811L2.726,3.811L2.726,3.168C2.134,3.679 1.425,3.935 0.599,3.935C-0.047,3.935 -0.57,3.774 -0.969,3.452C-1.368,3.13 -1.568,2.681 -1.568,2.103C-1.577,1.46 -1.332,0.983 -0.834,0.674C-0.337,0.365 0.321,0.21 1.138,0.21C1.739,0.21 2.268,0.243 2.726,0.309L2.726,-0.186C2.726,-0.656 2.607,-1.027 2.369,-1.3C2.131,-1.572 1.779,-1.708 1.312,-1.708C0.828,-1.708 0.453,-1.574 0.188,-1.306C-0.076,-1.038 -0.208,-0.722 -0.208,-0.359L-1.38,-0.359C-1.38,-0.97 -1.139,-1.498 -0.659,-1.943C-0.179,-2.389 0.465,-2.611 1.272,-2.611C2.134,-2.611 2.784,-2.389 3.224,-1.943" style="fill:white;fill-rule:nonzero;"/>
        </g>
        <g transform="matrix(1,0,0,1,137.187,224.991)">
            <path d="M0,-5.025C0.453,-4.559 0.68,-3.954 0.68,-3.212L0.68,0.699L-0.478,0.699L-0.478,-3.051C-0.478,-3.579 -0.613,-3.983 -0.882,-4.264C-1.151,-4.545 -1.546,-4.685 -2.066,-4.685C-2.596,-4.685 -3.031,-4.516 -3.372,-4.177C-3.713,-3.839 -3.884,-3.414 -3.884,-2.903L-3.884,0.699L-5.041,0.699L-5.041,-5.613L-3.884,-5.613L-3.884,-4.66C-3.435,-5.369 -2.721,-5.724 -1.743,-5.724C-1.034,-5.724 -0.453,-5.491 0,-5.025" style="fill:white;fill-rule:nonzero;"/>
        </g>
        <g transform="matrix(1,0,0,1,141.291,221.878)">
            <path d="M0,1.324C-0.282,1.489 -0.419,1.728 -0.411,2.042C-0.411,2.355 -0.294,2.596 -0.06,2.765C0.173,2.935 0.496,3.015 0.909,3.007C1.564,2.999 2.169,2.73 2.726,2.202L2.726,1.175C2.205,1.11 1.694,1.076 1.191,1.076C0.68,1.076 0.283,1.159 0,1.324M3.224,-1.943C3.664,-1.498 3.884,-0.858 3.884,-0.025L3.884,3.811L2.726,3.811L2.726,3.168C2.134,3.679 1.425,3.935 0.599,3.935C-0.047,3.935 -0.57,3.774 -0.969,3.452C-1.368,3.13 -1.568,2.681 -1.568,2.103C-1.577,1.46 -1.332,0.983 -0.834,0.674C-0.337,0.365 0.321,0.21 1.138,0.21C1.739,0.21 2.268,0.243 2.726,0.309L2.726,-0.186C2.726,-0.656 2.607,-1.027 2.369,-1.3C2.131,-1.572 1.779,-1.708 1.312,-1.708C0.828,-1.708 0.453,-1.574 0.188,-1.306C-0.076,-1.038 -0.208,-0.722 -0.208,-0.359L-1.38,-0.359C-1.38,-0.97 -1.14,-1.498 -0.659,-1.943C-0.179,-2.389 0.465,-2.611 1.272,-2.611C2.134,-2.611 2.784,-2.389 3.224,-1.943" style="fill:white;fill-rule:nonzero;"/>
        </g>
        <g transform="matrix(1,0,0,1,0,145.764)">
            <rect x="147.449" y="70.31" width="1.158" height="9.616" style="fill:white;"/>
        </g>
        <g transform="matrix(1,0,0,1,156.521,222.138)">
            <path d="M0,4.059C0,4.933 -0.245,5.612 -0.733,6.095C-1.223,6.577 -1.898,6.819 -2.76,6.819C-3.63,6.819 -4.312,6.615 -4.805,6.206C-5.299,5.798 -5.568,5.272 -5.613,4.628L-4.523,4.628C-4.487,5 -4.321,5.305 -4.025,5.544C-3.729,5.783 -3.325,5.903 -2.813,5.903C-2.293,5.903 -1.887,5.754 -1.595,5.458C-1.303,5.16 -1.158,4.719 -1.158,4.133L-1.158,2.772C-1.516,3.374 -2.149,3.675 -3.056,3.675C-3.854,3.675 -4.48,3.463 -4.933,3.038C-5.387,2.613 -5.613,2.033 -5.613,1.299L-5.613,-2.76L-4.456,-2.76L-4.456,0.928C-4.456,1.456 -4.321,1.871 -4.052,2.172C-3.783,2.473 -3.378,2.624 -2.84,2.624C-2.329,2.624 -1.921,2.459 -1.615,2.128C-1.31,1.798 -1.158,1.369 -1.158,0.841L-1.158,-2.76L0,-2.76L0,4.059Z" style="fill:white;fill-rule:nonzero;"/>
        </g>
        <g transform="matrix(1,0,0,1,162.282,217.373)">
            <path d="M0,8.255C-0.404,8.378 -0.843,8.44 -1.319,8.44C-1.93,8.44 -2.408,8.277 -2.753,7.952C-3.099,7.625 -3.271,7.133 -3.271,6.473L-3.258,2.921L-4.509,2.921L-4.509,2.005L-3.258,2.005L-3.244,-0.185L-2.073,-0.185L-2.087,2.005L-0.067,2.005L-0.067,2.921L-2.087,2.921L-2.113,6.287C-2.113,6.708 -2.017,7.009 -1.824,7.191C-1.631,7.372 -1.342,7.463 -0.956,7.463C-0.579,7.463 -0.265,7.405 -0.013,7.29L0,8.255Z" style="fill:white;fill-rule:nonzero;"/>
        </g>
        <g transform="matrix(1,0,0,1,0,146.134)">
            <path d="M163.735,73.244L164.893,73.244L164.893,79.555L163.735,79.555L163.735,73.244ZM164.866,70.521C165.018,70.662 165.095,70.831 165.095,71.029C165.095,71.227 165.018,71.394 164.866,71.53C164.713,71.666 164.533,71.734 164.327,71.734C164.112,71.734 163.93,71.666 163.782,71.53C163.634,71.394 163.56,71.227 163.56,71.029C163.56,70.831 163.636,70.662 163.789,70.521C163.941,70.381 164.121,70.311 164.327,70.311C164.533,70.311 164.713,70.381 164.866,70.521" style="fill:white;fill-rule:nonzero;"/>
        </g>
        <g transform="matrix(1,0,0,1,171.979,225.151)">
            <path d="M0,-5.222C0.534,-4.781 0.823,-4.189 0.868,-3.446L-0.222,-3.446C-0.267,-3.933 -0.453,-4.31 -0.781,-4.579C-1.108,-4.847 -1.523,-4.981 -2.026,-4.981C-2.654,-4.981 -3.143,-4.793 -3.493,-4.418C-3.843,-4.043 -4.018,-3.529 -4.018,-2.877L-4.018,-2.357C-4.018,-1.706 -3.843,-1.192 -3.493,-0.817C-3.143,-0.441 -2.654,-0.254 -2.026,-0.254C-1.541,-0.254 -1.139,-0.375 -0.821,-0.618C-0.502,-0.862 -0.312,-1.215 -0.249,-1.677L0.868,-1.677C0.797,-0.959 0.496,-0.389 -0.033,0.031C-0.563,0.452 -1.227,0.662 -2.026,0.662C-2.995,0.662 -3.764,0.396 -4.334,-0.136C-4.904,-0.668 -5.189,-1.421 -5.189,-2.395L-5.189,-2.828C-5.189,-3.793 -4.906,-4.544 -4.341,-5.08C-3.776,-5.617 -3.004,-5.884 -2.026,-5.884C-1.209,-5.884 -0.533,-5.664 0,-5.222" style="fill:white;fill-rule:nonzero;"/>
        </g>
        <g transform="matrix(1,0,0,1,178.729,225.269)">
            <path d="M0,-5.458C0.458,-5.095 0.7,-4.6 0.727,-3.973L-0.431,-3.973C-0.475,-4.732 -0.951,-5.112 -1.858,-5.112C-2.306,-5.112 -2.641,-5.027 -2.861,-4.858C-3.081,-4.689 -3.19,-4.464 -3.19,-4.183C-3.19,-4.117 -3.183,-4.056 -3.17,-3.998C-3.157,-3.94 -3.139,-3.888 -3.116,-3.843C-3.094,-3.798 -3.06,-3.754 -3.015,-3.713C-2.971,-3.672 -2.93,-3.637 -2.894,-3.608C-2.858,-3.579 -2.802,-3.55 -2.726,-3.521C-2.65,-3.492 -2.589,-3.47 -2.544,-3.453C-2.499,-3.437 -2.425,-3.414 -2.322,-3.385C-2.219,-3.356 -2.138,-3.336 -2.079,-3.324C-2.021,-3.311 -1.93,-3.292 -1.804,-3.267C-1.678,-3.243 -1.584,-3.222 -1.521,-3.206C-0.677,-3.032 -0.065,-2.822 0.317,-2.574C0.698,-2.327 0.889,-1.927 0.889,-1.374C0.889,-0.764 0.653,-0.291 0.182,0.043C-0.289,0.377 -0.929,0.544 -1.736,0.544C-2.589,0.544 -3.267,0.36 -3.769,-0.007C-4.271,-0.374 -4.527,-0.891 -4.536,-1.559L-3.378,-1.559C-3.37,-1.164 -3.219,-0.86 -2.928,-0.65C-2.636,-0.44 -2.243,-0.335 -1.75,-0.335C-1.301,-0.335 -0.944,-0.413 -0.68,-0.57C-0.415,-0.726 -0.283,-0.954 -0.283,-1.25C-0.283,-1.572 -0.417,-1.805 -0.686,-1.95C-0.956,-2.094 -1.405,-2.228 -2.032,-2.352C-2.472,-2.443 -2.795,-2.519 -3.002,-2.58C-3.208,-2.643 -3.437,-2.739 -3.688,-2.872C-3.94,-3.003 -4.115,-3.171 -4.213,-3.373C-4.312,-3.575 -4.361,-3.833 -4.361,-4.146C-4.361,-4.716 -4.146,-5.167 -3.715,-5.502C-3.285,-5.836 -2.665,-6.002 -1.858,-6.002C-1.077,-6.002 -0.457,-5.821 0,-5.458" style="fill:white;fill-rule:nonzero;"/>
        </g>
        <g transform="matrix(1,0,0,1,188.245,217.373)">
            <path d="M0,8.255C-0.404,8.378 -0.843,8.44 -1.319,8.44C-1.93,8.44 -2.408,8.277 -2.753,7.952C-3.098,7.625 -3.271,7.133 -3.271,6.473L-3.258,2.921L-4.509,2.921L-4.509,2.005L-3.258,2.005L-3.244,-0.185L-2.073,-0.185L-2.087,2.005L-0.068,2.005L-0.068,2.921L-2.087,2.921L-2.113,6.287C-2.113,6.708 -2.017,7.009 -1.824,7.191C-1.631,7.372 -1.342,7.463 -0.956,7.463C-0.579,7.463 -0.265,7.405 -0.013,7.29L0,8.255Z" style="fill:white;fill-rule:nonzero;"/>
        </g>
        <g transform="matrix(1,0,0,1,190.943,224.359)">
            <path d="M0,-3.638C-0.363,-3.271 -0.545,-2.754 -0.545,-2.085L-0.545,-1.565C-0.545,-0.897 -0.363,-0.379 0,-0.013C0.364,0.355 0.877,0.538 1.542,0.538C2.197,0.538 2.706,0.355 3.07,-0.013C3.433,-0.379 3.615,-0.897 3.615,-1.565L3.615,-2.085C3.615,-2.754 3.433,-3.271 3.07,-3.638C2.706,-4.005 2.197,-4.189 1.542,-4.189C0.877,-4.189 0.364,-4.005 0,-3.638M3.924,-4.288C4.507,-3.752 4.799,-3.001 4.799,-2.036L4.799,-1.603C4.799,-0.629 4.507,0.124 3.924,0.656C3.341,1.188 2.546,1.454 1.542,1.454C0.536,1.454 -0.256,1.19 -0.834,0.662C-1.413,0.134 -1.702,-0.621 -1.702,-1.603L-1.702,-2.036C-1.702,-3.001 -1.413,-3.752 -0.834,-4.288C-0.256,-4.825 0.536,-5.092 1.542,-5.092C2.546,-5.092 3.341,-4.825 3.924,-4.288" style="fill:white;fill-rule:nonzero;"/>
        </g>
        <g transform="matrix(1,0,0,1,198.925,224.359)">
            <path d="M0,-3.638C-0.363,-3.271 -0.545,-2.754 -0.545,-2.085L-0.545,-1.565C-0.545,-0.897 -0.363,-0.379 0,-0.013C0.364,0.355 0.877,0.538 1.542,0.538C2.197,0.538 2.706,0.355 3.07,-0.013C3.433,-0.379 3.615,-0.897 3.615,-1.565L3.615,-2.085C3.615,-2.754 3.433,-3.271 3.07,-3.638C2.706,-4.005 2.197,-4.189 1.542,-4.189C0.877,-4.189 0.364,-4.005 0,-3.638M3.924,-4.288C4.508,-3.752 4.799,-3.001 4.799,-2.036L4.799,-1.603C4.799,-0.629 4.508,0.124 3.924,0.656C3.341,1.188 2.546,1.454 1.542,1.454C0.536,1.454 -0.256,1.19 -0.834,0.662C-1.413,0.134 -1.702,-0.621 -1.702,-1.603L-1.702,-2.036C-1.702,-3.001 -1.413,-3.752 -0.834,-4.288C-0.256,-4.825 0.536,-5.092 1.542,-5.092C2.546,-5.092 3.341,-4.825 3.924,-4.288" style="fill:white;fill-rule:nonzero;"/>
        </g>
        <g transform="matrix(1,0,0,1,0,145.764)">
            <rect x="205.594" y="70.31" width="1.158" height="9.616" style="fill:white;"/>
        </g>
        <g transform="matrix(1,0,0,1,132.339,242.058)">
            <path d="M0,-10.025L-2.018,-10.025L-6.181,-5.488L-6.181,-10.025L-7.736,-10.025L-7.736,0L-6.181,0L-6.181,-3.25L-4.808,-4.73L-1.42,0L0.392,0L-3.782,-5.922L0,-10.025Z" style="fill:white;fill-rule:nonzero;"/>
        </g>
        <g transform="matrix(1,0,0,1,137.586,237.046)">
            <path d="M0,3.104C-0.515,3.597 -1.078,3.851 -1.676,3.859C-2.052,3.871 -2.349,3.792 -2.554,3.637C-2.749,3.489 -2.845,3.28 -2.845,2.996C-2.852,2.724 -2.742,2.522 -2.506,2.38C-2.248,2.222 -1.872,2.142 -1.389,2.142C-0.934,2.142 -0.468,2.171 0,2.228L0,3.104ZM-1.307,-2.038C-2.157,-2.038 -2.847,-1.788 -3.357,-1.293C-3.869,-0.798 -4.129,-0.201 -4.129,0.481L-4.129,0.635L-2.642,0.635L-2.642,0.481C-2.642,0.138 -2.525,-0.153 -2.285,-0.407C-2.047,-0.659 -1.714,-0.781 -1.267,-0.781C-0.841,-0.781 -0.533,-0.659 -0.323,-0.407C-0.108,-0.152 0,0.208 0,0.662L0,1.004C-0.427,0.95 -0.911,0.923 -1.443,0.923C-2.291,0.923 -2.986,1.095 -3.51,1.435C-4.056,1.789 -4.328,2.338 -4.318,3.065C-4.318,3.716 -4.097,4.233 -3.66,4.6C-3.232,4.96 -2.668,5.142 -1.984,5.142C-1.235,5.142 -0.569,4.929 0,4.509L0,5.012L1.473,5.012L1.473,0.831C1.473,-0.08 1.236,-0.793 0.768,-1.288C0.297,-1.786 -0.401,-2.038 -1.307,-2.038" style="fill:white;fill-rule:nonzero;"/>
        </g>
        <g transform="matrix(1,0,0,1,145.466,241.554)">
            <path d="M0,-2.495C0,-1.975 -0.138,-1.566 -0.421,-1.247C-0.7,-0.932 -1.064,-0.779 -1.537,-0.779C-2.036,-0.779 -2.396,-0.916 -2.638,-1.199C-2.883,-1.484 -3.007,-1.89 -3.007,-2.404L-3.007,-6.429L-4.481,-6.429L-4.481,-2.014C-4.481,-1.204 -4.235,-0.553 -3.751,-0.078C-3.267,0.395 -2.595,0.634 -1.754,0.634C-0.993,0.634 -0.405,0.421 0,-0.002L0,0.961C0,1.532 -0.134,1.964 -0.398,2.244C-0.663,2.526 -1.027,2.663 -1.51,2.663C-1.985,2.663 -2.361,2.548 -2.629,2.322C-2.897,2.097 -3.043,1.817 -3.075,1.466L-3.088,1.326L-4.491,1.326L-4.48,1.491C-4.432,2.205 -4.141,2.798 -3.615,3.253C-3.092,3.705 -2.365,3.934 -1.456,3.934C-0.55,3.934 0.173,3.662 0.692,3.127C1.211,2.593 1.474,1.838 1.474,0.882L1.474,-6.429L0,-6.429L0,-2.495Z" style="fill:white;fill-rule:nonzero;"/>
        </g>
        <g transform="matrix(1,0,0,1,150.015,239.317)">
            <path d="M0,-1.439C0.018,-1.89 0.172,-2.259 0.469,-2.566C0.78,-2.889 1.221,-3.052 1.779,-3.052C2.327,-3.052 2.739,-2.903 3.005,-2.609C3.278,-2.307 3.411,-1.925 3.411,-1.44L0,-1.439ZM3.399,0.49C3.359,0.83 3.208,1.096 2.938,1.301C2.665,1.508 2.289,1.613 1.82,1.613C1.245,1.613 0.808,1.446 0.484,1.103C0.157,0.758 -0.002,0.329 -0.002,-0.207L4.898,-0.208L4.898,-1.115C4.898,-2.096 4.622,-2.882 4.077,-3.45C3.53,-4.02 2.762,-4.31 1.793,-4.31C0.789,-4.31 -0.018,-4.005 -0.606,-3.405C-1.192,-2.807 -1.489,-1.98 -1.489,-0.947L-1.489,-0.492C-1.489,0.541 -1.187,1.369 -0.591,1.968C0.005,2.567 0.816,2.871 1.82,2.871C2.654,2.871 3.361,2.65 3.919,2.215C4.483,1.774 4.807,1.206 4.884,0.526L4.903,0.353L3.416,0.353L3.399,0.49Z" style="fill:white;fill-rule:nonzero;"/>
        </g>
        <g transform="matrix(1,0,0,1,159.999,242.058)">
            <path d="M0,-7.051C-0.85,-7.051 -1.52,-6.782 -1.998,-6.248L-1.998,-6.934L-3.471,-6.934L-3.471,0L-1.998,0L-1.998,-3.935C-1.998,-4.434 -1.844,-4.837 -1.527,-5.165C-1.211,-5.492 -0.819,-5.651 -0.325,-5.651C0.158,-5.651 0.51,-5.523 0.753,-5.259C0.995,-4.995 1.118,-4.602 1.118,-4.091L1.118,0L2.591,0L2.591,-4.259C2.591,-5.075 2.347,-5.751 1.866,-6.268C1.382,-6.788 0.754,-7.051 0,-7.051" style="fill:white;fill-rule:nonzero;"/>
        </g>
        <g transform="matrix(1,0,0,1,168.096,234.329)">
            <path d="M0,6.357C-0.231,6.468 -0.527,6.524 -0.88,6.524C-1.225,6.524 -1.482,6.443 -1.646,6.282C-1.808,6.123 -1.89,5.842 -1.89,5.446L-1.864,2.066L0.167,2.066L0.167,0.796L-1.862,0.796L-1.849,-1.503L-3.335,-1.503L-3.349,0.796L-4.609,0.796L-4.609,2.066L-3.351,2.066L-3.363,5.64C-3.363,6.373 -3.172,6.932 -2.796,7.302C-2.42,7.672 -1.898,7.86 -1.246,7.86C-0.755,7.86 -0.293,7.792 0.128,7.658L0.237,7.623L0.218,6.252L0,6.357Z" style="fill:white;fill-rule:nonzero;"/>
        </g>
        <g transform="matrix(1,0,0,1,173.369,237.046)">
            <path d="M0,3.104C-0.515,3.597 -1.078,3.851 -1.676,3.859C-2.045,3.869 -2.349,3.792 -2.554,3.637C-2.75,3.489 -2.845,3.28 -2.845,2.996C-2.853,2.724 -2.742,2.523 -2.506,2.38L-2.506,2.379C-2.248,2.222 -1.872,2.142 -1.388,2.142C-0.934,2.142 -0.468,2.171 0,2.228L0,3.104ZM0.768,-1.288C0.297,-1.786 -0.401,-2.038 -1.307,-2.038C-2.157,-2.038 -2.847,-1.788 -3.357,-1.293C-3.869,-0.797 -4.129,-0.2 -4.129,0.481L-4.129,0.635L-2.642,0.635L-2.642,0.481C-2.642,0.138 -2.525,-0.152 -2.285,-0.407C-2.047,-0.659 -1.714,-0.781 -1.267,-0.781C-0.842,-0.781 -0.533,-0.659 -0.323,-0.407C-0.109,-0.152 0,0.208 0,0.662L0,1.004C-0.427,0.95 -0.911,0.923 -1.443,0.923C-2.29,0.923 -2.986,1.095 -3.51,1.435C-4.056,1.789 -4.328,2.338 -4.318,3.065C-4.318,3.715 -4.097,4.232 -3.661,4.6C-3.232,4.96 -2.668,5.142 -1.984,5.142C-1.235,5.142 -0.568,4.929 0,4.509L0,5.012L1.474,5.012L1.474,0.831C1.474,-0.08 1.236,-0.793 0.768,-1.288" style="fill:white;fill-rule:nonzero;"/>
        </g>
        <g transform="matrix(1,0,0,1,111.255,122.662)">
            <path d="M0,18.06L0,16.462L6.392,10.019C8.218,8.193 9.131,6.63 9.131,5.327C9.131,4.194 8.78,3.31 8.079,2.677C7.377,2.042 6.535,1.725 5.555,1.725C3.728,1.725 2.401,2.563 1.573,4.237L0.076,3.349C0.634,2.25 1.395,1.417 2.359,0.85C3.323,0.284 4.388,0 5.555,0C6.975,0 8.222,0.479 9.296,1.433C10.369,2.389 10.907,3.687 10.907,5.327C10.907,6.361 10.62,7.352 10.047,8.301C9.475,9.25 8.666,10.25 7.622,11.3L2.555,16.335L11.287,16.335L11.287,18.06L0,18.06Z" style="fill:white;fill-rule:nonzero;"/>
        </g>
        <g transform="matrix(1,0,0,1,127.476,126.34)">
            <path d="M0,11.008C0.871,12.311 2.084,12.961 3.64,12.961C5.195,12.961 6.408,12.311 7.279,11.008C8.15,9.706 8.586,7.872 8.586,5.504C8.586,3.137 8.15,1.302 7.279,0C6.408,-1.302 5.195,-1.953 3.64,-1.953C2.084,-1.953 0.871,-1.302 0,0C-0.871,1.302 -1.306,3.137 -1.306,5.504C-1.306,7.872 -0.871,9.706 0,11.008M8.598,12.187C7.423,13.854 5.77,14.686 3.64,14.686C1.509,14.686 -0.144,13.854 -1.319,12.187C-2.495,10.522 -3.082,8.294 -3.082,5.504C-3.082,2.714 -2.495,0.486 -1.319,-1.179C-0.144,-2.845 1.509,-3.678 3.64,-3.678C5.77,-3.678 7.423,-2.845 8.598,-1.179C9.773,0.486 10.361,2.714 10.361,5.504C10.361,8.294 9.773,10.522 8.598,12.187" style="fill:white;fill-rule:nonzero;"/>
        </g>
        <g transform="matrix(1,0,0,1,139.689,122.662)">
            <path d="M0,18.06L0,16.462L6.392,10.019C8.218,8.193 9.131,6.63 9.131,5.327C9.131,4.194 8.78,3.31 8.079,2.677C7.377,2.042 6.535,1.725 5.555,1.725C3.728,1.725 2.401,2.563 1.573,4.237L0.076,3.349C0.634,2.25 1.395,1.417 2.359,0.85C3.323,0.284 4.388,0 5.555,0C6.975,0 8.222,0.479 9.296,1.433C10.369,2.389 10.907,3.687 10.907,5.327C10.907,6.361 10.62,7.352 10.047,8.301C9.475,9.25 8.666,10.25 7.622,11.3L2.555,16.335L11.287,16.335L11.287,18.06L0,18.06Z" style="fill:white;fill-rule:nonzero;"/>
        </g>
        <g transform="matrix(1,0,0,1,159.112,133.629)">
            <path d="M0,-3.266C1.415,-3.081 2.581,-2.537 3.499,-1.635C4.417,-0.733 4.876,0.46 4.876,1.944C4.876,3.634 4.297,4.967 3.139,5.939C1.98,6.911 0.572,7.397 -1.084,7.397C-2.403,7.397 -3.579,7.093 -4.61,6.484C-5.642,5.875 -6.369,5.005 -6.792,3.871L-5.321,3.009C-5.033,3.888 -4.518,4.552 -3.773,5C-3.029,5.448 -2.133,5.672 -1.084,5.672C0.133,5.672 1.135,5.347 1.921,4.696C2.707,4.045 3.1,3.128 3.1,1.944C3.1,0.76 2.71,-0.157 1.928,-0.808C1.147,-1.459 0.151,-1.785 -1.058,-1.785L-1.058,-1.81L-1.084,-1.766L-1.576,-1.766L-2.353,-2.952L2.061,-8.988L-6.284,-8.988L-6.284,-10.663L4.115,-10.663L4.127,-8.979L0,-3.266Z" style="fill:white;fill-rule:nonzero;"/>
        </g>
        <g transform="matrix(1,0,0,1,21.4922,104.635)">
            <path d="M0,-0.024L-0.051,-8.34L2.334,-8.34L2.257,-1.106L6.747,-1.057L11.236,-1.106L11.186,-8.34L13.57,-8.34L13.494,-0.024L13.57,8.316L11.186,8.316L11.236,0.865L6.747,0.817L2.257,0.865L2.334,8.316L-0.051,8.316L0,-0.024Z" style="fill:white;fill-rule:nonzero;"/>
        </g>
        <g transform="matrix(1,0,0,1,39.1709,104.635)">
            <path d="M0,-0.024L-0.051,-8.34L11.033,-8.34L11.033,-6.369L2.283,-6.369L2.257,-1.034L10.501,-1.034L10.501,0.889L2.257,0.889L2.333,8.316L-0.051,8.316L0,-0.024Z" style="fill:white;fill-rule:nonzero;"/>
        </g>
        <g transform="matrix(1,0,0,1,53.1462,104.539)">
            <path d="M0,0.168L-0.051,-8.244L3.12,-8.244L6.24,0.456L8.345,6.152L8.421,6.152L10.45,0.456L13.57,-8.244L16.766,-8.244L16.715,0.12L16.766,8.412L14.483,8.412L14.584,0.649L14.584,-4.735L14.508,-4.735L12.276,1.201L9.664,8.412L7.077,8.412L4.439,1.201L2.207,-4.735L2.131,-4.735L2.131,0.649L2.232,8.412L-0.051,8.412L0,0.168Z" style="fill:white;fill-rule:nonzero;"/>
        </g>
        <g transform="matrix(1,0,0,1,80.5899,103.481)">
            <path d="M0,2.644L0.051,-2.595L0,-7.186L2.384,-7.186L2.333,-2.595L2.384,2.884C2.401,4.423 2.76,5.636 3.462,6.526C4.164,7.415 5.259,7.859 6.747,7.859C8.235,7.859 9.33,7.419 10.032,6.537C10.733,5.657 11.093,4.439 11.11,2.884L11.16,-2.595L11.11,-7.186L13.494,-7.186L13.443,-2.595L13.494,2.644C13.545,7.435 11.296,9.83 6.747,9.83C2.198,9.83 -0.051,7.435 0,2.644" style="fill:white;fill-rule:nonzero;"/>
        </g>
        <g transform="matrix(1,0,0,1,98.7885,97.2928)">
            <path d="M0,14.66C-1.158,13.755 -1.831,12.517 -2.016,10.947L0.063,10.466C0.3,11.668 0.774,12.565 1.484,13.158C2.194,13.751 3.31,14.047 4.832,14.047C6.032,14.047 6.954,13.787 7.597,13.266C8.239,12.745 8.561,12.069 8.561,11.235C8.561,10.434 8.239,9.797 7.597,9.325C6.954,8.852 5.872,8.447 4.35,8.111C2.287,7.647 0.812,7.029 -0.076,6.26C-0.964,5.491 -1.408,4.458 -1.408,3.16C-1.408,1.718 -0.922,0.605 0.051,-0.181C1.023,-0.966 2.363,-1.358 4.071,-1.358C6.015,-1.358 7.55,-0.922 8.675,-0.048C9.799,0.825 10.454,1.991 10.64,3.448L8.459,3.929C8.358,2.952 7.939,2.155 7.203,1.538C6.468,0.921 5.458,0.612 4.173,0.612C3.175,0.612 2.384,0.829 1.801,1.261C1.218,1.694 0.926,2.303 0.926,3.088C0.926,3.617 1.069,4.058 1.357,4.41C1.644,4.762 2.088,5.063 2.689,5.311C3.289,5.56 4.122,5.804 5.187,6.044C6.591,6.365 7.702,6.741 8.523,7.173C9.342,7.606 9.943,8.143 10.323,8.784C10.704,9.425 10.894,10.226 10.894,11.187C10.894,12.71 10.332,13.895 9.207,14.744C8.083,15.594 6.624,16.018 4.832,16.018C2.769,16.018 1.158,15.565 0,14.66" style="fill:white;fill-rule:nonzero;"/>
        </g>
        <g transform="matrix(1,0,0,1,120.957,97.2928)">
            <path d="M0,14.66C-1.158,13.755 -1.831,12.517 -2.016,10.947L0.063,10.466C0.3,11.668 0.774,12.565 1.484,13.158C2.194,13.751 3.31,14.047 4.832,14.047C6.032,14.047 6.954,13.787 7.597,13.266C8.239,12.745 8.561,12.069 8.561,11.235C8.561,10.434 8.239,9.797 7.597,9.325C6.954,8.852 5.872,8.447 4.35,8.111C2.287,7.647 0.812,7.029 -0.076,6.26C-0.964,5.491 -1.408,4.458 -1.408,3.16C-1.408,1.718 -0.922,0.605 0.051,-0.181C1.023,-0.966 2.363,-1.358 4.071,-1.358C6.015,-1.358 7.55,-0.922 8.675,-0.048C9.799,0.825 10.454,1.991 10.64,3.448L8.459,3.929C8.358,2.952 7.939,2.155 7.203,1.538C6.468,0.921 5.458,0.612 4.173,0.612C3.175,0.612 2.384,0.829 1.801,1.261C1.218,1.694 0.926,2.303 0.926,3.088C0.926,3.617 1.069,4.058 1.357,4.41C1.644,4.762 2.088,5.063 2.689,5.311C3.289,5.56 4.122,5.804 5.187,6.044C6.591,6.365 7.702,6.741 8.523,7.173C9.342,7.606 9.943,8.143 10.323,8.784C10.704,9.425 10.894,10.226 10.894,11.187C10.894,12.71 10.332,13.895 9.207,14.744C8.083,15.594 6.624,16.018 4.832,16.018C2.769,16.018 1.158,15.565 0,14.66" style="fill:white;fill-rule:nonzero;"/>
        </g>
        <g transform="matrix(1,0,0,1,143.619,107.783)">
            <path d="M0,-2.259C-0.017,-3.38 -0.33,-4.29 -0.939,-4.987C-1.547,-5.684 -2.376,-6.032 -3.424,-6.032C-4.456,-6.032 -5.301,-5.716 -5.96,-5.083C-6.62,-4.45 -7.026,-3.509 -7.178,-2.259L0,-2.259ZM-6.557,4.711C-7.495,4.166 -8.218,3.393 -8.725,2.392C-9.232,1.39 -9.486,0.216 -9.486,-1.129C-9.486,-3.18 -8.954,-4.802 -7.888,-5.996C-6.823,-7.19 -5.344,-7.787 -3.45,-7.787C-1.42,-7.787 0.034,-7.105 0.913,-5.744C1.792,-4.382 2.232,-2.659 2.232,-0.576L-7.229,-0.576C-7.144,0.785 -6.747,1.851 -6.037,2.62C-5.326,3.389 -4.397,3.773 -3.247,3.773C-2.317,3.773 -1.551,3.501 -0.951,2.956C-0.351,2.412 0.042,1.643 0.228,0.649L2.156,1.13C1.953,2.364 1.386,3.405 0.456,4.254C-0.474,5.104 -1.708,5.528 -3.247,5.528C-4.515,5.528 -5.618,5.255 -6.557,4.711" style="fill:white;fill-rule:nonzero;"/>
        </g>
        <g transform="matrix(1,0,0,1,148.819,106.076)">
            <path d="M0,0.794L-0.051,-5.767L2.182,-5.767L2.105,-3.772L2.156,-3.772C2.409,-4.413 2.879,-4.958 3.564,-5.407C4.248,-5.855 5.081,-6.08 6.062,-6.08C6.434,-6.08 6.763,-6.047 7.051,-5.984L7.026,-3.989C6.62,-4.101 6.257,-4.157 5.935,-4.157C4.718,-4.157 3.78,-3.772 3.12,-3.003C2.46,-2.234 2.131,-1.096 2.131,0.409L2.131,0.77L2.182,6.874L-0.051,6.874L0,0.794Z" style="fill:white;fill-rule:nonzero;"/>
        </g>
        <g transform="matrix(1,0,0,1,164.443,100.308)">
            <path d="M0,12.642L-2.739,12.642L-7.432,0L-5.149,0L-1.344,10.647L-1.293,10.647L2.562,0L4.794,0L0,12.642Z" style="fill:white;fill-rule:nonzero;"/>
        </g>
        <g transform="matrix(1,0,0,1,171.57,102.519)">
            <path d="M0,4.11L-0.051,-2.211L2.182,-2.211L2.131,4.11L2.182,10.431L-0.051,10.431L0,4.11ZM1.065,-6.321C1.979,-6.321 2.435,-5.888 2.435,-5.023C2.435,-4.141 1.979,-3.701 1.065,-3.701C0.152,-3.701 -0.304,-4.141 -0.304,-5.023C-0.304,-5.888 0.152,-6.321 1.065,-6.321" style="fill:white;fill-rule:nonzero;"/>
        </g>
        <g transform="matrix(1,0,0,1,179.597,100.814)">
            <path d="M0,11.68C-0.939,11.136 -1.661,10.362 -2.169,9.361C-2.676,8.36 -2.929,7.186 -2.929,5.84C-2.929,4.494 -2.676,3.321 -2.169,2.319C-1.661,1.318 -0.943,0.545 -0.013,0C0.917,-0.545 2.016,-0.817 3.285,-0.817C4.823,-0.817 6.062,-0.397 7,0.444C7.939,1.285 8.509,2.323 8.712,3.557L6.785,4.037C6.598,3.06 6.205,2.299 5.605,1.754C5.005,1.21 4.24,0.937 3.31,0.937C2.075,0.937 1.099,1.374 0.38,2.247C-0.339,3.121 -0.698,4.318 -0.698,5.84C-0.698,7.362 -0.339,8.56 0.38,9.433C1.099,10.306 2.075,10.743 3.31,10.743C4.24,10.743 5.005,10.475 5.605,9.938C6.205,9.401 6.598,8.636 6.785,7.643L8.712,8.123C8.509,9.357 7.943,10.394 7.013,11.235C6.083,12.077 4.848,12.497 3.31,12.497C2.041,12.497 0.938,12.225 0,11.68" style="fill:white;fill-rule:nonzero;"/>
        </g>
        <g transform="matrix(1,0,0,1,199.445,107.783)">
            <path d="M0,-2.259C-0.018,-3.38 -0.33,-4.29 -0.939,-4.987C-1.547,-5.684 -2.376,-6.032 -3.424,-6.032C-4.456,-6.032 -5.301,-5.716 -5.961,-5.083C-6.62,-4.45 -7.026,-3.509 -7.178,-2.259L0,-2.259ZM-6.557,4.711C-7.496,4.166 -8.218,3.393 -8.726,2.392C-9.233,1.39 -9.486,0.216 -9.486,-1.129C-9.486,-3.18 -8.954,-4.802 -7.888,-5.996C-6.823,-7.19 -5.344,-7.787 -3.45,-7.787C-1.421,-7.787 0.033,-7.105 0.913,-5.744C1.792,-4.382 2.232,-2.659 2.232,-0.576L-7.229,-0.576C-7.145,0.785 -6.747,1.851 -6.037,2.62C-5.327,3.389 -4.397,3.773 -3.247,3.773C-2.317,3.773 -1.552,3.501 -0.952,2.956C-0.352,2.412 0.042,1.643 0.228,0.649L2.156,1.13C1.953,2.364 1.386,3.405 0.456,4.254C-0.474,5.104 -1.709,5.528 -3.247,5.528C-4.515,5.528 -5.619,5.255 -6.557,4.711" style="fill:white;fill-rule:nonzero;"/>
        </g>
        <g transform="matrix(1,0,0,1,204.911,100.993)">
            <path d="M0,11.32C-0.939,10.655 -1.467,9.65 -1.585,8.304L0.368,7.847C0.333,8.664 0.621,9.321 1.23,9.818C1.839,10.315 2.726,10.563 3.893,10.563C4.772,10.563 5.453,10.403 5.935,10.082C6.417,9.762 6.658,9.273 6.658,8.616C6.658,8.039 6.417,7.579 5.935,7.234C5.453,6.89 4.696,6.638 3.665,6.477C1.957,6.237 0.761,5.792 0.076,5.143C-0.609,4.494 -0.952,3.673 -0.952,2.68C-0.952,1.59 -0.575,0.705 0.178,0.024C0.93,-0.657 2.008,-0.997 3.412,-0.997C5,-0.997 6.205,-0.689 7.026,-0.072C7.846,0.545 8.323,1.486 8.459,2.752L6.531,3.208C6.481,2.376 6.205,1.759 5.707,1.358C5.208,0.958 4.477,0.757 3.513,0.757C2.769,0.757 2.198,0.913 1.801,1.226C1.403,1.538 1.205,1.967 1.205,2.512C1.205,3.073 1.424,3.517 1.864,3.846C2.304,4.174 3.073,4.434 4.172,4.626C5.796,4.899 6.975,5.364 7.711,6.02C8.446,6.678 8.814,7.519 8.814,8.544C8.814,9.65 8.374,10.555 7.495,11.26C6.615,11.965 5.39,12.317 3.817,12.317C2.211,12.317 0.938,11.985 0,11.32" style="fill:white;fill-rule:nonzero;"/>
        </g>
        <g transform="matrix(1,0,0,1,27.5034,129.986)">
            <path d="M0,4.158L2.993,4.134L0.025,-3.557L-0.025,-3.557L-2.917,4.134L0,4.158ZM-4.312,2.067L-1.116,-6.249L1.142,-6.249L4.414,2.067L7.863,10.407L5.301,10.407L3.653,5.936L0,5.912L-3.576,5.936L-5.2,10.407L-7.711,10.407L-4.312,2.067Z" style="fill:white;fill-rule:nonzero;"/>
        </g>
        <g transform="matrix(1,0,0,1,34.7579,140.393)">
            <path d="M0,-12.642L2.232,-12.642L5.047,-2.091L5.073,-2.091L7.914,-12.642L10.095,-12.642L12.911,-2.091L12.936,-2.091L15.777,-12.642L17.932,-12.642L14.229,0L11.566,0L8.979,-9.542L8.928,-9.542L6.29,0L3.652,0L0,-12.642Z" style="fill:white;fill-rule:nonzero;"/>
        </g>
        <g transform="matrix(1,0,0,1,56.2288,129.685)">
            <path d="M0,8.82C0.431,9.165 1.019,9.337 1.763,9.337C2.456,9.337 3.12,9.161 3.754,8.808C4.388,8.456 4.904,7.963 5.301,7.33C5.698,6.697 5.897,5.972 5.897,5.155L5.897,4.915L5.289,4.915C3.868,4.915 2.731,4.987 1.877,5.131C1.023,5.275 0.389,5.532 -0.025,5.9C-0.44,6.269 -0.647,6.781 -0.647,7.438C-0.647,8.015 -0.431,8.476 0,8.82M-1.738,10.07C-2.482,9.405 -2.853,8.536 -2.853,7.462C-2.853,6.517 -2.6,5.748 -2.092,5.155C-1.585,4.562 -0.778,4.122 0.33,3.833C1.437,3.545 2.904,3.401 4.73,3.401L5.897,3.401L5.897,3.064C5.897,1.895 5.652,0.997 5.162,0.372C4.671,-0.253 3.86,-0.565 2.727,-0.565C1.898,-0.565 1.226,-0.393 0.71,-0.048C0.194,0.296 -0.173,0.721 -0.393,1.226C-0.613,1.73 -0.714,2.247 -0.697,2.776L-2.625,2.319C-2.625,1.454 -2.406,0.677 -1.966,-0.012C-1.526,-0.701 -0.9,-1.246 -0.089,-1.646C0.723,-2.047 1.661,-2.247 2.727,-2.247C6.227,-2.247 7.977,-0.629 7.977,2.607L7.977,8.207C7.977,8.64 8.057,8.948 8.218,9.133C8.379,9.317 8.67,9.409 9.093,9.409C9.364,9.409 9.626,9.361 9.88,9.265L10.209,10.659C9.634,10.851 9.076,10.947 8.535,10.947C7.842,10.947 7.301,10.755 6.912,10.37C6.523,9.986 6.328,9.433 6.328,8.712C6.328,8.456 6.345,8.216 6.379,7.991L6.328,7.991C5.872,8.952 5.238,9.706 4.426,10.25C3.615,10.795 2.625,11.067 1.458,11.067C0.072,11.067 -0.994,10.735 -1.738,10.07" style="fill:white;fill-rule:nonzero;"/>
        </g>
        <g transform="matrix(1,0,0,1,68.1881,133.518)">
            <path d="M0,0.794L-0.051,-5.767L2.181,-5.767L2.105,-3.772L2.156,-3.772C2.41,-4.413 2.879,-4.958 3.564,-5.407C4.248,-5.855 5.081,-6.08 6.062,-6.08C6.434,-6.08 6.763,-6.047 7.051,-5.984L7.026,-3.989C6.62,-4.101 6.256,-4.157 5.935,-4.157C4.718,-4.157 3.779,-3.772 3.12,-3.003C2.46,-2.234 2.13,-1.096 2.13,0.409L2.13,0.77L2.181,6.874L-0.051,6.874L0,0.794Z" style="fill:white;fill-rule:nonzero;"/>
        </g>
        <g transform="matrix(1,0,0,1,79.3738,126.717)">
            <path d="M0,11.031C0.643,11.88 1.564,12.305 2.765,12.305C3.762,12.305 4.637,11.932 5.39,11.187C6.142,10.442 6.519,9.156 6.519,7.33C6.519,5.712 6.159,4.494 5.441,3.677C4.722,2.86 3.83,2.451 2.765,2.451C1.564,2.451 0.643,2.876 0,3.725C-0.643,4.574 -0.964,5.792 -0.964,7.378C-0.964,8.964 -0.643,10.182 0,11.031M-1.788,12.305C-2.727,11.151 -3.196,9.509 -3.196,7.378C-3.196,5.247 -2.727,3.605 -1.788,2.451C-0.85,1.297 0.49,0.721 2.232,0.721C3.28,0.721 4.164,0.945 4.883,1.393C5.601,1.842 6.129,2.363 6.468,2.956L6.519,2.956L6.443,-3.004L8.751,-3.004L8.7,6.417L8.751,13.675L6.443,13.675L6.493,11.8L6.443,11.8C6.138,12.377 5.622,12.894 4.895,13.35C4.168,13.807 3.28,14.035 2.232,14.035C0.49,14.035 -0.85,13.458 -1.788,12.305" style="fill:white;fill-rule:nonzero;"/>
        </g>
        <g transform="matrix(1,0,0,1,91.9164,128.435)">
            <path d="M0,11.32C-0.939,10.655 -1.467,9.65 -1.585,8.304L0.368,7.847C0.333,8.664 0.621,9.321 1.23,9.818C1.839,10.315 2.727,10.563 3.893,10.563C4.772,10.563 5.453,10.403 5.935,10.082C6.417,9.762 6.658,9.273 6.658,8.616C6.658,8.039 6.417,7.579 5.935,7.234C5.453,6.89 4.696,6.638 3.665,6.477C1.957,6.237 0.761,5.792 0.076,5.143C-0.609,4.494 -0.951,3.673 -0.951,2.68C-0.951,1.59 -0.575,0.705 0.177,0.024C0.929,-0.657 2.008,-0.997 3.411,-0.997C5,-0.997 6.205,-0.689 7.026,-0.072C7.846,0.545 8.323,1.486 8.459,2.752L6.531,3.208C6.48,2.376 6.205,1.759 5.707,1.358C5.208,0.958 4.477,0.757 3.513,0.757C2.768,0.757 2.198,0.913 1.801,1.226C1.403,1.538 1.205,1.967 1.205,2.512C1.205,3.073 1.424,3.517 1.864,3.846C2.304,4.174 3.073,4.434 4.172,4.626C5.796,4.899 6.975,5.364 7.711,6.02C8.446,6.678 8.814,7.519 8.814,8.544C8.814,9.65 8.374,10.555 7.495,11.26C6.616,11.965 5.39,12.317 3.817,12.317C2.211,12.317 0.938,11.985 0,11.32" style="fill:white;fill-rule:nonzero;"/>
        </g>
        <g transform="matrix(1,0,0,1,68.5336,53.4859)">
            <path d="M0,10.972L0,6.688C0,3.424 -1.493,1.963 -3.891,1.963C-6.265,1.963 -7.814,3.215 -8.307,5.425L-8.542,5.425L-8.542,-0.565C-8.542,-2.492 -10.261,-2.89 -12.095,-2.89L-13.646,-2.89L-13.646,-1.962C-12.8,-1.962 -12.471,-1.398 -12.471,0.107L-12.471,9.913C-12.58,10.834 -12.264,12.874 -14.87,12.874C-16.673,12.874 -17.6,11.723 -17.6,9.866L-17.6,3.572L-14.827,3.572C-13.699,3.572 -13.699,2.861 -13.699,2.109L-17.6,2.109L-17.6,-1.652L-20.374,-1.652C-20.374,0.704 -22.312,1.683 -24.023,2.111C-24.054,2.111 -24.076,2.109 -24.11,2.109L-34.6,2.109L-34.6,3.137C-32.843,3.137 -32.784,3.898 -33.339,5.545L-35.417,11.782L-38.934,2.109L-40.252,2.109L-43.406,11.637L-45.632,5.169C-45.987,4.053 -46.151,3.098 -44.354,3.098L-44.354,2.109L-52.212,2.109L-52.212,3.134C-50.554,3.134 -49.99,4.335 -49.502,5.745L-46.707,13.862L-42.722,13.862L-40.617,7.68L-38.786,13.862L-34.64,13.862L-31.725,5.027C-31.382,4.184 -31.093,3.345 -29.824,3.345C-28.73,3.345 -28.649,4.937 -28.649,5.793L-28.649,11.041C-28.649,12.545 -28.978,13.109 -29.824,13.109L-29.824,13.862L-23.474,13.862L-23.474,13.109C-24.32,13.109 -24.65,12.545 -24.65,11.041L-24.65,3.582L-21.549,3.582L-21.549,10.289C-21.549,13.415 -19.023,13.862 -17.119,13.862C-15.702,13.862 -13.672,13.833 -12.749,13.833C-12.485,13.833 -12.256,13.817 -12.045,13.792L-7.367,13.792L-7.367,12.94C-8.321,12.94 -8.542,11.981 -8.542,10.477L-8.542,9.834C-8.542,7.32 -7.621,3.384 -5.656,3.384C-4.363,3.384 -3.884,3.866 -3.884,5.44L-3.884,10.762C-3.884,12.266 -4.268,12.885 -5.114,12.885L-5.114,13.792L1.175,13.792L1.175,13.04C0.329,13.04 0,12.476 0,10.972" style="fill:white;fill-rule:nonzero;"/>
        </g>
        <g transform="matrix(-1,0,0,1,73.2356,67.1757)">
            <path d="M0,-3.964C1.21,-3.964 1.982,-3.063 1.982,-2.008C1.982,-0.875 1.21,0 0,0C-1.184,0 -1.982,-0.875 -1.982,-2.008C-1.982,-3.063 -1.184,-3.964 0,-3.964" style="fill:white;fill-rule:nonzero;"/>
        </g>
        <g transform="matrix(1,0,0,1,42.344,50.5124)">
            <path d="M0,3.949C1.09,3.949 1.974,3.065 1.974,1.975C1.974,0.884 1.09,0 0,0C-1.09,0 -1.974,0.884 -1.974,1.975C-1.974,3.065 -1.09,3.949 0,3.949" style="fill:white;fill-rule:nonzero;"/>
        </g>
        <g transform="matrix(1,0,0,1,21.6825,78.2397)">
            <path d="M0,-6.431L0.02,-3.22L0,0L0.921,0L0.891,-3.22L0.921,-6.431L0,-6.431Z" style="fill:white;fill-rule:nonzero;"/>
        </g>
        <g transform="matrix(1,0,0,1,28.1072,76.1614)">
            <path d="M0,-0.845C0,-1.556 -0.149,-2.08 -0.446,-2.418C-0.743,-2.755 -1.182,-2.923 -1.763,-2.923C-2.155,-2.923 -2.496,-2.841 -2.786,-2.678C-3.077,-2.514 -3.291,-2.308 -3.428,-2.061L-3.447,-2.061L-3.428,-2.803L-4.29,-2.803L-4.27,-0.279L-4.29,2.078L-3.428,2.078L-3.447,-0.279L-3.447,-0.641C-3.447,-0.956 -3.384,-1.235 -3.256,-1.476C-3.129,-1.717 -2.956,-1.904 -2.737,-2.037C-2.519,-2.17 -2.279,-2.237 -2.018,-2.237C-1.645,-2.237 -1.353,-2.121 -1.141,-1.889C-0.929,-1.657 -0.823,-1.306 -0.823,-0.836L-0.823,-0.279L-0.842,2.078L0.02,2.078L0,-0.279L0,-0.845Z" style="fill:white;fill-rule:nonzero;"/>
        </g>
        <g transform="matrix(1,0,0,1,31.0352,72.4586)">
            <path d="M0,5.252C-0.3,5.252 -0.501,5.167 -0.602,4.997C-0.704,4.827 -0.754,4.547 -0.754,4.157L-0.754,1.531L0.833,1.55L0.833,0.9L-0.754,0.9L-0.754,-0.668L-1.616,-0.668L-1.616,0.9L-2.399,0.9L-2.399,1.55L-1.616,1.531L-1.616,4.046C-1.616,4.454 -1.59,4.783 -1.538,5.034C-1.485,5.284 -1.348,5.495 -1.126,5.665C-0.904,5.835 -0.558,5.92 -0.088,5.92C0.264,5.92 0.61,5.858 0.95,5.734L0.793,5.132C0.552,5.212 0.287,5.252 0,5.252" style="fill:white;fill-rule:nonzero;"/>
        </g>
        <g transform="matrix(1,0,0,1,33.0524,76.2453)">
            <path d="M0,-0.873C0.059,-1.356 0.215,-1.719 0.47,-1.963C0.725,-2.208 1.051,-2.33 1.449,-2.33C1.854,-2.33 2.174,-2.195 2.409,-1.926C2.644,-1.657 2.765,-1.306 2.771,-0.873L0,-0.873ZM3.124,-2.219C2.784,-2.744 2.223,-3.007 1.44,-3.007C0.708,-3.007 0.137,-2.777 -0.274,-2.316C-0.686,-1.855 -0.891,-1.229 -0.891,-0.437C-0.891,0.083 -0.793,0.536 -0.597,0.923C-0.401,1.309 -0.122,1.608 0.24,1.818C0.602,2.028 1.028,2.134 1.518,2.134C2.112,2.134 2.589,1.969 2.948,1.642C3.307,1.314 3.525,0.912 3.604,0.435L2.86,0.25C2.788,0.633 2.636,0.93 2.404,1.141C2.172,1.351 1.877,1.456 1.518,1.456C1.074,1.456 0.715,1.308 0.441,1.011C0.166,0.714 0.013,0.302 -0.02,-0.224L3.633,-0.224C3.633,-1.028 3.464,-1.693 3.124,-2.219" style="fill:white;fill-rule:nonzero;"/>
        </g>
        <g transform="matrix(1,0,0,1,37.5083,78.2394)">
            <path d="M0,-6.44L0.02,-3.266L0,0L0.862,0L0.842,-3.266L0.862,-6.44L0,-6.44Z" style="fill:white;fill-rule:nonzero;"/>
        </g>
        <g transform="matrix(1,0,0,1,39.5355,78.2394)">
            <path d="M0,-6.44L0.02,-3.266L0,0L0.862,0L0.842,-3.266L0.862,-6.44L0,-6.44Z" style="fill:white;fill-rule:nonzero;"/>
        </g>
        <g transform="matrix(1,0,0,1,41.5719,71.4737)">
            <rect x="0" y="0" width="0.854" height="0.965" style="fill:white;"/>
        </g>
        <g transform="matrix(1,0,0,1,42.4194,78.2412)">
            <path d="M0,-4.924L-0.848,-4.924L-0.835,-2.443L-0.854,0L0.006,0L-0.012,-2.443L0,-4.924Z" style="fill:white;fill-rule:nonzero;"/>
        </g>
        <g transform="matrix(1,0,0,1,46.562,76.1433)">
            <path d="M0,0.797C-0.291,1.063 -0.638,1.196 -1.043,1.196C-1.487,1.196 -1.833,1.041 -2.081,0.732C-2.329,0.423 -2.453,0.005 -2.453,-0.521C-2.453,-1.04 -2.324,-1.456 -2.066,-1.769C-1.809,-2.081 -1.467,-2.237 -1.043,-2.237C-0.704,-2.237 -0.423,-2.151 -0.201,-1.978C0.021,-1.804 0.183,-1.586 0.284,-1.323C0.385,-1.06 0.436,-0.793 0.436,-0.521C0.436,0.092 0.291,0.531 0,0.797M0.426,-2.052L0.407,-2.052C0.276,-2.274 0.073,-2.472 -0.201,-2.646C-0.475,-2.819 -0.821,-2.905 -1.239,-2.905C-1.683,-2.905 -2.061,-2.799 -2.375,-2.585C-2.688,-2.372 -2.923,-2.084 -3.08,-1.722C-3.237,-1.36 -3.315,-0.96 -3.315,-0.521C-3.315,0.222 -3.133,0.805 -2.767,1.229C-2.401,1.652 -1.885,1.864 -1.219,1.864C-0.808,1.864 -0.465,1.776 -0.191,1.6C0.083,1.423 0.282,1.224 0.407,1.001L0.426,1.001L0.426,1.243C0.426,1.62 0.39,1.937 0.318,2.194C0.246,2.45 0.106,2.658 -0.103,2.815C-0.312,2.973 -0.615,3.052 -1.013,3.052C-1.425,3.052 -1.748,2.958 -1.983,2.769C-2.218,2.58 -2.336,2.328 -2.336,2.013L-3.129,2.226C-3.129,2.48 -3.044,2.719 -2.874,2.945C-2.705,3.171 -2.46,3.354 -2.14,3.493C-1.82,3.632 -1.445,3.702 -1.013,3.702C-0.217,3.702 0.367,3.488 0.739,3.061C1.112,2.635 1.298,1.96 1.298,1.038L1.298,-2.785L0.416,-2.785L0.426,-2.052Z" style="fill:white;fill-rule:nonzero;"/>
        </g>
        <g transform="matrix(1,0,0,1,49.5736,76.2453)">
            <path d="M0,-0.873C0.059,-1.356 0.215,-1.719 0.47,-1.963C0.725,-2.208 1.051,-2.33 1.449,-2.33C1.854,-2.33 2.174,-2.195 2.409,-1.926C2.644,-1.657 2.765,-1.306 2.771,-0.873L0,-0.873ZM3.124,-2.219C2.784,-2.744 2.223,-3.007 1.44,-3.007C0.708,-3.007 0.137,-2.777 -0.274,-2.316C-0.686,-1.855 -0.891,-1.229 -0.891,-0.437C-0.891,0.083 -0.793,0.536 -0.598,0.923C-0.401,1.309 -0.122,1.608 0.24,1.818C0.602,2.028 1.028,2.134 1.518,2.134C2.112,2.134 2.589,1.969 2.948,1.642C3.307,1.314 3.525,0.912 3.604,0.435L2.86,0.25C2.788,0.633 2.636,0.93 2.404,1.141C2.172,1.351 1.877,1.456 1.518,1.456C1.074,1.456 0.715,1.308 0.441,1.011C0.166,0.714 0.013,0.302 -0.02,-0.224L3.633,-0.224C3.633,-1.028 3.464,-1.693 3.124,-2.219" style="fill:white;fill-rule:nonzero;"/>
        </g>
        <g transform="matrix(1,0,0,1,58.3188,76.1614)">
            <path d="M0,-0.845C0,-1.556 -0.149,-2.08 -0.446,-2.418C-0.743,-2.755 -1.182,-2.923 -1.763,-2.923C-2.155,-2.923 -2.496,-2.841 -2.786,-2.678C-3.077,-2.514 -3.291,-2.308 -3.428,-2.061L-3.447,-2.061L-3.428,-2.803L-4.29,-2.803L-4.27,-0.279L-4.29,2.078L-3.428,2.078L-3.447,-0.279L-3.447,-0.641C-3.447,-0.956 -3.384,-1.235 -3.256,-1.476C-3.129,-1.717 -2.956,-1.904 -2.737,-2.037C-2.519,-2.17 -2.279,-2.237 -2.018,-2.237C-1.645,-2.237 -1.353,-2.121 -1.141,-1.889C-0.929,-1.657 -0.823,-1.306 -0.823,-0.836L-0.823,-0.279L-0.842,2.078L0.02,2.078L0,-0.279L0,-0.845Z" style="fill:white;fill-rule:nonzero;"/>
        </g>
        <g transform="matrix(1,0,0,1,61.5507,77.7021)">
            <path d="M0,-3.787C0.359,-3.787 0.655,-3.682 0.886,-3.471C1.118,-3.261 1.27,-2.967 1.342,-2.59L2.086,-2.775C2.008,-3.252 1.787,-3.652 1.425,-3.977C1.063,-4.302 0.584,-4.464 -0.01,-4.464C-0.499,-4.464 -0.924,-4.359 -1.283,-4.149C-1.642,-3.938 -1.919,-3.64 -2.115,-3.253C-2.311,-2.867 -2.409,-2.413 -2.409,-1.894C-2.409,-1.374 -2.311,-0.921 -2.115,-0.534C-1.919,-0.148 -1.64,0.151 -1.278,0.361C-0.916,0.571 -0.49,0.677 0,0.677C0.594,0.677 1.071,0.514 1.43,0.19C1.789,-0.135 2.008,-0.536 2.086,-1.012L1.342,-1.198C1.27,-0.814 1.118,-0.519 0.886,-0.312C0.655,-0.104 0.359,-0.001 0,-0.001C-0.477,-0.001 -0.854,-0.169 -1.131,-0.506C-1.409,-0.844 -1.547,-1.306 -1.547,-1.894C-1.547,-2.481 -1.409,-2.944 -1.131,-3.281C-0.854,-3.618 -0.477,-3.787 0,-3.787" style="fill:white;fill-rule:nonzero;"/>
        </g>
        <g transform="matrix(1,0,0,1,64.8608,76.2453)">
            <path d="M0,-0.873C0.059,-1.356 0.215,-1.719 0.47,-1.963C0.725,-2.208 1.051,-2.33 1.449,-2.33C1.854,-2.33 2.174,-2.195 2.409,-1.926C2.644,-1.657 2.765,-1.306 2.771,-0.873L0,-0.873ZM3.124,-2.219C2.784,-2.744 2.223,-3.007 1.44,-3.007C0.708,-3.007 0.137,-2.777 -0.274,-2.316C-0.686,-1.855 -0.891,-1.229 -0.891,-0.437C-0.891,0.083 -0.793,0.536 -0.597,0.923C-0.401,1.309 -0.122,1.608 0.24,1.818C0.602,2.028 1.028,2.134 1.518,2.134C2.112,2.134 2.589,1.969 2.948,1.642C3.307,1.314 3.525,0.912 3.604,0.435L2.86,0.25C2.788,0.633 2.636,0.93 2.404,1.141C2.172,1.351 1.877,1.456 1.518,1.456C1.074,1.456 0.715,1.308 0.441,1.011C0.166,0.714 0.013,0.302 -0.02,-0.224L3.633,-0.224C3.633,-1.028 3.464,-1.693 3.124,-2.219" style="fill:white;fill-rule:nonzero;"/>
        </g>
        <g transform="matrix(258.421,0,0,-258.421,20.5468,178.55)">
            <path d="M0.046,0.07C0.02,0.07 0,0.05 0,0.025L0,-0.025C0,-0.05 0.02,-0.07 0.046,-0.07L0.954,-0.07C0.98,-0.07 1,-0.05 1,-0.025L1,0.025C1,0.05 0.98,0.07 0.954,0.07L0.046,0.07Z" style="fill:url(#_Linear64);fill-rule:nonzero;"/>
        </g>
        <g transform="matrix(1,0,0,1,117.6,171.044)">
            <path d="M0,15.499L-4.234,0L-2.083,0L0.34,10.16C0.596,11.203 0.822,12.26 1.016,13.331L1.729,10.466L4.754,0L7.308,0L9.576,7.845C10.13,9.755 10.543,11.584 10.815,13.331C11.018,12.324 11.279,11.2 11.596,9.959L14.099,0L16.215,0L11.845,15.499L9.823,15.499L6.464,3.689L5.962,1.871C5.812,2.547 5.657,3.154 5.499,3.689L2.127,15.499L0,15.499Z" style="fill:white;fill-rule:nonzero;"/>
        </g>
        <g transform="matrix(1,0,0,1,0,65.858)">
            <rect x="135.458" y="109.457" width="1.944" height="11.228" style="fill:white;"/>
        </g>
        <g transform="matrix(1,0,0,1,140.391,175.061)">
            <path d="M0,11.482L0,0.254L1.759,0.254L1.759,1.84C2.181,1.224 2.698,0.763 3.31,0.458C3.922,0.153 4.623,0 5.416,0C6.032,0 6.602,0.098 7.125,0.291C7.649,0.485 8.071,0.739 8.393,1.052C8.714,1.366 8.954,1.773 9.112,2.274C9.271,2.774 9.35,3.542 9.35,4.578L9.35,11.482L7.406,11.482L7.406,4.645C7.406,3.819 7.318,3.216 7.141,2.835C6.965,2.454 6.689,2.159 6.315,1.951C5.94,1.743 5.506,1.639 5.012,1.639C4.078,1.639 3.333,1.918 2.777,2.475C2.222,3.032 1.944,3.989 1.944,5.343L1.944,11.482L0,11.482Z" style="fill:white;fill-rule:nonzero;"/>
        </g>
        <g transform="matrix(1,0,0,1,152.743,175.061)">
            <path d="M0,11.482L0,0.254L1.759,0.254L1.759,1.84C2.182,1.224 2.699,0.763 3.31,0.458C3.921,0.153 4.623,0 5.416,0C6.032,0 6.601,0.098 7.125,0.291C7.649,0.485 8.071,0.739 8.393,1.052C8.714,1.366 8.954,1.773 9.112,2.274C9.271,2.774 9.35,3.542 9.35,4.578L9.35,11.482L7.406,11.482L7.406,4.645C7.406,3.819 7.317,3.216 7.142,2.835C6.965,2.454 6.69,2.159 6.315,1.951C5.94,1.743 5.506,1.639 5.012,1.639C4.077,1.639 3.332,1.918 2.777,2.475C2.222,3.032 1.944,3.989 1.944,5.343L1.944,11.482L0,11.482Z" style="fill:white;fill-rule:nonzero;"/>
        </g>
        <g transform="matrix(1,0,0,1,166.549,182.007)">
            <path d="M0,-2.157L6.427,-2.157C6.339,-3.13 6.079,-3.855 5.647,-4.334C5.021,-5.033 4.223,-5.381 3.253,-5.381C2.38,-5.381 1.635,-5.091 1.018,-4.509C0.401,-3.928 0.062,-3.144 0,-2.157M6.414,0.92L8.424,1.163C8.089,2.361 7.483,3.265 6.606,3.875C5.728,4.485 4.642,4.789 3.346,4.789C1.715,4.789 0.395,4.295 -0.615,3.304C-1.625,2.314 -2.129,0.885 -2.129,-0.983C-2.129,-2.921 -1.62,-4.4 -0.602,-5.418C0.416,-6.437 1.706,-6.946 3.267,-6.946C4.756,-6.946 5.999,-6.445 6.996,-5.445C7.992,-4.444 8.49,-2.996 8.49,-1.1L8.477,-0.592L-0.119,-0.592C-0.04,0.67 0.326,1.621 0.979,2.263C1.631,2.904 2.424,3.225 3.359,3.225C4.822,3.225 5.841,2.457 6.414,0.92" style="fill:white;fill-rule:nonzero;"/>
        </g>
        <g transform="matrix(1,0,0,1,177.446,175.061)">
            <path d="M0,11.482L0,0.254L1.759,0.254L1.759,1.956C2.209,1.167 2.621,0.644 2.995,0.386C3.37,0.129 3.791,0 4.259,0C4.91,0 5.576,0.205 6.255,0.614L5.594,2.379C5.109,2.105 4.637,1.967 4.179,1.967C3.764,1.967 3.386,2.083 3.042,2.316C2.698,2.548 2.455,2.872 2.314,3.289C2.067,4.014 1.944,4.786 1.944,5.604L1.944,11.482L0,11.482Z" style="fill:white;fill-rule:nonzero;"/>
        </g>
        <g transform="matrix(0,-1,-1,0,136.43,171.426)">
            <path d="M-1.184,-1.184C-1.838,-1.184 -2.37,-0.654 -2.37,0.001C-2.37,0.655 -1.838,1.184 -1.184,1.184C-0.53,1.184 0.001,0.655 0.001,0.001C0.001,-0.654 -0.53,-1.184 -1.184,-1.184" style="fill:white;fill-rule:nonzero;"/>
        </g>
    </g>
    <defs>
        <linearGradient id="_Linear1" x1="0" y1="0" x2="1" y2="0" gradientUnits="userSpaceOnUse" gradientTransform="matrix(0.723513,-0.690311,-0.690311,-0.723513,0.128414,0.320614)"><stop offset="0" style="stop-color:rgb(181,178,255);stop-opacity:1"/><stop offset="0" style="stop-color:rgb(181,178,255);stop-opacity:1"/><stop offset="1" style="stop-color:rgb(112,108,255);stop-opacity:1"/></linearGradient>
        <linearGradient id="_Linear2" x1="0" y1="0" x2="1" y2="0" gradientUnits="userSpaceOnUse" gradientTransform="matrix(0.723513,-0.690311,-0.690311,-0.723513,0.128416,0.320617)"><stop offset="0" style="stop-color:rgb(181,178,255);stop-opacity:1"/><stop offset="0" style="stop-color:rgb(181,178,255);stop-opacity:1"/><stop offset="1" style="stop-color:rgb(112,108,255);stop-opacity:1"/></linearGradient>
        <linearGradient id="_Linear3" x1="0" y1="0" x2="1" y2="0" gradientUnits="userSpaceOnUse" gradientTransform="matrix(0.723513,-0.690311,-0.690311,-0.723513,0.128415,0.320616)"><stop offset="0" style="stop-color:rgb(181,178,255);stop-opacity:1"/><stop offset="0" style="stop-color:rgb(181,178,255);stop-opacity:1"/><stop offset="1" style="stop-color:rgb(112,108,255);stop-opacity:1"/></linearGradient>
        <linearGradient id="_Linear4" x1="0" y1="0" x2="1" y2="0" gradientUnits="userSpaceOnUse" gradientTransform="matrix(0.723513,-0.690311,-0.690311,-0.723513,0.128418,0.320623)"><stop offset="0" style="stop-color:rgb(181,178,255);stop-opacity:1"/><stop offset="0" style="stop-color:rgb(181,178,255);stop-opacity:1"/><stop offset="1" style="stop-color:rgb(112,108,255);stop-opacity:1"/></linearGradient>
        <linearGradient id="_Linear5" x1="0" y1="0" x2="1" y2="0" gradientUnits="userSpaceOnUse" gradientTransform="matrix(-0.723549,0.690273,0.690273,0.723549,0.800513,-0.320601)"><stop offset="0" style="stop-color:rgb(181,178,255);stop-opacity:1"/><stop offset="0" style="stop-color:rgb(181,178,255);stop-opacity:1"/><stop offset="1" style="stop-color:rgb(112,108,255);stop-opacity:1"/></linearGradient>
        <linearGradient id="_Linear6" x1="0" y1="0" x2="1" y2="0" gradientUnits="userSpaceOnUse" gradientTransform="matrix(0.723513,-0.690311,-0.690311,-0.723513,0.128416,0.320619)"><stop offset="0" style="stop-color:rgb(181,178,255);stop-opacity:1"/><stop offset="0" style="stop-color:rgb(181,178,255);stop-opacity:1"/><stop offset="1" style="stop-color:rgb(112,108,255);stop-opacity:1"/></linearGradient>
        <linearGradient id="_Linear7" x1="0" y1="0" x2="1" y2="0" gradientUnits="userSpaceOnUse" gradientTransform="matrix(0.723513,-0.690311,-0.690311,-0.723513,0.128416,0.320618)"><stop offset="0" style="stop-color:rgb(181,178,255);stop-opacity:1"/><stop offset="0" style="stop-color:rgb(181,178,255);stop-opacity:1"/><stop offset="1" style="stop-color:rgb(112,108,255);stop-opacity:1"/></linearGradient>
        <linearGradient id="_Linear8" x1="0" y1="0" x2="1" y2="0" gradientUnits="userSpaceOnUse" gradientTransform="matrix(-0.727427,0.686185,0.686185,0.727427,1.03241,-0.410103)"><stop offset="0" style="stop-color:rgb(181,178,255);stop-opacity:1"/><stop offset="0" style="stop-color:rgb(181,178,255);stop-opacity:1"/><stop offset="1" style="stop-color:rgb(112,108,255);stop-opacity:1"/></linearGradient>
        <linearGradient id="_Linear9" x1="0" y1="0" x2="1" y2="0" gradientUnits="userSpaceOnUse" gradientTransform="matrix(0.727427,-0.686185,-0.686185,-0.727427,0.162906,0.410105)"><stop offset="0" style="stop-color:rgb(181,178,255);stop-opacity:1"/><stop offset="0" style="stop-color:rgb(181,178,255);stop-opacity:1"/><stop offset="1" style="stop-color:rgb(112,108,255);stop-opacity:1"/></linearGradient>
        <linearGradient id="_Linear10" x1="0" y1="0" x2="1" y2="0" gradientUnits="userSpaceOnUse" gradientTransform="matrix(0.727427,-0.686185,-0.686185,-0.727427,0.162903,0.410099)"><stop offset="0" style="stop-color:rgb(181,178,255);stop-opacity:1"/><stop offset="0" style="stop-color:rgb(181,178,255);stop-opacity:1"/><stop offset="1" style="stop-color:rgb(112,108,255);stop-opacity:1"/></linearGradient>
        <linearGradient id="_Linear11" x1="0" y1="0" x2="1" y2="0" gradientUnits="userSpaceOnUse" gradientTransform="matrix(0.727427,-0.686185,-0.686185,-0.727427,0.162903,0.410098)"><stop offset="0" style="stop-color:rgb(181,178,255);stop-opacity:1"/><stop offset="0" style="stop-color:rgb(181,178,255);stop-opacity:1"/><stop offset="1" style="stop-color:rgb(112,108,255);stop-opacity:1"/></linearGradient>
        <linearGradient id="_Linear12" x1="0" y1="0" x2="1" y2="0" gradientUnits="userSpaceOnUse" gradientTransform="matrix(0.723551,-0.690271,-0.690271,-0.723551,0.128397,0.320596)"><stop offset="0" style="stop-color:rgb(181,178,255);stop-opacity:1"/><stop offset="0" style="stop-color:rgb(181,178,255);stop-opacity:1"/><stop offset="1" style="stop-color:rgb(112,108,255);stop-opacity:1"/></linearGradient>
        <linearGradient id="_Linear13" x1="0" y1="0" x2="1" y2="0" gradientUnits="userSpaceOnUse" gradientTransform="matrix(0.727427,-0.686185,-0.686185,-0.727427,0.162903,0.410097)"><stop offset="0" style="stop-color:rgb(181,178,255);stop-opacity:1"/><stop offset="0" style="stop-color:rgb(181,178,255);stop-opacity:1"/><stop offset="1" style="stop-color:rgb(112,108,255);stop-opacity:1"/></linearGradient>
        <linearGradient id="_Linear14" x1="0" y1="0" x2="1" y2="0" gradientUnits="userSpaceOnUse" gradientTransform="matrix(0.727427,-0.686185,-0.686185,-0.727427,0.162908,0.410109)"><stop offset="0" style="stop-color:rgb(181,178,255);stop-opacity:1"/><stop offset="0" style="stop-color:rgb(181,178,255);stop-opacity:1"/><stop offset="1" style="stop-color:rgb(112,108,255);stop-opacity:1"/></linearGradient>
        <linearGradient id="_Linear15" x1="0" y1="0" x2="1" y2="0" gradientUnits="userSpaceOnUse" gradientTransform="matrix(0.727468,-0.686141,-0.686141,-0.727468,0.16288,0.410076)"><stop offset="0" style="stop-color:rgb(181,178,255);stop-opacity:1"/><stop offset="0" style="stop-color:rgb(181,178,255);stop-opacity:1"/><stop offset="1" style="stop-color:rgb(112,108,255);stop-opacity:1"/></linearGradient>
        <linearGradient id="_Linear16" x1="0" y1="0" x2="1" y2="0" gradientUnits="userSpaceOnUse" gradientTransform="matrix(0.723556,-0.690266,-0.690266,-0.723556,0.0542689,0.135506)"><stop offset="0" style="stop-color:rgb(181,178,255);stop-opacity:1"/><stop offset="0" style="stop-color:rgb(181,178,255);stop-opacity:1"/><stop offset="1" style="stop-color:rgb(112,108,255);stop-opacity:1"/></linearGradient>
        <linearGradient id="_Linear17" x1="0" y1="0" x2="1" y2="0" gradientUnits="userSpaceOnUse" gradientTransform="matrix(0.723594,-0.690226,-0.690226,-0.723594,0.0912905,0.227965)"><stop offset="0" style="stop-color:rgb(181,178,255);stop-opacity:1"/><stop offset="0" style="stop-color:rgb(181,178,255);stop-opacity:1"/><stop offset="1" style="stop-color:rgb(112,108,255);stop-opacity:1"/></linearGradient>
        <linearGradient id="_Linear18" x1="0" y1="0" x2="1" y2="0" gradientUnits="userSpaceOnUse" gradientTransform="matrix(0.723556,-0.690266,-0.690266,-0.723556,0.054271,0.135512)"><stop offset="0" style="stop-color:rgb(181,178,255);stop-opacity:1"/><stop offset="0" style="stop-color:rgb(181,178,255);stop-opacity:1"/><stop offset="1" style="stop-color:rgb(112,108,255);stop-opacity:1"/></linearGradient>
        <linearGradient id="_Linear19" x1="0" y1="0" x2="1" y2="0" gradientUnits="userSpaceOnUse" gradientTransform="matrix(0.723556,-0.690266,-0.690266,-0.723556,0.0542682,0.135505)"><stop offset="0" style="stop-color:rgb(181,178,255);stop-opacity:1"/><stop offset="0" style="stop-color:rgb(181,178,255);stop-opacity:1"/><stop offset="1" style="stop-color:rgb(112,108,255);stop-opacity:1"/></linearGradient>
        <linearGradient id="_Linear20" x1="0" y1="0" x2="1" y2="0" gradientUnits="userSpaceOnUse" gradientTransform="matrix(0.723556,-0.690266,-0.690266,-0.723556,0.05427,0.135509)"><stop offset="0" style="stop-color:rgb(181,178,255);stop-opacity:1"/><stop offset="0" style="stop-color:rgb(181,178,255);stop-opacity:1"/><stop offset="1" style="stop-color:rgb(112,108,255);stop-opacity:1"/></linearGradient>
        <linearGradient id="_Linear21" x1="0" y1="0" x2="1" y2="0" gradientUnits="userSpaceOnUse" gradientTransform="matrix(1,0,0,-1,0,1.15892e-06)"><stop offset="0" style="stop-color:rgb(181,178,255);stop-opacity:1"/><stop offset="0" style="stop-color:rgb(181,178,255);stop-opacity:1"/><stop offset="1" style="stop-color:rgb(112,108,255);stop-opacity:1"/></linearGradient>
        <linearGradient id="_Linear22" x1="0" y1="0" x2="1" y2="0" gradientUnits="userSpaceOnUse" gradientTransform="matrix(0.723556,-0.690266,-0.690266,-0.723556,0.0542703,0.13551)"><stop offset="0" style="stop-color:rgb(181,178,255);stop-opacity:1"/><stop offset="0" style="stop-color:rgb(181,178,255);stop-opacity:1"/><stop offset="1" style="stop-color:rgb(112,108,255);stop-opacity:1"/></linearGradient>
        <linearGradient id="_Linear23" x1="0" y1="0" x2="1" y2="0" gradientUnits="userSpaceOnUse" gradientTransform="matrix(-0.723523,0.6903,0.6903,0.723523,0.338352,-0.135516)"><stop offset="0" style="stop-color:rgb(181,178,255);stop-opacity:1"/><stop offset="0" style="stop-color:rgb(181,178,255);stop-opacity:1"/><stop offset="1" style="stop-color:rgb(112,108,255);stop-opacity:1"/></linearGradient>
        <linearGradient id="_Linear24" x1="0" y1="0" x2="1" y2="0" gradientUnits="userSpaceOnUse" gradientTransform="matrix(0.72359,-0.69023,-0.69023,-0.72359,0.0542629,0.135501)"><stop offset="0" style="stop-color:rgb(181,178,255);stop-opacity:1"/><stop offset="0" style="stop-color:rgb(181,178,255);stop-opacity:1"/><stop offset="1" style="stop-color:rgb(112,108,255);stop-opacity:1"/></linearGradient>
        <linearGradient id="_Linear25" x1="0" y1="0" x2="1" y2="0" gradientUnits="userSpaceOnUse" gradientTransform="matrix(0.723594,-0.690226,-0.690226,-0.723594,0.0912881,0.22796)"><stop offset="0" style="stop-color:rgb(181,178,255);stop-opacity:1"/><stop offset="0" style="stop-color:rgb(181,178,255);stop-opacity:1"/><stop offset="1" style="stop-color:rgb(112,108,255);stop-opacity:1"/></linearGradient>
        <linearGradient id="_Linear26" x1="0" y1="0" x2="1" y2="0" gradientUnits="userSpaceOnUse" gradientTransform="matrix(0.723594,-0.690226,-0.690226,-0.723594,0.0912861,0.227954)"><stop offset="0" style="stop-color:rgb(181,178,255);stop-opacity:1"/><stop offset="0" style="stop-color:rgb(181,178,255);stop-opacity:1"/><stop offset="1" style="stop-color:rgb(112,108,255);stop-opacity:1"/></linearGradient>
        <linearGradient id="_Linear27" x1="0" y1="0" x2="1" y2="0" gradientUnits="userSpaceOnUse" gradientTransform="matrix(0.723558,-0.690264,-0.690264,-0.723558,0.0913027,0.227979)"><stop offset="0" style="stop-color:rgb(181,178,255);stop-opacity:1"/><stop offset="0" style="stop-color:rgb(181,178,255);stop-opacity:1"/><stop offset="1" style="stop-color:rgb(112,108,255);stop-opacity:1"/></linearGradient>
        <linearGradient id="_Linear28" x1="0" y1="0" x2="1" y2="0" gradientUnits="userSpaceOnUse" gradientTransform="matrix(0.727427,-0.686185,-0.686185,-0.727427,0.162907,0.410108)"><stop offset="0" style="stop-color:rgb(181,178,255);stop-opacity:1"/><stop offset="0" style="stop-color:rgb(181,178,255);stop-opacity:1"/><stop offset="1" style="stop-color:rgb(112,108,255);stop-opacity:1"/></linearGradient>
        <linearGradient id="_Linear29" x1="0" y1="0" x2="1" y2="0" gradientUnits="userSpaceOnUse" gradientTransform="matrix(0.723594,-0.690226,-0.690226,-0.723594,0.0912897,0.227964)"><stop offset="0" style="stop-color:rgb(181,178,255);stop-opacity:1"/><stop offset="0" style="stop-color:rgb(181,178,255);stop-opacity:1"/><stop offset="1" style="stop-color:rgb(112,108,255);stop-opacity:1"/></linearGradient>
        <linearGradient id="_Linear30" x1="0" y1="0" x2="1" y2="0" gradientUnits="userSpaceOnUse" gradientTransform="matrix(0.723594,-0.690226,-0.690226,-0.723594,0.0912902,0.227965)"><stop offset="0" style="stop-color:rgb(181,178,255);stop-opacity:1"/><stop offset="0" style="stop-color:rgb(181,178,255);stop-opacity:1"/><stop offset="1" style="stop-color:rgb(112,108,255);stop-opacity:1"/></linearGradient>
        <linearGradient id="_Linear31" x1="0" y1="0" x2="1" y2="0" gradientUnits="userSpaceOnUse" gradientTransform="matrix(-0.723559,0.690262,0.690262,0.723559,0.569245,-0.227975)"><stop offset="0" style="stop-color:rgb(181,178,255);stop-opacity:1"/><stop offset="0" style="stop-color:rgb(181,178,255);stop-opacity:1"/><stop offset="1" style="stop-color:rgb(112,108,255);stop-opacity:1"/></linearGradient>
        <linearGradient id="_Linear32" x1="0" y1="0" x2="1" y2="0" gradientUnits="userSpaceOnUse" gradientTransform="matrix(0.723558,-0.690264,-0.690264,-0.723558,0.0913042,0.227983)"><stop offset="0" style="stop-color:rgb(181,178,255);stop-opacity:1"/><stop offset="0" style="stop-color:rgb(181,178,255);stop-opacity:1"/><stop offset="1" style="stop-color:rgb(112,108,255);stop-opacity:1"/></linearGradient>
        <linearGradient id="_Linear33" x1="0" y1="0" x2="1" y2="0" gradientUnits="userSpaceOnUse" gradientTransform="matrix(0.690211,0.723608,0.723608,-0.690211,0.303708,-0.709403)"><stop offset="0" style="stop-color:rgb(181,178,255);stop-opacity:1"/><stop offset="0" style="stop-color:rgb(181,178,255);stop-opacity:1"/><stop offset="1" style="stop-color:rgb(112,108,255);stop-opacity:1"/></linearGradient>
        <linearGradient id="_Linear34" x1="0" y1="0" x2="1" y2="0" gradientUnits="userSpaceOnUse" gradientTransform="matrix(0.691602,0.722278,0.722278,-0.691602,0.302343,-0.708097)"><stop offset="0" style="stop-color:rgb(181,178,255);stop-opacity:1"/><stop offset="0" style="stop-color:rgb(181,178,255);stop-opacity:1"/><stop offset="1" style="stop-color:rgb(112,108,255);stop-opacity:1"/></linearGradient>
        <linearGradient id="_Linear35" x1="0" y1="0" x2="1" y2="0" gradientUnits="userSpaceOnUse" gradientTransform="matrix(1,0,0,-1,0,4.96432e-06)"><stop offset="0" style="stop-color:rgb(181,178,255);stop-opacity:1"/><stop offset="0" style="stop-color:rgb(181,178,255);stop-opacity:1"/><stop offset="1" style="stop-color:rgb(112,108,255);stop-opacity:1"/></linearGradient>
        <linearGradient id="_Linear36" x1="0" y1="0" x2="1" y2="0" gradientUnits="userSpaceOnUse" gradientTransform="matrix(0.690211,0.723608,0.723608,-0.690211,0.303706,-0.709399)"><stop offset="0" style="stop-color:rgb(181,178,255);stop-opacity:1"/><stop offset="0" style="stop-color:rgb(181,178,255);stop-opacity:1"/><stop offset="1" style="stop-color:rgb(112,108,255);stop-opacity:1"/></linearGradient>
        <linearGradient id="_Linear37" x1="0" y1="0" x2="1" y2="0" gradientUnits="userSpaceOnUse" gradientTransform="matrix(0.690211,0.723608,0.723608,-0.690211,0.303707,-0.709401)"><stop offset="0" style="stop-color:rgb(181,178,255);stop-opacity:1"/><stop offset="0" style="stop-color:rgb(181,178,255);stop-opacity:1"/><stop offset="1" style="stop-color:rgb(112,108,255);stop-opacity:1"/></linearGradient>
        <linearGradient id="_Linear38" x1="0" y1="0" x2="1" y2="0" gradientUnits="userSpaceOnUse" gradientTransform="matrix(0.691602,0.722278,0.722278,-0.691602,0.302343,-0.708099)"><stop offset="0" style="stop-color:rgb(181,178,255);stop-opacity:1"/><stop offset="0" style="stop-color:rgb(181,178,255);stop-opacity:1"/><stop offset="1" style="stop-color:rgb(112,108,255);stop-opacity:1"/></linearGradient>
        <linearGradient id="_Linear39" x1="0" y1="0" x2="1" y2="0" gradientUnits="userSpaceOnUse" gradientTransform="matrix(0.690211,0.723608,0.723608,-0.690211,0.303706,-0.709399)"><stop offset="0" style="stop-color:rgb(181,178,255);stop-opacity:1"/><stop offset="0" style="stop-color:rgb(181,178,255);stop-opacity:1"/><stop offset="1" style="stop-color:rgb(112,108,255);stop-opacity:1"/></linearGradient>
        <linearGradient id="_Linear40" x1="0" y1="0" x2="1" y2="0" gradientUnits="userSpaceOnUse" gradientTransform="matrix(1,0,0,-1,0,-5.95243e-06)"><stop offset="0" style="stop-color:rgb(181,178,255);stop-opacity:1"/><stop offset="0" style="stop-color:rgb(181,178,255);stop-opacity:1"/><stop offset="1" style="stop-color:rgb(112,108,255);stop-opacity:1"/></linearGradient>
        <linearGradient id="_Linear41" x1="0" y1="0" x2="1" y2="0" gradientUnits="userSpaceOnUse" gradientTransform="matrix(1,0,0,-1,0,1.55892e-06)"><stop offset="0" style="stop-color:rgb(181,178,255);stop-opacity:1"/><stop offset="0" style="stop-color:rgb(181,178,255);stop-opacity:1"/><stop offset="1" style="stop-color:rgb(112,108,255);stop-opacity:1"/></linearGradient>
        <linearGradient id="_Linear42" x1="0" y1="0" x2="1" y2="0" gradientUnits="userSpaceOnUse" gradientTransform="matrix(1,0,0,-1,0,-5.12216e-06)"><stop offset="0" style="stop-color:rgb(181,178,255);stop-opacity:1"/><stop offset="0" style="stop-color:rgb(181,178,255);stop-opacity:1"/><stop offset="1" style="stop-color:rgb(112,108,255);stop-opacity:1"/></linearGradient>
        <linearGradient id="_Linear43" x1="0" y1="0" x2="1" y2="0" gradientUnits="userSpaceOnUse" gradientTransform="matrix(1,0,0,-1,0,1.04757e-05)"><stop offset="0" style="stop-color:rgb(181,178,255);stop-opacity:1"/><stop offset="0" style="stop-color:rgb(181,178,255);stop-opacity:1"/><stop offset="1" style="stop-color:rgb(112,108,255);stop-opacity:1"/></linearGradient>
        <linearGradient id="_Linear44" x1="0" y1="0" x2="1" y2="0" gradientUnits="userSpaceOnUse" gradientTransform="matrix(1,0,0,-1,0,-5.03784e-07)"><stop offset="0" style="stop-color:rgb(181,178,255);stop-opacity:1"/><stop offset="0" style="stop-color:rgb(181,178,255);stop-opacity:1"/><stop offset="1" style="stop-color:rgb(112,108,255);stop-opacity:1"/></linearGradient>
        <linearGradient id="_Linear45" x1="0" y1="0" x2="1" y2="0" gradientUnits="userSpaceOnUse" gradientTransform="matrix(1,0,0,-1,0,6.92324e-06)"><stop offset="0" style="stop-color:rgb(181,178,255);stop-opacity:1"/><stop offset="0" style="stop-color:rgb(181,178,255);stop-opacity:1"/><stop offset="1" style="stop-color:rgb(112,108,255);stop-opacity:1"/></linearGradient>
        <linearGradient id="_Linear46" x1="0" y1="0" x2="1" y2="0" gradientUnits="userSpaceOnUse" gradientTransform="matrix(-0.723566,0.690255,0.690255,0.723566,1.68972,-0.676703)"><stop offset="0" style="stop-color:rgb(181,178,255);stop-opacity:1"/><stop offset="0" style="stop-color:rgb(181,178,255);stop-opacity:1"/><stop offset="1" style="stop-color:rgb(112,108,255);stop-opacity:1"/></linearGradient>
        <linearGradient id="_Linear47" x1="0" y1="0" x2="1" y2="0" gradientUnits="userSpaceOnUse" gradientTransform="matrix(1,0,0,-1,0,-2.56865e-06)"><stop offset="0" style="stop-color:rgb(181,178,255);stop-opacity:1"/><stop offset="0" style="stop-color:rgb(181,178,255);stop-opacity:1"/><stop offset="1" style="stop-color:rgb(112,108,255);stop-opacity:1"/></linearGradient>
        <linearGradient id="_Linear48" x1="0" y1="0" x2="1" y2="0" gradientUnits="userSpaceOnUse" gradientTransform="matrix(0.726586,-0.687075,-0.687075,-0.726586,0.19991,0.502364)"><stop offset="0" style="stop-color:rgb(181,178,255);stop-opacity:1"/><stop offset="0" style="stop-color:rgb(181,178,255);stop-opacity:1"/><stop offset="1" style="stop-color:rgb(112,108,255);stop-opacity:1"/></linearGradient>
        <linearGradient id="_Linear49" x1="0" y1="0" x2="1" y2="0" gradientUnits="userSpaceOnUse" gradientTransform="matrix(0.726586,-0.687075,-0.687075,-0.726586,0.199913,0.502371)"><stop offset="0" style="stop-color:rgb(181,178,255);stop-opacity:1"/><stop offset="0" style="stop-color:rgb(181,178,255);stop-opacity:1"/><stop offset="1" style="stop-color:rgb(112,108,255);stop-opacity:1"/></linearGradient>
        <linearGradient id="_Linear50" x1="0" y1="0" x2="1" y2="0" gradientUnits="userSpaceOnUse" gradientTransform="matrix(0.726586,-0.687075,-0.687075,-0.726586,0.199912,0.502369)"><stop offset="0" style="stop-color:rgb(181,178,255);stop-opacity:1"/><stop offset="0" style="stop-color:rgb(181,178,255);stop-opacity:1"/><stop offset="1" style="stop-color:rgb(112,108,255);stop-opacity:1"/></linearGradient>
        <linearGradient id="_Linear51" x1="0" y1="0" x2="1" y2="0" gradientUnits="userSpaceOnUse" gradientTransform="matrix(0.726631,-0.687028,-0.687028,-0.726631,0.199878,0.502331)"><stop offset="0" style="stop-color:rgb(181,178,255);stop-opacity:1"/><stop offset="0" style="stop-color:rgb(181,178,255);stop-opacity:1"/><stop offset="1" style="stop-color:rgb(112,108,255);stop-opacity:1"/></linearGradient>
        <linearGradient id="_Linear52" x1="0" y1="0" x2="1" y2="0" gradientUnits="userSpaceOnUse" gradientTransform="matrix(0.726631,-0.687028,-0.687028,-0.726631,0.199876,0.502326)"><stop offset="0" style="stop-color:rgb(181,178,255);stop-opacity:1"/><stop offset="0" style="stop-color:rgb(181,178,255);stop-opacity:1"/><stop offset="1" style="stop-color:rgb(112,108,255);stop-opacity:1"/></linearGradient>
        <linearGradient id="_Linear53" x1="0" y1="0" x2="1" y2="0" gradientUnits="userSpaceOnUse" gradientTransform="matrix(-0.726631,0.687028,0.687028,0.726631,1.26245,-0.50233)"><stop offset="0" style="stop-color:rgb(181,178,255);stop-opacity:1"/><stop offset="0" style="stop-color:rgb(181,178,255);stop-opacity:1"/><stop offset="1" style="stop-color:rgb(112,108,255);stop-opacity:1"/></linearGradient>
        <linearGradient id="_Linear54" x1="0" y1="0" x2="1" y2="0" gradientUnits="userSpaceOnUse" gradientTransform="matrix(0.726586,-0.687075,-0.687075,-0.726586,0.199911,0.502367)"><stop offset="0" style="stop-color:rgb(181,178,255);stop-opacity:1"/><stop offset="0" style="stop-color:rgb(181,178,255);stop-opacity:1"/><stop offset="1" style="stop-color:rgb(112,108,255);stop-opacity:1"/></linearGradient>
        <linearGradient id="_Linear55" x1="0" y1="0" x2="1" y2="0" gradientUnits="userSpaceOnUse" gradientTransform="matrix(0.726631,-0.687028,-0.687028,-0.726631,0.199877,0.502329)"><stop offset="0" style="stop-color:rgb(181,178,255);stop-opacity:1"/><stop offset="0" style="stop-color:rgb(181,178,255);stop-opacity:1"/><stop offset="1" style="stop-color:rgb(112,108,255);stop-opacity:1"/></linearGradient>
        <linearGradient id="_Linear56" x1="0" y1="0" x2="1" y2="0" gradientUnits="userSpaceOnUse" gradientTransform="matrix(0.725847,-0.687856,-0.687856,-0.725847,0.237321,0.595444)"><stop offset="0" style="stop-color:rgb(181,178,255);stop-opacity:1"/><stop offset="0" style="stop-color:rgb(181,178,255);stop-opacity:1"/><stop offset="1" style="stop-color:rgb(112,108,255);stop-opacity:1"/></linearGradient>
        <linearGradient id="_Linear57" x1="0" y1="0" x2="1" y2="0" gradientUnits="userSpaceOnUse" gradientTransform="matrix(0.725799,-0.687907,-0.687907,-0.725799,0.237365,0.595494)"><stop offset="0" style="stop-color:rgb(181,178,255);stop-opacity:1"/><stop offset="0" style="stop-color:rgb(181,178,255);stop-opacity:1"/><stop offset="1" style="stop-color:rgb(112,108,255);stop-opacity:1"/></linearGradient>
        <linearGradient id="_Linear58" x1="0" y1="0" x2="1" y2="0" gradientUnits="userSpaceOnUse" gradientTransform="matrix(0.725847,-0.687856,-0.687856,-0.725847,0.237323,0.595448)"><stop offset="0" style="stop-color:rgb(181,178,255);stop-opacity:1"/><stop offset="0" style="stop-color:rgb(181,178,255);stop-opacity:1"/><stop offset="1" style="stop-color:rgb(112,108,255);stop-opacity:1"/></linearGradient>
        <linearGradient id="_Linear59" x1="0" y1="0" x2="1" y2="0" gradientUnits="userSpaceOnUse" gradientTransform="matrix(0.725799,-0.687907,-0.687907,-0.725799,0.237366,0.595496)"><stop offset="0" style="stop-color:rgb(181,178,255);stop-opacity:1"/><stop offset="0" style="stop-color:rgb(181,178,255);stop-opacity:1"/><stop offset="1" style="stop-color:rgb(112,108,255);stop-opacity:1"/></linearGradient>
        <linearGradient id="_Linear60" x1="0" y1="0" x2="1" y2="0" gradientUnits="userSpaceOnUse" gradientTransform="matrix(0.725847,-0.687856,-0.687856,-0.725847,0.23732,0.59544)"><stop offset="0" style="stop-color:rgb(181,178,255);stop-opacity:1"/><stop offset="0" style="stop-color:rgb(181,178,255);stop-opacity:1"/><stop offset="1" style="stop-color:rgb(112,108,255);stop-opacity:1"/></linearGradient>
        <linearGradient id="_Linear61" x1="0" y1="0" x2="1" y2="0" gradientUnits="userSpaceOnUse" gradientTransform="matrix(0.725847,-0.687856,-0.687856,-0.725847,0.237323,0.595449)"><stop offset="0" style="stop-color:rgb(181,178,255);stop-opacity:1"/><stop offset="0" style="stop-color:rgb(181,178,255);stop-opacity:1"/><stop offset="1" style="stop-color:rgb(112,108,255);stop-opacity:1"/></linearGradient>
        <linearGradient id="_Linear62" x1="0" y1="0" x2="1" y2="0" gradientUnits="userSpaceOnUse" gradientTransform="matrix(-0.725847,0.687856,0.687856,0.725847,1.49399,-0.595446)"><stop offset="0" style="stop-color:rgb(181,178,255);stop-opacity:1"/><stop offset="0" style="stop-color:rgb(181,178,255);stop-opacity:1"/><stop offset="1" style="stop-color:rgb(112,108,255);stop-opacity:1"/></linearGradient>
        <linearGradient id="_Linear63" x1="0" y1="0" x2="1" y2="0" gradientUnits="userSpaceOnUse" gradientTransform="matrix(0.725847,-0.687856,-0.687856,-0.725847,0.237321,0.595445)"><stop offset="0" style="stop-color:rgb(181,178,255);stop-opacity:1"/><stop offset="0" style="stop-color:rgb(181,178,255);stop-opacity:1"/><stop offset="1" style="stop-color:rgb(112,108,255);stop-opacity:1"/></linearGradient>
        <linearGradient id="_Linear64" x1="0" y1="0" x2="1" y2="0" gradientUnits="userSpaceOnUse" gradientTransform="matrix(1,0,0,-1,0,-1.32265e-06)"><stop offset="0" style="stop-color:rgb(181,178,255);stop-opacity:1"/><stop offset="0" style="stop-color:rgb(181,178,255);stop-opacity:1"/><stop offset="1" style="stop-color:rgb(206,205,255);stop-opacity:1"/></linearGradient>
    </defs>
</svg>
