<?xml version="1.0" encoding="utf-8"?>
<!-- Generator: Adobe Illustrator 27.0.0, SVG Export Plug-In . SVG Version: 6.00 Build 0)  -->
<svg version="1.1" id="Layer_1" xmlns="http://www.w3.org/2000/svg" xmlns:xlink="http://www.w3.org/1999/xlink" x="0px" y="0px"
	 viewBox="0 0 296 296" style="enable-background:new 0 0 296 296;" xml:space="preserve">
<style type="text/css">
	.st0{fill:#706CFF;}
	.st1{fill:#FFFFFF;}
	.st2{fill:url(#SVGID_1_);}
	.st3{fill:url(#SVGID_00000065055384012433432750000017021224359402161810_);}
	.st4{fill:url(#SVGID_00000121255227876488269310000007796946264859881379_);}
	.st5{fill:url(#SVGID_00000140730260932218255570000016117718152806332583_);}
	.st6{fill:url(#SVGID_00000089569746583289953680000009610722209568543165_);}
	.st7{fill:url(#SVGID_00000026138929580832132970000008533778354136820125_);}
	.st8{fill:url(#SVGID_00000180333324508872176080000008247906089194877367_);}
	.st9{fill:url(#SVGID_00000029025928519825358760000011304049722067657405_);}
	.st10{fill:url(#SVGID_00000116210448994652866710000008609975022523132086_);}
	.st11{fill:url(#SVGID_00000039853321562115031720000000023528262239758721_);}
	.st12{fill:url(#SVGID_00000003802264037841594960000003670756802535207571_);}
	.st13{fill:url(#SVGID_00000156551194238204977560000010058497933342636731_);}
	.st14{fill:url(#SVGID_00000126312716272584622770000005378933310731064489_);}
	.st15{fill:url(#SVGID_00000028307357763852714140000005950769451891713702_);}
	.st16{fill:url(#SVGID_00000170980209473107481250000006749028446575255975_);}
	.st17{fill:url(#SVGID_00000060747991907754191160000002848596671928683678_);}
	.st18{fill:url(#SVGID_00000005972667659539970990000017784261657679938204_);}
	.st19{fill:url(#SVGID_00000030487965809770750880000015609636603216700603_);}
	.st20{fill:url(#SVGID_00000011749532068632880420000008907767844480000188_);}
	.st21{fill:url(#SVGID_00000062184390433006488240000011902570435737892484_);}
	.st22{fill:url(#SVGID_00000155143560871761879900000011534720825811360898_);}
	.st23{fill:url(#SVGID_00000129173900415972536080000013802152183580060070_);}
	.st24{fill:url(#SVGID_00000083785243530623946440000008194964614870655874_);}
	.st25{fill:url(#SVGID_00000031890042116085062690000017459092193165344445_);}
	.st26{fill:url(#SVGID_00000080892498659296097580000008815199592040050605_);}
	.st27{fill:url(#SVGID_00000057114040401971772510000016126793927046529726_);}
	.st28{fill:url(#SVGID_00000140006251774937946330000005589173372453305218_);}
	.st29{fill:url(#SVGID_00000183935055936329070910000012852706301688364971_);}
	.st30{fill:url(#SVGID_00000097488649463749836020000010982047156696194695_);}
	.st31{fill:url(#SVGID_00000169535301293397713960000005987319910942838956_);}
	.st32{fill:url(#SVGID_00000112610689923968425580000014342890180952601276_);}
	.st33{fill:url(#SVGID_00000024696072562285153990000008562558525053155485_);}
	.st34{fill:url(#SVGID_00000052808347066833391250000004779970006707172769_);}
	.st35{fill:url(#SVGID_00000137130572511119473160000000849684409605946774_);}
	.st36{fill:url(#SVGID_00000137845298890582417350000012962803341235207858_);}
	.st37{fill:url(#SVGID_00000012441490507480469240000009733002030474261395_);}
	.st38{fill:url(#SVGID_00000183937836798996334230000015855282509438574243_);}
	.st39{fill:url(#SVGID_00000016763770524092923330000007322173432041480356_);}
	.st40{fill:url(#SVGID_00000060740316480166563840000000605322925554061458_);}
	.st41{fill:url(#SVGID_00000109015806766802440080000004412864813443434938_);}
	.st42{fill:url(#SVGID_00000169518895321066944490000005045371663719987877_);}
	.st43{fill:url(#SVGID_00000061453080586931404520000007129704800747061683_);}
	.st44{fill:url(#SVGID_00000027567279322097746470000008985135120504257168_);}
	.st45{fill:url(#SVGID_00000176036798807193302180000017596701445254611124_);}
	.st46{fill:url(#SVGID_00000047761487887970198430000002016544999839221390_);}
	.st47{fill:url(#SVGID_00000157280554218889774450000009247757797195125638_);}
	.st48{fill:url(#SVGID_00000116233384817935200800000004020930373028164757_);}
	.st49{fill:url(#SVGID_00000183970699474558135710000008523146201559330482_);}
	.st50{fill:#FFFEFF;}
	.st51{fill:#FEFEFE;}
</style>
<g>
	<rect class="st0" width="296" height="296"/>
	<path class="st1" d="M44,52.1c0.1,1.6-1.9,2.6-3.2,1.8c-1.5-0.8-1.3-3.3,0.2-3.8C42.4,49.5,44.2,50.6,44,52.1z"/>
	<path class="st1" d="M71.1,67.6c-2.2,0-4.5,0-6.7,0c0-0.2,0-0.7,0-0.9c1-0.1,1.2-1.1,1.2-2c0-2.1,0-4.2,0-6.3
		c0-0.7-0.3-1.6-1.1-1.8c-1.2-0.2-2.2,0.7-2.7,1.7c-1.1,2.1-1.1,4.6-0.9,6.9c0,0.7,0.5,1.3,1.1,1.4c0,0.3,0,0.7,0,1
		c-3.4-0.1-6.7,0.3-10.1,0.2c-1.3,0-2.8-0.1-3.8-1c-0.9-0.7-1.3-1.9-1.3-3c0-2.3,0-4.7,0-7c-1.1,0-2.2,0-3.3,0c0,2.6,0,5.2,0,7.8
		c0,0.8,0.2,1.8,1.2,2c0,0.3,0,0.6,0,1c-2.2,0-4.4,0-6.6,0c0-0.3,0-0.6,0-1c1.3-0.2,1.2-1.8,1.2-2.8c0-2,0.1-4-0.1-6
		c-0.1-0.8-0.9-1.5-1.8-1.3c-0.7,0.1-1.1,0.7-1.3,1.3c-1.1,3.2-2.2,6.5-3.3,9.7c-1.5,0-2.9,0-4.4,0c-0.6-2.1-1.3-4.3-1.9-6.4
		c-0.8,2.1-1.5,4.2-2.2,6.4c-1.5,0-2.9,0-4.4,0c-1.1-3.1-2.1-6.3-3.2-9.4c-0.4-1.1-1.4-1.9-2.5-2c0-0.3,0-0.7,0-1c2.8,0,5.6,0,8.4,0
		c0,0.3,0,0.7,0,1c-0.7,0-1.9,0.3-1.6,1.3c0.7,2.6,1.7,5.1,2.5,7.7c1.2-3.3,2.2-6.6,3.4-9.9c0.5,0,1,0,1.6,0
		c1.2,3.3,2.3,6.6,3.6,9.9c0.8-2.1,1.5-4.3,2.2-6.4c0.2-0.6,0.4-1.2,0.4-1.8c-0.2-0.7-1-0.6-1.6-0.7c0-0.3,0-0.7,0-1
		c3.1,0,6.2,0,9.3,0c1.7,0,3.5-0.2,4.8-1.4c0.7-0.6,0.9-1.6,0.9-2.5h3c0,1.3,0,2.6,0,3.9c1.4,0,2.8,0,4.2,0c0,0.5,0.1,1.2-0.5,1.5
		c-1.2,0.2-2.4,0.1-3.6,0.1c0,2.1,0,4.1,0,6.2c0.1,1.2,0.4,2.8,1.6,3.3c0.8,0.3,1.8,0.3,2.6,0c1.2-0.6,1.2-2.2,1.3-3.3
		c0-3.2,0-6.4,0-9.6c0-1,0-2.3-1.2-2.6c0-0.3,0-0.6,0-0.9c1.4,0,2.8-0.2,4.1,0.4c0.8,0.3,1.4,1.1,1.3,2c0.1,2.1,0,4.3,0,6.4
		c0.5-0.9,0.7-1.9,1.5-2.6c1.3-1.2,3.3-1.4,4.9-0.8c1.5,0.5,2.4,2,2.6,3.6c0.1,2.2-0.1,4.4,0.2,6.6c0,0.7,0.7,0.9,1.1,1.3
		C71.1,67,71.1,67.4,71.1,67.6z"/>
	<path class="st1" d="M74.1,67.3c-1.7-0.5-1.9-3.2-0.2-3.9c1.3-0.7,3.1,0.3,3,1.8C77.1,66.7,75.5,67.9,74.1,67.3z"/>
	<path class="st1" d="M235.5,225.6c0,0.4,0,0.7,0,1.1c-58.3,0-116.6,0-174.9,0c0-0.4,0-0.7,0-1.1
		C118.9,225.6,177.2,225.6,235.5,225.6z"/>
	<g>
		<linearGradient id="SVGID_1_" gradientUnits="userSpaceOnUse" x1="205.2522" y1="49.6533" x2="205.2522" y2="118.4877">
			<stop  offset="0" style="stop-color:#B5B3FF;stop-opacity:0.3"/>
			<stop  offset="0.5084" style="stop-color:#B5B3FF"/>
			<stop  offset="1" style="stop-color:#CFCDFF;stop-opacity:0.3"/>
		</linearGradient>
		<path class="st2" d="M199.6,50.1c3.7-0.7,7.4-1.5,11.1-2.2c0.1,0.1,0.2,0.3,0.3,0.4c-3.8,0.8-7.5,1.6-11.3,2.3L199.6,50.1z"/>
		
			<linearGradient id="SVGID_00000005249241123921408390000010203486836059973000_" gradientUnits="userSpaceOnUse" x1="218.8742" y1="49.6533" x2="218.8742" y2="118.4877">
			<stop  offset="0" style="stop-color:#B5B3FF;stop-opacity:0.3"/>
			<stop  offset="0.5084" style="stop-color:#B5B3FF"/>
			<stop  offset="1" style="stop-color:#CFCDFF;stop-opacity:0.3"/>
		</linearGradient>
		<path style="fill:url(#SVGID_00000005249241123921408390000010203486836059973000_);" d="M213.3,50.1c3.7-0.9,7.4-1.5,11.1-2.3
			c0,0.1,0.1,0.4,0.1,0.5c-3.8,0.8-7.5,1.6-11.3,2.3L213.3,50.1z"/>
		
			<linearGradient id="SVGID_00000013907099944364402970000010802234509810147202_" gradientUnits="userSpaceOnUse" x1="164.1099" y1="49.6533" x2="164.1099" y2="118.4877">
			<stop  offset="0" style="stop-color:#B5B3FF;stop-opacity:0.3"/>
			<stop  offset="0.5084" style="stop-color:#B5B3FF"/>
			<stop  offset="1" style="stop-color:#CFCDFF;stop-opacity:0.3"/>
		</linearGradient>
		<path style="fill:url(#SVGID_00000013907099944364402970000010802234509810147202_);" d="M158.4,50.1c3.8-0.8,7.5-1.5,11.3-2.3
			c0,0.1,0.1,0.4,0.1,0.5c-3.7,0.7-7.4,1.6-11.1,2.2L158.4,50.1z"/>
		
			<linearGradient id="SVGID_00000152986022441730957370000005520452080528415157_" gradientUnits="userSpaceOnUse" x1="177.7907" y1="49.6533" x2="177.7907" y2="118.4877">
			<stop  offset="0" style="stop-color:#B5B3FF;stop-opacity:0.3"/>
			<stop  offset="0.5084" style="stop-color:#B5B3FF"/>
			<stop  offset="1" style="stop-color:#CFCDFF;stop-opacity:0.3"/>
		</linearGradient>
		<path style="fill:url(#SVGID_00000152986022441730957370000005520452080528415157_);" d="M172.1,50.1c3.8-0.8,7.5-1.6,11.3-2.3
			l0.1,0.5c-3.7,0.7-7.4,1.6-11.1,2.2L172.1,50.1z"/>
		
			<linearGradient id="SVGID_00000039120857086939734720000013558007339210642321_" gradientUnits="userSpaceOnUse" x1="191.5194" y1="49.6533" x2="191.5194" y2="118.4877">
			<stop  offset="0" style="stop-color:#B5B3FF;stop-opacity:0.3"/>
			<stop  offset="0.5084" style="stop-color:#B5B3FF"/>
			<stop  offset="1" style="stop-color:#CFCDFF;stop-opacity:0.3"/>
		</linearGradient>
		<path style="fill:url(#SVGID_00000039120857086939734720000013558007339210642321_);" d="M185.8,50.1c3.7-0.7,7.5-1.6,11.2-2.2
			l0.2,0.4c-3.7,0.7-7.5,1.6-11.2,2.2L185.8,50.1z"/>
		
			<linearGradient id="SVGID_00000113317126621390602510000012272623033144208560_" gradientUnits="userSpaceOnUse" x1="232.5783" y1="49.6533" x2="232.5783" y2="118.4877">
			<stop  offset="0" style="stop-color:#B5B3FF;stop-opacity:0.3"/>
			<stop  offset="0.5084" style="stop-color:#B5B3FF"/>
			<stop  offset="1" style="stop-color:#CFCDFF;stop-opacity:0.3"/>
		</linearGradient>
		<path style="fill:url(#SVGID_00000113317126621390602510000012272623033144208560_);" d="M227,50.1c3.7-0.8,7.3-1.6,11-2.2
			l0.2,0.4c-3.8,0.8-7.6,1.6-11.4,2.3L227,50.1z"/>
		
			<linearGradient id="SVGID_00000065761759042077926000000016578339496683046556_" gradientUnits="userSpaceOnUse" x1="245.7047" y1="49.6533" x2="245.7047" y2="118.4877">
			<stop  offset="0" style="stop-color:#B5B3FF;stop-opacity:0.3"/>
			<stop  offset="0.5084" style="stop-color:#B5B3FF"/>
			<stop  offset="1" style="stop-color:#CFCDFF;stop-opacity:0.3"/>
		</linearGradient>
		<path style="fill:url(#SVGID_00000065761759042077926000000016578339496683046556_);" d="M250.7,48c-3.4,0.6-6.8,1.4-10.2,2.1
			l0.2,0.4c3.4-0.6,6.8-1.4,10.1-2C250.8,48.4,250.8,48.2,250.7,48z"/>
		
			<linearGradient id="SVGID_00000123424011938585125190000002809693284671180960_" gradientUnits="userSpaceOnUse" x1="259.9837" y1="49.6533" x2="259.9837" y2="118.4884">
			<stop  offset="0" style="stop-color:#B5B3FF;stop-opacity:0.3"/>
			<stop  offset="0.5084" style="stop-color:#B5B3FF"/>
			<stop  offset="1" style="stop-color:#CFCDFF;stop-opacity:0.3"/>
		</linearGradient>
		<path style="fill:url(#SVGID_00000123424011938585125190000002809693284671180960_);" d="M254.4,50.1c3.7-0.8,7.3-1.6,11-2.2
			l0.2,0.4c-3.8,0.8-7.5,1.5-11.3,2.3C254.4,50.5,254.4,50.2,254.4,50.1z"/>
		
			<linearGradient id="SVGID_00000093159623661393626350000005657237272964259980_" gradientUnits="userSpaceOnUse" x1="273.5988" y1="49.6533" x2="273.5988" y2="118.4877">
			<stop  offset="0" style="stop-color:#B5B3FF;stop-opacity:0.3"/>
			<stop  offset="0.5084" style="stop-color:#B5B3FF"/>
			<stop  offset="1" style="stop-color:#CFCDFF;stop-opacity:0.3"/>
		</linearGradient>
		<path style="fill:url(#SVGID_00000093159623661393626350000005657237272964259980_);" d="M268,50.1c3.7-0.8,7.5-1.5,11.2-2.3
			l0.1,0.5c-3.7,0.8-7.4,1.5-11.2,2.3C268,50.5,268,50.2,268,50.1z"/>
		
			<linearGradient id="SVGID_00000105427738926054928520000000711912583438843320_" gradientUnits="userSpaceOnUse" x1="205.2126" y1="49.6533" x2="205.2126" y2="118.4877">
			<stop  offset="0" style="stop-color:#B5B3FF;stop-opacity:0.3"/>
			<stop  offset="0.5084" style="stop-color:#B5B3FF"/>
			<stop  offset="1" style="stop-color:#CFCDFF;stop-opacity:0.3"/>
		</linearGradient>
		<path style="fill:url(#SVGID_00000105427738926054928520000000711912583438843320_);" d="M200.1,57.6c3.4-0.3,6.9-0.6,10.3-0.9
			c0,0.1-0.1,0.4-0.2,0.5c-3.4,0.4-6.9,0.6-10.3,0.9C200,58,200.1,57.7,200.1,57.6z"/>
		
			<linearGradient id="SVGID_00000070077185377826088380000004673152224010287011_" gradientUnits="userSpaceOnUse" x1="218.8879" y1="49.6533" x2="218.8879" y2="118.4877">
			<stop  offset="0" style="stop-color:#B5B3FF;stop-opacity:0.3"/>
			<stop  offset="0.5084" style="stop-color:#B5B3FF"/>
			<stop  offset="1" style="stop-color:#CFCDFF;stop-opacity:0.3"/>
		</linearGradient>
		<path style="fill:url(#SVGID_00000070077185377826088380000004673152224010287011_);" d="M213.8,57.6c3.4-0.4,6.9-0.6,10.3-0.9
			c0,0.1-0.1,0.4-0.2,0.5c-3.4,0.4-6.9,0.6-10.3,0.9C213.7,57.9,213.8,57.7,213.8,57.6z"/>
		
			<linearGradient id="SVGID_00000024716836541468882780000013381986182180791942_" gradientUnits="userSpaceOnUse" x1="259.9372" y1="49.6533" x2="259.9372" y2="118.4877">
			<stop  offset="0" style="stop-color:#B5B3FF;stop-opacity:0.3"/>
			<stop  offset="0.5084" style="stop-color:#B5B3FF"/>
			<stop  offset="1" style="stop-color:#CFCDFF;stop-opacity:0.3"/>
		</linearGradient>
		<path style="fill:url(#SVGID_00000024716836541468882780000013381986182180791942_);" d="M254.8,57.6c3.4-0.4,6.9-0.6,10.3-0.9
			c0,0.1-0.1,0.4-0.2,0.5c-3.4,0.4-6.9,0.6-10.3,0.9C254.7,57.9,254.8,57.7,254.8,57.6z"/>
		
			<linearGradient id="SVGID_00000067920177396003265250000010044042341624480675_" gradientUnits="userSpaceOnUse" x1="205.2522" y1="49.6533" x2="205.2522" y2="118.4877">
			<stop  offset="0" style="stop-color:#B5B3FF;stop-opacity:0.3"/>
			<stop  offset="0.5084" style="stop-color:#B5B3FF"/>
			<stop  offset="1" style="stop-color:#CFCDFF;stop-opacity:0.3"/>
		</linearGradient>
		<path style="fill:url(#SVGID_00000067920177396003265250000010044042341624480675_);" d="M200.8,72.6c2.5,0.4,5,1.1,7.6,1.6
			c0.5,0.1,1.2,0.1,1.3,0.7c-3-0.4-5.9-1.2-8.8-1.8C200.9,73,200.8,72.7,200.8,72.6z"/>
		
			<linearGradient id="SVGID_00000111162776310374171480000009084546454761088937_" gradientUnits="userSpaceOnUse" x1="218.9372" y1="49.6533" x2="218.9372" y2="118.4877">
			<stop  offset="0" style="stop-color:#B5B3FF;stop-opacity:0.3"/>
			<stop  offset="0.5084" style="stop-color:#B5B3FF"/>
			<stop  offset="1" style="stop-color:#CFCDFF;stop-opacity:0.3"/>
		</linearGradient>
		<path style="fill:url(#SVGID_00000111162776310374171480000009084546454761088937_);" d="M214.5,72.6c2.5,0.4,5.1,1.1,7.6,1.6
			c0.5,0.1,1.2,0.1,1.4,0.7c-1.4-0.1-2.7-0.5-4.1-0.7c-1.6-0.4-3.2-0.6-4.7-1C214.6,73,214.5,72.7,214.5,72.6z"/>
		
			<linearGradient id="SVGID_00000050625635079396332390000015072514316015447204_" gradientUnits="userSpaceOnUse" x1="232.6235" y1="49.6533" x2="232.6235" y2="118.4877">
			<stop  offset="0" style="stop-color:#B5B3FF;stop-opacity:0.3"/>
			<stop  offset="0.5084" style="stop-color:#B5B3FF"/>
			<stop  offset="1" style="stop-color:#CFCDFF;stop-opacity:0.3"/>
		</linearGradient>
		<path style="fill:url(#SVGID_00000050625635079396332390000015072514316015447204_);" d="M228.1,72.6c2.5,0.4,5,1.1,7.6,1.6
			c0.5,0.1,1.2,0.1,1.4,0.7c-3-0.4-5.9-1.2-8.8-1.8C228.3,73,228.2,72.7,228.1,72.6z"/>
		
			<linearGradient id="SVGID_00000170257037184778940340000001247125771700564868_" gradientUnits="userSpaceOnUse" x1="246.0265" y1="49.6533" x2="246.0265" y2="118.4877">
			<stop  offset="0" style="stop-color:#B5B3FF;stop-opacity:0.3"/>
			<stop  offset="0.5084" style="stop-color:#B5B3FF"/>
			<stop  offset="1" style="stop-color:#CFCDFF;stop-opacity:0.3"/>
		</linearGradient>
		<path style="fill:url(#SVGID_00000170257037184778940340000001247125771700564868_);" d="M250.1,74.7c0-0.1,0.1-0.3,0.1-0.4
			c-0.3-0.1-0.6-0.1-0.8-0.2c-2.5-0.5-5-1.1-7.6-1.6c0,0.1,0.1,0.4,0.2,0.5c1.5,0.4,3,0.6,4.5,1C247.7,74.3,248.9,74.7,250.1,74.7
			C250.1,74.8,250.1,74.8,250.1,74.7z"/>
		
			<linearGradient id="SVGID_00000044172759407018886360000009574704336003921286_" gradientUnits="userSpaceOnUse" x1="259.9413" y1="49.6533" x2="259.9413" y2="118.4877">
			<stop  offset="0" style="stop-color:#B5B3FF;stop-opacity:0.3"/>
			<stop  offset="0.5084" style="stop-color:#B5B3FF"/>
			<stop  offset="1" style="stop-color:#CFCDFF;stop-opacity:0.3"/>
		</linearGradient>
		<path style="fill:url(#SVGID_00000044172759407018886360000009574704336003921286_);" d="M255.5,72.6c2.9,0.5,5.8,1.2,8.7,1.8
			c0.1,0.1,0.2,0.4,0.2,0.5c-2.9-0.5-5.9-1.1-8.8-1.8C255.6,73,255.5,72.7,255.5,72.6z"/>
		
			<linearGradient id="SVGID_00000059284487749504529130000004948993617679980929_" gradientUnits="userSpaceOnUse" x1="273.9479" y1="49.6533" x2="273.9479" y2="118.4877">
			<stop  offset="0" style="stop-color:#B5B3FF;stop-opacity:0.3"/>
			<stop  offset="0.5084" style="stop-color:#B5B3FF"/>
			<stop  offset="1" style="stop-color:#CFCDFF;stop-opacity:0.3"/>
		</linearGradient>
		<path style="fill:url(#SVGID_00000059284487749504529130000004948993617679980929_);" d="M277.9,74.4c-2.7-0.6-5.3-1.2-8-1.7
			c0,0.2,0,0.3-0.1,0.5c0.3,0.1,0.6,0.1,0.8,0.2c2.5,0.5,5,1.2,7.5,1.5C278.1,74.8,277.9,74.5,277.9,74.4z"/>
		
			<linearGradient id="SVGID_00000054241456512146778790000012983841903986991272_" gradientUnits="userSpaceOnUse" x1="218.8502" y1="49.6533" x2="218.8502" y2="118.4877">
			<stop  offset="0" style="stop-color:#B5B3FF;stop-opacity:0.3"/>
			<stop  offset="0.5084" style="stop-color:#B5B3FF"/>
			<stop  offset="1" style="stop-color:#CFCDFF;stop-opacity:0.3"/>
		</linearGradient>
		<path style="fill:url(#SVGID_00000054241456512146778790000012983841903986991272_);" d="M215.1,80.7c-0.4,0-0.3-0.7,0.1-0.5
			c2.5,1,5.1,2.1,7.6,3.1c0,0.1,0,0.4,0,0.5C220.2,82.8,217.7,81.7,215.1,80.7z"/>
		
			<linearGradient id="SVGID_00000087391670708201611810000010909111912539723958_" gradientUnits="userSpaceOnUse" x1="246.4233" y1="49.6533" x2="246.4233" y2="118.4877">
			<stop  offset="0" style="stop-color:#B5B3FF;stop-opacity:0.3"/>
			<stop  offset="0.5084" style="stop-color:#B5B3FF"/>
			<stop  offset="1" style="stop-color:#CFCDFF;stop-opacity:0.3"/>
		</linearGradient>
		<path style="fill:url(#SVGID_00000087391670708201611810000010909111912539723958_);" d="M242.7,80.2c0,0.2-0.1,0.3-0.2,0.5
			c2.5,1,5,2.1,7.5,3.1c0-0.1,0.1-0.4,0.2-0.5C247.8,82.3,245.3,81.2,242.7,80.2z"/>
		
			<linearGradient id="SVGID_00000030466483352121756600000018086983816894101415_" gradientUnits="userSpaceOnUse" x1="260.0313" y1="49.6533" x2="260.0313" y2="118.4877">
			<stop  offset="0" style="stop-color:#B5B3FF;stop-opacity:0.3"/>
			<stop  offset="0.5084" style="stop-color:#B5B3FF"/>
			<stop  offset="1" style="stop-color:#CFCDFF;stop-opacity:0.3"/>
		</linearGradient>
		<path style="fill:url(#SVGID_00000030466483352121756600000018086983816894101415_);" d="M263.2,83c-2.3-0.9-4.6-1.9-6.9-2.8
			c-0.1,0.2-0.1,0.3-0.2,0.5c0,0,0,0,0.1,0c2.5,1,5,2.1,7.6,3.1C264.3,83.4,263.5,83.1,263.2,83z"/>
		
			<linearGradient id="SVGID_00000002382593690035963020000000507419149350759309_" gradientUnits="userSpaceOnUse" x1="273.7912" y1="49.6533" x2="273.7912" y2="118.4877">
			<stop  offset="0" style="stop-color:#B5B3FF;stop-opacity:0.3"/>
			<stop  offset="0.5084" style="stop-color:#B5B3FF"/>
			<stop  offset="1" style="stop-color:#CFCDFF;stop-opacity:0.3"/>
		</linearGradient>
		<path style="fill:url(#SVGID_00000002382593690035963020000000507419149350759309_);" d="M270,80.7c2.5,1.1,5,2.1,7.5,3.1
			c0-0.1,0-0.4,0-0.5c-2.4-1.1-4.8-2-7.2-3C270.2,80.4,270.1,80.6,270,80.7z"/>
		
			<linearGradient id="SVGID_00000148631979762125733450000004138696423514636421_" gradientUnits="userSpaceOnUse" x1="232.5674" y1="49.6533" x2="232.5674" y2="118.4877">
			<stop  offset="0" style="stop-color:#B5B3FF;stop-opacity:0.3"/>
			<stop  offset="0.5084" style="stop-color:#B5B3FF"/>
			<stop  offset="1" style="stop-color:#CFCDFF;stop-opacity:0.3"/>
		</linearGradient>
		<path style="fill:url(#SVGID_00000148631979762125733450000004138696423514636421_);" d="M228.5,80.6c0-0.1,0.1-0.4,0.2-0.5
			c2.6,1.1,5.3,2.2,7.9,3.2c0,0.1-0.1,0.4-0.2,0.5C233.8,82.7,231.2,81.6,228.5,80.6z"/>
		
			<linearGradient id="SVGID_00000169541300708378375960000011237649795524422533_" gradientUnits="userSpaceOnUse" x1="232.4663" y1="49.6533" x2="232.4663" y2="118.4877">
			<stop  offset="0" style="stop-color:#B5B3FF;stop-opacity:0.3"/>
			<stop  offset="0.5084" style="stop-color:#B5B3FF"/>
			<stop  offset="1" style="stop-color:#CFCDFF;stop-opacity:0.3"/>
		</linearGradient>
		<path style="fill:url(#SVGID_00000169541300708378375960000011237649795524422533_);" d="M228.8,87.9c0.1-0.1,0.4-0.2,0.5-0.2
			c2,1.2,3.8,2.5,5.8,3.7c0.4,0.3,1.1,0.6,1.1,1.2c-1.1-0.5-2.1-1.3-3.2-1.9C231.6,89.8,230.1,88.9,228.8,87.9z"/>
		
			<linearGradient id="SVGID_00000134971381510133937190000004328147470693425074_" gradientUnits="userSpaceOnUse" x1="246.4171" y1="49.6533" x2="246.4171" y2="118.4877">
			<stop  offset="0" style="stop-color:#B5B3FF;stop-opacity:0.3"/>
			<stop  offset="0.5084" style="stop-color:#B5B3FF"/>
			<stop  offset="1" style="stop-color:#CFCDFF;stop-opacity:0.3"/>
		</linearGradient>
		<path style="fill:url(#SVGID_00000134971381510133937190000004328147470693425074_);" d="M243.5,88c-0.1-0.1-0.2-0.1-0.4-0.2
			c0,0-0.1,0.1-0.1,0.1c-0.1,0.1-0.1,0.2-0.2,0.2c0,0,0,0,0,0c2.2,1.6,4.5,3,6.7,4.4c0.1-0.1,0.4-0.2,0.5-0.2
			C247.9,90.8,245.6,89.4,243.5,88z"/>
		
			<linearGradient id="SVGID_00000000923311739482057250000016741895035224157581_" gradientUnits="userSpaceOnUse" x1="259.8299" y1="49.6533" x2="259.8299" y2="118.4877">
			<stop  offset="0" style="stop-color:#B5B3FF;stop-opacity:0.3"/>
			<stop  offset="0.5084" style="stop-color:#B5B3FF"/>
			<stop  offset="1" style="stop-color:#CFCDFF;stop-opacity:0.3"/>
		</linearGradient>
		<path style="fill:url(#SVGID_00000000923311739482057250000016741895035224157581_);" d="M256.1,87.9c0.1-0.1,0.4-0.2,0.5-0.2
			c2,1.2,3.8,2.5,5.8,3.7c0.4,0.3,1.1,0.6,1.1,1.2c-1.2-0.5-2.2-1.3-3.3-2C258.9,89.7,257.4,88.9,256.1,87.9z"/>
		
			<linearGradient id="SVGID_00000024723650761744431020000008473901427725038753_" gradientUnits="userSpaceOnUse" x1="273.7178" y1="49.6533" x2="273.7178" y2="118.4877">
			<stop  offset="0" style="stop-color:#B5B3FF;stop-opacity:0.3"/>
			<stop  offset="0.5084" style="stop-color:#B5B3FF"/>
			<stop  offset="1" style="stop-color:#CFCDFF;stop-opacity:0.3"/>
		</linearGradient>
		<path style="fill:url(#SVGID_00000024723650761744431020000008473901427725038753_);" d="M277.1,92.1c-1.2-0.9-2.5-1.7-3.8-2.5
			c-1-0.6-1.9-1.3-2.9-1.8c-0.1,0.1-0.1,0.3-0.2,0.4c0.6,0.6,1.5,1,2.2,1.5c1.6,1,3.1,2.2,4.8,3C277.2,92.5,277.1,92.3,277.1,92.1z"
			/>
		
			<linearGradient id="SVGID_00000117668992478493114830000017258309484637939858_" gradientUnits="userSpaceOnUse" x1="246.2372" y1="49.6533" x2="246.2372" y2="118.4877">
			<stop  offset="0" style="stop-color:#B5B3FF;stop-opacity:0.3"/>
			<stop  offset="0.5084" style="stop-color:#B5B3FF"/>
			<stop  offset="1" style="stop-color:#CFCDFF;stop-opacity:0.3"/>
		</linearGradient>
		<path style="fill:url(#SVGID_00000117668992478493114830000017258309484637939858_);" d="M243,95.6c0-0.1,0.1-0.4,0.2-0.5
			c2.1,2,4.2,3.9,6.2,6c0,0.1-0.1,0.4-0.1,0.5C247.2,99.6,245.1,97.6,243,95.6z"/>
		
			<linearGradient id="SVGID_00000112608763119274391210000002476174585070544286_" gradientUnits="userSpaceOnUse" x1="259.9304" y1="49.6533" x2="259.9304" y2="118.4877">
			<stop  offset="0" style="stop-color:#B5B3FF;stop-opacity:0.3"/>
			<stop  offset="0.5084" style="stop-color:#B5B3FF"/>
			<stop  offset="1" style="stop-color:#CFCDFF;stop-opacity:0.3"/>
		</linearGradient>
		<path style="fill:url(#SVGID_00000112608763119274391210000002476174585070544286_);" d="M256.7,95.6c0-0.1,0.1-0.4,0.2-0.5
			c2.1,2,4.2,4,6.3,6c0,0.1-0.1,0.4-0.2,0.5C260.9,99.6,258.7,97.6,256.7,95.6z"/>
		
			<linearGradient id="SVGID_00000083081817777259074010000008958826211002470574_" gradientUnits="userSpaceOnUse" x1="273.5975" y1="49.6533" x2="273.5975" y2="118.4877">
			<stop  offset="0" style="stop-color:#B5B3FF;stop-opacity:0.3"/>
			<stop  offset="0.5084" style="stop-color:#B5B3FF"/>
			<stop  offset="1" style="stop-color:#CFCDFF;stop-opacity:0.3"/>
		</linearGradient>
		<path style="fill:url(#SVGID_00000083081817777259074010000008958826211002470574_);" d="M270.4,95.6c0-0.1,0.1-0.4,0.2-0.5
			c2.1,2,4.2,3.9,6.2,6c0,0.1-0.1,0.4-0.1,0.5C274.6,99.6,272.5,97.6,270.4,95.6z"/>
		
			<linearGradient id="SVGID_00000015316206780752352510000016614678056964608151_" gradientUnits="userSpaceOnUse" x1="259.944" y1="49.6533" x2="259.944" y2="118.4877">
			<stop  offset="0" style="stop-color:#B5B3FF;stop-opacity:0.3"/>
			<stop  offset="0.5084" style="stop-color:#B5B3FF"/>
			<stop  offset="1" style="stop-color:#CFCDFF;stop-opacity:0.3"/>
		</linearGradient>
		<path style="fill:url(#SVGID_00000015316206780752352510000016614678056964608151_);" d="M257.8,103.2c-0.1-0.1-0.2-0.2-0.3-0.4
			c-0.1,0.1-0.3,0.2-0.4,0.3c1.7,2.5,3.6,4.9,5.4,7.3c0.1-0.1,0.2-0.3,0.3-0.5C261.2,107.7,259.5,105.4,257.8,103.2z"/>
		
			<linearGradient id="SVGID_00000140707601678549439960000008919243924785366916_" gradientUnits="userSpaceOnUse" x1="273.5468" y1="49.6533" x2="273.5468" y2="118.4877">
			<stop  offset="0" style="stop-color:#B5B3FF;stop-opacity:0.3"/>
			<stop  offset="0.5084" style="stop-color:#B5B3FF"/>
			<stop  offset="1" style="stop-color:#CFCDFF;stop-opacity:0.3"/>
		</linearGradient>
		<path style="fill:url(#SVGID_00000140707601678549439960000008919243924785366916_);" d="M270.6,102.9c0.1,0,0.4-0.1,0.5-0.2
			c1.8,2.4,3.6,4.8,5.3,7.3l-0.3,0.4C274.3,107.9,272.5,105.4,270.6,102.9z"/>
		
			<linearGradient id="SVGID_00000012434259780079567200000012320288671774857649_" gradientUnits="userSpaceOnUse" x1="259.805" y1="49.6533" x2="259.805" y2="118.4877">
			<stop  offset="0" style="stop-color:#B5B3FF;stop-opacity:0.3"/>
			<stop  offset="0.5084" style="stop-color:#B5B3FF"/>
			<stop  offset="1" style="stop-color:#CFCDFF;stop-opacity:0.3"/>
		</linearGradient>
		<path style="fill:url(#SVGID_00000012434259780079567200000012320288671774857649_);" d="M261.8,118.8c0.2-0.1,0.3-0.1,0.5-0.2
			c-0.4-0.8-0.8-1.6-1.2-2.4c-1.1-2-2.1-4-3.1-6l-0.5,0.2c1.3,2.6,2.7,5.2,4.1,7.8C261.6,118.4,261.6,118.6,261.8,118.8z"/>
		
			<linearGradient id="SVGID_00000011721900607769768960000005707022605112709302_" gradientUnits="userSpaceOnUse" x1="273.4819" y1="49.6533" x2="273.4819" y2="118.4877">
			<stop  offset="0" style="stop-color:#B5B3FF;stop-opacity:0.3"/>
			<stop  offset="0.5084" style="stop-color:#B5B3FF"/>
			<stop  offset="1" style="stop-color:#CFCDFF;stop-opacity:0.3"/>
		</linearGradient>
		<path style="fill:url(#SVGID_00000011721900607769768960000005707022605112709302_);" d="M275.5,118.8c0.2-0.1,0.3-0.1,0.5-0.2
			c-0.3-0.7-0.7-1.4-1.1-2.1c-1.1-2.1-2.1-4.2-3.3-6.2l-0.5,0.1c1.3,2.6,2.7,5.1,4,7.7C275.2,118.2,275.3,118.5,275.5,118.8z"/>
		<g>
			
				<linearGradient id="SVGID_00000142884722350440227960000015922102696280598176_" gradientUnits="userSpaceOnUse" x1="177.8509" y1="49.6533" x2="177.8509" y2="118.4877">
				<stop  offset="0" style="stop-color:#B5B3FF;stop-opacity:0.3"/>
				<stop  offset="0.5084" style="stop-color:#B5B3FF"/>
				<stop  offset="1" style="stop-color:#CFCDFF;stop-opacity:0.3"/>
			</linearGradient>
			<path style="fill:url(#SVGID_00000142884722350440227960000015922102696280598176_);" d="M172.8,57.6c3.4-0.4,6.9-0.6,10.3-0.9
				c0,0.7-0.7,0.5-1.2,0.6c-3.1,0.2-6.2,0.6-9.3,0.8C172.6,57.9,172.7,57.7,172.8,57.6z"/>
			
				<linearGradient id="SVGID_00000134249684338012901340000016003577041549337484_" gradientUnits="userSpaceOnUse" x1="273.6166" y1="49.6533" x2="273.6166" y2="118.4877">
				<stop  offset="0" style="stop-color:#B5B3FF;stop-opacity:0.3"/>
				<stop  offset="0.5084" style="stop-color:#B5B3FF"/>
				<stop  offset="1" style="stop-color:#CFCDFF;stop-opacity:0.3"/>
			</linearGradient>
			<path style="fill:url(#SVGID_00000134249684338012901340000016003577041549337484_);" d="M268.5,57.6c3.4-0.3,6.9-0.6,10.3-0.9
				c0,0.1-0.1,0.4-0.2,0.5c-3.4,0.4-6.9,0.6-10.3,0.9C268.4,57.9,268.5,57.7,268.5,57.6z"/>
			
				<linearGradient id="SVGID_00000002350597304175494040000016043884654824034494_" gradientUnits="userSpaceOnUse" x1="191.5235" y1="49.6533" x2="191.5235" y2="118.4877">
				<stop  offset="0" style="stop-color:#B5B3FF;stop-opacity:0.3"/>
				<stop  offset="0.5084" style="stop-color:#B5B3FF"/>
				<stop  offset="1" style="stop-color:#CFCDFF;stop-opacity:0.3"/>
			</linearGradient>
			<path style="fill:url(#SVGID_00000002350597304175494040000016043884654824034494_);" d="M186.7,65.1c3.1,0.2,6.3,0.3,9.4,0.5
				c0,0.1,0.1,0.4,0.2,0.5c-3.2-0.2-6.4-0.3-9.6-0.5L186.7,65.1z"/>
			
				<linearGradient id="SVGID_00000133512141794939950940000011467167266451255485_" gradientUnits="userSpaceOnUse" x1="205.2208" y1="49.6533" x2="205.2208" y2="118.4877">
				<stop  offset="0" style="stop-color:#B5B3FF;stop-opacity:0.3"/>
				<stop  offset="0.5084" style="stop-color:#B5B3FF"/>
				<stop  offset="1" style="stop-color:#CFCDFF;stop-opacity:0.3"/>
			</linearGradient>
			<path style="fill:url(#SVGID_00000133512141794939950940000011467167266451255485_);" d="M200.4,65.1c3.1,0.2,6.3,0.3,9.4,0.5
				c0,0.1,0.1,0.4,0.2,0.5c-3.2-0.2-6.4-0.3-9.6-0.5L200.4,65.1z"/>
			
				<linearGradient id="SVGID_00000115473345191057077180000015175379493107741374_" gradientUnits="userSpaceOnUse" x1="218.892" y1="49.6533" x2="218.892" y2="118.4877">
				<stop  offset="0" style="stop-color:#B5B3FF;stop-opacity:0.3"/>
				<stop  offset="0.5084" style="stop-color:#B5B3FF"/>
				<stop  offset="1" style="stop-color:#CFCDFF;stop-opacity:0.3"/>
			</linearGradient>
			<path style="fill:url(#SVGID_00000115473345191057077180000015175379493107741374_);" d="M214.1,65.1c3.1,0.2,6.3,0.3,9.4,0.5
				c0,0.1,0.1,0.4,0.2,0.5c-3.2-0.2-6.4-0.3-9.6-0.5L214.1,65.1z"/>
			
				<linearGradient id="SVGID_00000152962995204466474690000011653526184629965741_" gradientUnits="userSpaceOnUse" x1="232.5153" y1="49.6533" x2="232.5153" y2="118.4877">
				<stop  offset="0" style="stop-color:#B5B3FF;stop-opacity:0.3"/>
				<stop  offset="0.5084" style="stop-color:#B5B3FF"/>
				<stop  offset="1" style="stop-color:#CFCDFF;stop-opacity:0.3"/>
			</linearGradient>
			<path style="fill:url(#SVGID_00000152962995204466474690000011653526184629965741_);" d="M227.7,65.1c3.2,0.1,6.4,0.3,9.6,0.5
				c0,0.1,0,0.4,0,0.5c-3.1-0.2-6.3-0.2-9.4-0.5L227.7,65.1z"/>
			
				<linearGradient id="SVGID_00000139274063600355249060000000360952890320226959_" gradientUnits="userSpaceOnUse" x1="246.2673" y1="49.6533" x2="246.2673" y2="118.4877">
				<stop  offset="0" style="stop-color:#B5B3FF;stop-opacity:0.3"/>
				<stop  offset="0.5084" style="stop-color:#B5B3FF"/>
				<stop  offset="1" style="stop-color:#CFCDFF;stop-opacity:0.3"/>
			</linearGradient>
			<path style="fill:url(#SVGID_00000139274063600355249060000000360952890320226959_);" d="M241.5,65.1c3.1,0.2,6.3,0.3,9.4,0.5
				c0,0.1,0.1,0.4,0.2,0.5c-3.2-0.2-6.4-0.3-9.6-0.5L241.5,65.1z"/>
			
				<linearGradient id="SVGID_00000013911262667316519790000006491395409445832117_" gradientUnits="userSpaceOnUse" x1="259.9098" y1="49.6533" x2="259.9098" y2="118.4877">
				<stop  offset="0" style="stop-color:#B5B3FF;stop-opacity:0.3"/>
				<stop  offset="0.5084" style="stop-color:#B5B3FF"/>
				<stop  offset="1" style="stop-color:#CFCDFF;stop-opacity:0.3"/>
			</linearGradient>
			<path style="fill:url(#SVGID_00000013911262667316519790000006491395409445832117_);" d="M255.2,65.1c3.2,0.2,6.4,0.3,9.5,0.5
				c0,0.1,0,0.4,0,0.5c-3.2-0.2-6.4-0.3-9.5-0.5L255.2,65.1z"/>
			
				<linearGradient id="SVGID_00000145762295442241476780000005279793563753018286_" gradientUnits="userSpaceOnUse" x1="273.6318" y1="49.6533" x2="273.6318" y2="118.4877">
				<stop  offset="0" style="stop-color:#B5B3FF;stop-opacity:0.3"/>
				<stop  offset="0.5084" style="stop-color:#B5B3FF"/>
				<stop  offset="1" style="stop-color:#CFCDFF;stop-opacity:0.3"/>
			</linearGradient>
			<path style="fill:url(#SVGID_00000145762295442241476780000005279793563753018286_);" d="M268.8,65.1c2.9,0.1,5.8,0.3,8.6,0.4
				c0.4,0.1,1,0,1,0.6c-3.2-0.2-6.4-0.3-9.7-0.5L268.8,65.1z"/>
		</g>
		<g>
			
				<linearGradient id="SVGID_00000080905015745558424890000003238757387127474837_" gradientUnits="userSpaceOnUse" x1="191.4811" y1="49.6533" x2="191.4811" y2="118.4877">
				<stop  offset="0" style="stop-color:#B5B3FF;stop-opacity:0.3"/>
				<stop  offset="0.5084" style="stop-color:#B5B3FF"/>
				<stop  offset="1" style="stop-color:#CFCDFF;stop-opacity:0.3"/>
			</linearGradient>
			<path style="fill:url(#SVGID_00000080905015745558424890000003238757387127474837_);" d="M186.4,57.6c3.4-0.4,6.8-0.6,10.2-0.9
				c0,0.1,0,0.4,0,0.5c-3.5,0.3-6.9,0.6-10.4,0.9C186.3,58,186.4,57.7,186.4,57.6z"/>
			
				<linearGradient id="SVGID_00000005972007030387871140000010436350813629787555_" gradientUnits="userSpaceOnUse" x1="232.5345" y1="49.6533" x2="232.5345" y2="118.4877">
				<stop  offset="0" style="stop-color:#B5B3FF;stop-opacity:0.3"/>
				<stop  offset="0.5084" style="stop-color:#B5B3FF"/>
				<stop  offset="1" style="stop-color:#CFCDFF;stop-opacity:0.3"/>
			</linearGradient>
			<path style="fill:url(#SVGID_00000005972007030387871140000010436350813629787555_);" d="M227.5,57.6c3.4-0.3,6.8-0.6,10.2-0.9
				c0,0.1,0,0.4,0,0.5c-3.5,0.3-6.9,0.6-10.4,0.9C227.4,57.9,227.4,57.7,227.5,57.6z"/>
			
				<linearGradient id="SVGID_00000004520923705646043910000002093166208120232620_" gradientUnits="userSpaceOnUse" x1="246.2687" y1="49.6533" x2="246.2687" y2="118.4877">
				<stop  offset="0" style="stop-color:#B5B3FF;stop-opacity:0.3"/>
				<stop  offset="0.5084" style="stop-color:#B5B3FF"/>
				<stop  offset="1" style="stop-color:#CFCDFF;stop-opacity:0.3"/>
			</linearGradient>
			<path style="fill:url(#SVGID_00000004520923705646043910000002093166208120232620_);" d="M241.6,57.5c3.3-0.2,6.6-0.6,10-0.8
				c-0.1,0.6-0.7,0.5-1.2,0.6c-3.1,0.2-6.2,0.6-9.3,0.8C241,57.7,241.2,57.5,241.6,57.5z"/>
		</g>
		
			<linearGradient id="SVGID_00000107559442176124334180000000833171744981352889_" gradientUnits="userSpaceOnUse" x1="273.4671" y1="49.6533" x2="273.4671" y2="118.4877">
			<stop  offset="0" style="stop-color:#B5B3FF;stop-opacity:0.3"/>
			<stop  offset="0.5084" style="stop-color:#B5B3FF"/>
			<stop  offset="1" style="stop-color:#CFCDFF;stop-opacity:0.3"/>
		</linearGradient>
		<path style="fill:url(#SVGID_00000107559442176124334180000000833171744981352889_);" d="M274.9,127.2c0.2-0.1,0.3-0.2,0.5-0.2
			c0,0,0,0,0,0c-1.2-3.1-2.3-6.2-3.5-9.2c-0.1,0.1-0.3,0.2-0.4,0.3c1,3,2.2,5.9,3.2,8.8C274.8,126.9,274.9,127,274.9,127.2z"/>
	</g>
	<g>
		
			<linearGradient id="SVGID_00000034091642539149780510000001460296362990548922_" gradientUnits="userSpaceOnUse" x1="18.4086" y1="175.9637" x2="277.6669" y2="175.9637">
			<stop  offset="0" style="stop-color:#B5B3FF"/>
			<stop  offset="1" style="stop-color:#CFCDFF"/>
		</linearGradient>
		<path style="fill:url(#SVGID_00000034091642539149780510000001460296362990548922_);" d="M277.2,189.2c-1,2.8-3.9,4.9-6.9,4.9
			c-22.7,0-45.4,0-68.1,0c-2,0-4,0.1-6-0.1c-0.5,0.1-1,0.1-1.4,0.1c-18,0-36.1,0-54.1,0c-14.4,0.1-28.7,0-43.1,0c-0.4,0-0.8,0-1.2,0
			c-8.5,0.1-17.1,0-25.6,0c-1.9,0-3.8,0.1-5.7-0.1c-0.6,0.2-1.3,0.1-2,0.1c-11.8,0-23.5,0-35.3,0c-1.5,0-3,0.1-4.4-0.4
			c-2.9-1-5-3.9-5-6.9c0-7.3,0-14.6,0-21.9c0.1-3.7,3.5-6.9,7.2-6.9c8.3,0,16.6,0,24.9,0c4.2,0,8.5-0.1,12.7,0.1
			c4.2-0.1,8.4-0.1,12.6,0c5.3-0.1,10.7,0,16-0.1c1.3,0,2.6-0.1,3.9,0.1c5.8-0.1,11.6,0,17.4-0.1c4.2,0,8.5-0.1,12.7,0.1
			c4.3-0.1,8.5,0,12.8-0.1c7.5,0,15,0,22.4,0c0.3,0,0.6,0,0.9,0.1c4.4-0.2,8.9,0,13.3-0.1c13.8,0,27.6,0,41.3,0
			c0.8,0,1.5-0.1,2.3,0.1c4-0.1,8,0,12-0.1c13,0,26.1,0,39.1,0c2.6,0,5.1,1.3,6.5,3.5c0.7,1.2,1.1,2.6,1.1,4c0,6.5,0,13,0,19.4
			C277.7,186.3,277.8,187.8,277.2,189.2z"/>
	</g>
	<path class="st1" d="M131,168.5c-1,3.9-2.2,7.8-3.2,11.7c-0.4,1.3-0.8,2.6-1.1,3.9c-0.6,0-1.2,0-1.9,0c-1.2-4.3-2.3-8.6-3.5-12.9
		c-1.1,4.3-2.3,8.6-3.5,12.9c-0.6,0-1.2,0-1.8,0c-1.5-5.2-2.9-10.4-4.4-15.6h1.9c1.2,4.2,2.3,8.5,3.5,12.7c1.2-4.2,2.3-8.5,3.5-12.7
		c0.6,0,1.2,0,1.9,0c1.1,4.3,2.3,8.5,3.5,12.8c1.2-4.2,2.3-8.5,3.5-12.8C129.8,168.5,130.4,168.5,131,168.5z"/>
	<path class="st1" d="M147.9,184.1c-0.6,0-1.2,0-1.7,0c0-2.4,0.1-4.8,0-7.2c0-1.1-0.8-2.3-2-2.3c-1.8-0.3-3.5,1.1-3.6,2.9
		c-0.1,2.2,0,4.4-0.1,6.7c-0.6,0-1.1,0-1.7,0c0-3.6,0-7.2,0-10.9c0.5,0,1,0,1.4,0c0.1,0.4,0.1,0.9,0.2,1.3c1.4-1.6,3.9-2.1,5.8-1.2
		c1.1,0.6,1.7,1.9,1.7,3.2C147.9,179.1,147.9,181.6,147.9,184.1z"/>
	<path class="st1" d="M160.3,184.1c-0.6,0-1.2,0-1.7,0c0-2.4,0.1-4.8,0-7.2c0-1.1-0.8-2.3-2-2.3c-1.8-0.3-3.5,1.1-3.6,2.9
		c-0.1,2.2,0,4.4,0,6.7c-0.6,0-1.2,0-1.7,0c0-3.6,0-7.2,0-10.9c0.5,0,1,0,1.4,0c0.1,0.4,0.2,0.9,0.2,1.3c1.4-1.7,4.1-2.2,5.9-1.1
		c1.1,0.7,1.5,2.1,1.5,3.3C160.3,179.3,160.2,181.7,160.3,184.1z"/>
	<g>
		<path class="st1" d="M173.6,179.1c0-1.6-0.2-3.4-1.3-4.6c-1.3-1.4-3.3-1.8-5.1-1.5c-1.3,0.4-2.5,1.2-3.2,2.3
			c-1.5,2.4-1.2,5.8,0.9,7.8c1.9,1.6,4.9,1.7,6.9,0.3c0.7-0.5,1.2-1.3,1.6-2.1c-0.5-0.2-1-0.3-1.5-0.5c-0.8,1.7-2.9,2.6-4.7,1.8
			c-1.5-0.5-2.3-2.1-2.4-3.6C167.7,179.1,170.7,179.1,173.6,179.1z M164.8,177.7c0.2-0.7,0.4-1.5,0.9-2c1.3-1.6,4-1.7,5.4-0.2
			c0.6,0.6,0.8,1.4,1,2.2C169.6,177.8,167.2,177.7,164.8,177.7z"/>
	</g>
	<g>
		<path class="st1" d="M133.9,171.3c-0.9-0.4-0.8-1.8,0-2.3c0.7-0.4,1.8,0.1,1.9,0.9C136,171.1,134.7,171.9,133.9,171.3z"/>
		<path class="st1" d="M135.3,184.1c-0.6,0-1.1,0-1.7,0c-0.1-3.6,0-7.2,0-10.8c0.6,0,1.2,0,1.8,0
			C135.3,176.9,135.3,180.5,135.3,184.1z"/>
	</g>
	<g>
		<path class="st50" d="M178,174.5c0.6-0.6,1.2-1.2,2-1.5c1.1-0.2,2.2-0.1,3.1,0.4c-0.2,0.5-0.5,1-0.7,1.4c-0.8-0.2-1.7-0.5-2.6-0.1
			c-1.1,0.5-1.7,1.8-1.7,2.9c-0.1,2.1,0,4.3,0,6.4c-0.6,0-1.1,0-1.7,0c0-3.6,0-7.2,0-10.8c0.5,0,1,0,1.5,0
			C177.9,173.7,178,174.1,178,174.5z"/>
	</g>
	<g>
		<g>
			<path class="st1" d="M20.1,71.7h0.6v5.1h-0.6V71.7z"/>
			<path class="st1" d="M23.6,76.8v-2.1c0-0.3-0.1-0.5-0.2-0.6c-0.1-0.2-0.3-0.2-0.5-0.2c-0.2,0-0.4,0.1-0.5,0.2
				c-0.1,0.2-0.2,0.4-0.2,0.6v2.1h-0.6v-3.4h0.6v0.3c0.2-0.3,0.5-0.4,0.9-0.4c0.3,0,0.6,0.1,0.8,0.4c0.2,0.2,0.3,0.5,0.3,0.9v2.2
				H23.6z"/>
			<path class="st1" d="M24.7,74v-0.6h0.5v-1h0.6v1h0.8V74h-0.8v2.8h-0.6V74H24.7z"/>
			<path class="st1" d="M30.1,75.3h-2.6c0,0.3,0.2,0.6,0.4,0.8c0.2,0.2,0.5,0.3,0.7,0.3c0.4,0,0.7-0.2,0.9-0.5l0.4,0.3
				c-0.4,0.5-0.8,0.8-1.4,0.8c-0.5,0-0.9-0.2-1.2-0.5c-0.3-0.3-0.5-0.8-0.5-1.3c0-0.5,0.2-0.9,0.5-1.3c0.3-0.3,0.7-0.5,1.1-0.5
				c0.4,0,0.8,0.2,1.1,0.5c0.3,0.3,0.5,0.8,0.5,1.3C30.1,75.2,30.1,75.3,30.1,75.3z M28.5,73.9c-0.2,0-0.4,0.1-0.6,0.2
				c-0.2,0.2-0.3,0.4-0.4,0.6h2c-0.1-0.3-0.2-0.5-0.4-0.6C28.9,74,28.7,73.9,28.5,73.9z"/>
			<path class="st1" d="M31.3,71.4v5.4h-0.6v-5.4H31.3z"/>
			<path class="st1" d="M32.8,71.4v5.4h-0.6v-5.4H32.8z"/>
			<path class="st1" d="M33.7,72.4c-0.1-0.1-0.1-0.2-0.1-0.3c0-0.1,0-0.2,0.1-0.3c0.1-0.1,0.2-0.1,0.3-0.1c0.1,0,0.2,0,0.3,0.1
				c0.1,0.1,0.1,0.2,0.1,0.3c0,0.1,0,0.2-0.1,0.3c-0.1,0.1-0.2,0.1-0.3,0.1C33.9,72.5,33.8,72.5,33.7,72.4z M34.3,73.4v3.4h-0.6
				v-3.4H34.3z"/>
			<path class="st1" d="M42.2,75.3h-2.6c0,0.3,0.2,0.6,0.4,0.8c0.2,0.2,0.5,0.3,0.7,0.3c0.4,0,0.7-0.2,0.9-0.5l0.4,0.3
				c-0.4,0.5-0.8,0.8-1.4,0.8c-0.5,0-0.9-0.2-1.2-0.5c-0.3-0.3-0.5-0.8-0.5-1.3c0-0.5,0.2-0.9,0.5-1.3c0.3-0.3,0.7-0.5,1.1-0.5
				c0.4,0,0.8,0.2,1.1,0.5c0.3,0.3,0.5,0.8,0.5,1.3C42.3,75.2,42.2,75.3,42.2,75.3z M40.6,73.9c-0.2,0-0.4,0.1-0.6,0.2
				c-0.2,0.2-0.3,0.4-0.4,0.6h2c-0.1-0.3-0.2-0.5-0.4-0.6C41.1,74,40.9,73.9,40.6,73.9z"/>
			<path class="st1" d="M44.9,76.8v-2.1c0-0.3-0.1-0.5-0.2-0.6c-0.1-0.2-0.3-0.2-0.5-0.2c-0.2,0-0.4,0.1-0.5,0.2
				c-0.1,0.2-0.2,0.4-0.2,0.6v2.1h-0.6v-3.4h0.6v0.3c0.2-0.3,0.5-0.4,0.9-0.4c0.3,0,0.6,0.1,0.8,0.4c0.2,0.2,0.3,0.5,0.3,0.9v2.2
				H44.9z"/>
			<path class="st1" d="M47.8,73.3c0.4,0,0.8,0.2,1.1,0.5l-0.4,0.4c-0.2-0.2-0.5-0.3-0.8-0.3c-0.3,0-0.6,0.1-0.8,0.4
				c-0.2,0.2-0.3,0.5-0.3,0.9c0,0.3,0.1,0.6,0.3,0.9c0.2,0.2,0.5,0.4,0.8,0.4c0.3,0,0.6-0.1,0.8-0.3l0.4,0.4
				c-0.3,0.3-0.7,0.5-1.1,0.5c-0.5,0-0.8-0.2-1.2-0.5c-0.3-0.3-0.5-0.8-0.5-1.3c0-0.5,0.2-0.9,0.5-1.3
				C46.9,73.5,47.3,73.3,47.8,73.3z"/>
			<path class="st1" d="M52.5,75.3h-2.6c0,0.3,0.2,0.6,0.4,0.8c0.2,0.2,0.5,0.3,0.7,0.3c0.4,0,0.7-0.2,0.9-0.5l0.4,0.3
				c-0.4,0.5-0.8,0.8-1.4,0.8c-0.5,0-0.9-0.2-1.2-0.5c-0.3-0.3-0.5-0.8-0.5-1.3c0-0.5,0.2-0.9,0.5-1.3c0.3-0.3,0.7-0.5,1.1-0.5
				c0.4,0,0.8,0.2,1.1,0.5c0.3,0.3,0.5,0.8,0.5,1.3C52.5,75.2,52.5,75.3,52.5,75.3z M50.9,73.9c-0.2,0-0.4,0.1-0.6,0.2
				c-0.2,0.2-0.3,0.4-0.4,0.6h2c-0.1-0.3-0.2-0.5-0.4-0.6C51.4,74,51.2,73.9,50.9,73.9z"/>
		</g>
		<g>
			<path class="st1" d="M36,73.6c0.6-0.3,1.4-0.2,1.9,0.3c0-0.3,0.2-0.5,0.5-0.5c0,1.3,0.1,2.6-0.1,3.9c-0.4,1.3-2.6,1.2-3-0.1
				c0.1,0,0.4-0.1,0.5-0.1c0.3,0.7,1.1,0.9,1.7,0.5c0.5-0.3,0.4-0.9,0.4-1.4c-0.5,0.5-1.2,0.7-1.8,0.4C34.8,76.2,34.8,74.3,36,73.6z
				 M36.2,74c-0.9,0.5-0.8,2.2,0.3,2.4c0.8,0.2,1.4-0.7,1.2-1.4C37.8,74.2,36.9,73.7,36.2,74z"/>
		</g>
	</g>
	<g>
		<path class="st1" d="M31.5,96.3c0,5.5,0,11,0,16.6c-0.6,0-1.3,0-1.9-0.1c0.1-2.5,0-5,0-7.5l0-0.1c-2.8,0.1-5.6,0-8.5,0
			c0,2.6,0,5.1,0,7.7c-0.6,0-1.2,0-1.9,0c0-5.5,0-11,0-16.6c0.6,0,1.3,0,1.9,0c0,2.4,0,4.8,0,7.2c2.8,0,5.7,0,8.5,0
			c0-2.4,0-4.8,0-7.2C30.2,96.2,30.8,96.2,31.5,96.3z"/>
		<path class="st1" d="M37.1,104c2.4,0,4.8,0,7.2,0v1.7c-2.4,0-4.8,0-7.2,0c0,2.4,0,4.8,0,7.1c-0.6,0-1.3,0-1.9,0c0-5.5,0-11,0-16.5
			c3.4,0,6.7,0,10.1,0c0,0.6,0,1.1,0,1.7c-2.7,0-5.5,0-8.2,0C37.1,100,37.1,102,37.1,104z"/>
		<path class="st1" d="M64.9,96.2c0,5.5,0,11,0,16.6c-0.6,0-1.2,0-1.9,0c0-4.4,0-8.7,0-13.1c-1.8,4.4-3.7,8.7-5.6,13.1
			c-0.5,0-1,0-1.5,0c-1.9-4.3-3.7-8.7-5.5-13c0,4.3-0.1,8.7-0.1,13c-0.6,0-1.2,0-1.8,0c0-5.5,0-11,0-16.6c0.7,0,1.5,0,2.2,0
			c1.6,3.8,3.3,7.7,4.9,11.5c0.4,0.8,0.7,1.7,1.1,2.4c2-4.6,3.9-9.3,5.9-13.9C63.4,96.2,64.2,96.2,64.9,96.2z"/>
		<path class="st1" d="M77.2,111.1c2.7,0,5.4,0,8.2,0c0,0.6,0,1.2,0,1.7c-3.4,0-6.7,0-10.1,0c0-5.5,0-11,0-16.6c3.4,0,6.7,0,10.1,0
			c0,0.6,0,1.1,0,1.7h-0.1c-2.7,0-5.3,0-8,0c0,1.9,0,3.8,0,5.7c2.4,0,4.8,0,7.2,0c0,0.6,0,1.1,0,1.7c-2.4,0-4.8,0-7.2,0
			C77.3,107.2,77.3,109.2,77.2,111.1z"/>
		<path class="st1" d="M108,101.5c-0.3,0.5-0.5,1-0.8,1.5c-0.8-0.3-1.6-0.6-2.4-0.3c-1.3,0.5-2.1,1.9-2.1,3.3c0,2.3,0,4.5,0,6.8
			c-0.6,0-1.2,0-1.9,0c0-3.9,0-7.7,0-11.6h1.6c0.1,0.5,0.1,0.9,0.2,1.4C103.7,100.9,106.2,100.3,108,101.5z"/>
		<g>
			<path class="st1" d="M118.8,102.6c-1.4-1.5-3.7-2-5.7-1.6c-2.5,0.6-4.3,3-4.5,5.5c-0.2,2.3,1,4.8,3,5.9c2.3,1.2,5.4,0.8,7.2-1.1
				C121.1,109,121.1,104.9,118.8,102.6z M116.7,110.9c-1.5,0.9-3.6,0.8-4.9-0.5c-2.2-2.1-1.7-6.4,1.2-7.6c1.6-0.7,3.6-0.2,4.7,1.2
				C119.3,106,119,109.5,116.7,110.9z"/>
		</g>
		<g>
			<path class="st1" d="M146.8,102.8c-1.4-1.9-4.2-2.4-6.3-1.6c-1.9,0.8-3.3,2.7-3.6,4.7c-0.4,2.4,0.5,5.1,2.7,6.4
				c2.8,1.7,7.1,0.7,8.2-2.5c-0.5-0.2-1.1-0.3-1.6-0.5c-0.9,2.2-4,2.9-5.9,1.5c-1.1-0.8-1.5-2-1.7-3.3c3.1,0,6.3,0,9.4,0
				C148,105.9,147.8,104.1,146.8,102.8z M138.6,106c0.2-0.8,0.5-1.7,1.1-2.3c1.4-1.6,4.1-1.7,5.6-0.1c0.6,0.6,0.9,1.5,1.1,2.4
				C143.7,106,141.1,106,138.6,106z"/>
		</g>
		<g>
			<path class="st1" d="M159.5,104.9c0-1.1-0.4-2.2-1.2-2.9c-1.4-1.2-3.4-1.3-5.1-0.9c-1.5,0.4-2.5,1.8-2.9,3.3
				c0.6,0.1,1.1,0.3,1.7,0.4c0.2-0.7,0.4-1.5,1.1-1.9c1-0.6,2.4-0.6,3.5-0.1c0.9,0.5,1.1,1.7,1.1,2.6c-1.2,0.1-2.4,0.3-3.5,0.5
				c-1.3,0.2-2.6,0.6-3.4,1.7c-1.1,1.6-0.6,4,1.1,4.9c1.9,1,4.5,0.7,6-0.8c0.1,0.4,0.1,0.7,0.2,1.1c0.5,0,1,0,1.5,0
				C159.5,110.2,159.5,107.5,159.5,104.9z M157.1,110.4c-1.1,1.3-3.2,1.5-4.5,0.5c-1-0.8-0.8-2.5,0.3-3.1c1.5-0.7,3.2-0.6,4.7-1
				C157.6,108.1,157.9,109.4,157.1,110.4z"/>
		</g>
		<path class="st1" d="M172.2,104.9c0,2.6,0,5.3,0,7.9c-0.6,0-1.2,0-1.8,0c0-2.6,0-5.2,0-7.8c0-1.2-0.9-2.3-2.1-2.4
			c-1.9-0.4-3.7,1.2-3.8,3.1c-0.1,2.4,0,4.7-0.1,7.1c-0.6,0-1.2,0-1.8,0c0-3.9,0-7.7,0-11.6c0.5,0,1.1,0,1.6,0
			c0.1,0.5,0.1,1,0.2,1.5c1.3-1.8,3.9-2.3,5.9-1.4C171.6,101.9,172.2,103.5,172.2,104.9z"/>
		<path class="st1" d="M97.6,112.8c-0.5,0-1,0-1.6,0c-0.1-0.5-0.2-1-0.2-1.5c-1.4,1.7-3.9,2.3-5.9,1.4c-1.3-0.6-1.9-2.1-2-3.5
			c0-2.7,0-5.4,0-8c0.6,0,1.2,0,1.8,0c0,2.4,0,4.8,0,7.3c0,1,0.3,2.3,1.3,2.7c1.1,0.4,2.4,0.3,3.3-0.5c0.9-0.7,1.3-1.9,1.3-3.1
			c0-2.2,0-4.3,0-6.5c0.6,0,1.2,0,1.8,0C97.5,105.1,97.6,108.9,97.6,112.8z"/>
		<g>
			<path class="st1" d="M132.6,102.2c-2.1-2-5.9-1.7-7.6,0.6c0-0.5-0.1-1.1-0.2-1.6c-0.5,0-1.1,0-1.6,0c0,5.5,0,11.1,0,16.6
				c0.6,0,1.2,0,1.8,0c0-2.2,0-4.3,0-6.5c1.2,1.4,3.1,2.2,4.9,1.9c2.1-0.2,3.8-1.9,4.3-3.8C135.1,106.8,134.5,104,132.6,102.2z
				 M131.2,110.7c-1.6,1.3-4.3,0.9-5.4-0.9c-1.4-2.2-0.9-5.7,1.5-6.9c1.6-0.8,3.7-0.2,4.7,1.3C133.3,106.2,133.1,109.2,131.2,110.7z
				"/>
		</g>
	</g>
	<g>
		<path class="st1" d="M67.9,125.4c-0.9-0.5-0.9-1.9,0-2.3c0.8-0.6,2,0.1,2.1,1C70.1,125.1,68.8,126,67.9,125.4z"/>
		<path class="st1" d="M29,137.8c-1.9,1.7-4.8,1.8-7.2,1c-1.9-0.7-3-2.4-3.5-4.3c0.6-0.2,1.2-0.4,1.8-0.6c0.3,1.3,1.1,2.7,2.4,3.2
			c1.6,0.6,3.5,0.5,4.9-0.4c1.5-1,1.6-3.5,0-4.4c-2.2-1.2-5-0.9-7-2.5c-2-1.5-1.9-4.8,0-6.4c1.8-1.5,4.5-1.8,6.7-0.9
			c1.7,0.7,2.6,2.4,3.1,4.1c-0.6,0.2-1.2,0.4-1.8,0.5c-0.4-1.2-1-2.6-2.2-3.1c-1.5-0.6-3.5-0.4-4.7,0.8c-1,1-1,3,0.4,3.8
			c2.1,1.2,4.9,0.9,6.9,2.4C31,132.5,31,136.1,29,137.8z"/>
		<path class="st1" d="M211.3,137.3c0,0.6,0,1.1,0,1.7c-3.6,0-7.1,0-10.7,0c0-0.6,0-1.1,0-1.7c2-1.9,4.1-3.7,6.2-5.5
			c1-0.9,2-1.9,2.4-3.3c0.4-1.2,0.2-2.7-0.7-3.6c-1.5-1.5-4.4-1.3-5.6,0.4c-0.6,0.7-0.7,1.6-0.8,2.4c-0.6-0.2-1.2-0.4-1.7-0.5
			c0.1-1.3,0.6-2.7,1.6-3.6c2.2-2,5.9-2,8,0.1c1.4,1.4,1.7,3.6,1.1,5.5c-0.5,1.6-1.8,2.9-3.1,4c-1.6,1.4-3.1,2.8-4.7,4.2
			C206,137.3,208.6,137.3,211.3,137.3z"/>
		<g>
			<path class="st1" d="M223.6,124c-1.3-1.7-3.7-2.3-5.7-1.7c-1.9,0.5-3.2,2.2-3.8,4c-0.8,2.4-0.8,5.1-0.3,7.5
				c0.4,1.9,1.4,4,3.2,4.9c2.1,1,4.8,0.7,6.4-1.1c1.5-1.7,1.9-4,2.1-6.2C225.6,128.9,225.3,126.1,223.6,124z M221.9,136.6
				c-1.4,1.4-3.9,1.2-5.1-0.4c-1.6-2.2-1.6-5-1.3-7.6c0.3-1.9,1-4,3-4.7c1.3-0.4,2.8,0,3.6,1c1.3,1.6,1.6,3.9,1.6,5.9
				C223.6,132.9,223.3,135.1,221.9,136.6z"/>
		</g>
		<path class="st1" d="M238.7,137.3c0,0.6,0,1.1,0,1.7c-3.5,0-7.1,0-10.7,0c0-0.6,0-1.1,0-1.7c1.8-1.6,3.7-3.3,5.5-4.9
			c1.1-1,2.3-2,2.9-3.4c0.5-1.3,0.5-2.9-0.4-4c-1.4-1.6-4.3-1.5-5.6,0.1c-0.6,0.7-0.8,1.6-0.9,2.5c-0.6-0.2-1.1-0.3-1.7-0.5
			c0.1-1.5,0.7-2.9,1.9-3.8c2.2-1.7,5.6-1.6,7.6,0.3c1.3,1.2,1.7,3.2,1.3,4.9c-0.3,1.8-1.6,3.2-2.9,4.4c-1.7,1.5-3.3,3-5,4.4
			C233.3,137.3,236,137.3,238.7,137.3z"/>
		<g>
			<path class="st1" d="M124.2,122.4c-0.7,0-1.3,0-1.9,0c-2.1,5.5-4.1,11-6.2,16.5c0.7,0,1.3,0.1,2-0.1c0.6-1.4,1-2.8,1.6-4.2
				l0.1-0.3c2.3,0,4.6,0,6.9,0c0,0.1,0.1,0.3,0.2,0.4c0.6,1.4,1,2.8,1.6,4.2c0.7,0,1.3,0,2,0C128.3,133.5,126.3,127.9,124.2,122.4z
				 M120.4,132.7c1-2.5,1.9-5.1,2.9-7.6c1,2.5,1.9,5.1,2.8,7.6C124.2,132.7,122.3,132.7,120.4,132.7z"/>
		</g>
		<g>
			<path class="st1" d="M179.7,122.4c-0.6,0-1.2,0-1.8,0c0,2.2,0,4.3,0,6.5c-1.7-2.2-5.3-2.5-7.4-0.8c-2.9,2.5-2.9,7.6,0.1,10
				c2.1,1.8,5.7,1.4,7.4-0.8c0.1,0.5,0.1,1.1,0.2,1.6c0.5,0,1,0,1.5,0C179.7,133.5,179.7,128,179.7,122.4z M174.8,137.6
				c-2.1,0.6-4.3-1.1-4.6-3.2c-0.5-2.1,0.4-4.7,2.5-5.4c1.9-0.7,4.1,0.4,4.8,2.3C178.5,133.5,177.5,137,174.8,137.6z"/>
		</g>
		<path class="st1" d="M251,137.5c-2.3,2.5-6.8,2.5-9-0.1c-0.7-0.8-1-1.8-1.1-2.8c0.6-0.2,1.1-0.3,1.7-0.5c0.2,1,0.6,2.1,1.5,2.7
			c1.7,1.4,4.5,1.1,5.8-0.7c1.2-1.6,0.8-4.2-0.9-5.3c-1.1-0.7-2.5-0.7-3.7-0.4c-0.3-0.4-0.6-0.8-1-1.2c1.6-1.7,3.2-3.3,4.8-5
			c-2.5,0-5,0-7.6,0c0-0.6,0-1.1,0-1.7c3.3,0,6.6,0,9.9,0c0,0.6,0,1.1,0,1.7c-1.4,1.5-2.8,3-4.2,4.4c1.4,0.1,2.9,0.5,3.9,1.6
			C252.8,132,252.8,135.5,251,137.5z"/>
		<path class="st1" d="M53.6,127.6c-0.2,0.5-0.5,1.1-0.7,1.6c-0.9-0.4-1.9-0.6-2.8-0.1c-1.3,0.6-1.8,2.1-1.8,3.5c0,2.1,0,4.3,0,6.4
			c-0.6,0-1.2,0-1.8,0c0-3.9,0-7.7,0-11.6c0.5,0,1,0,1.6,0c0.1,0.5,0.1,0.9,0.2,1.4C49.4,127,51.9,126.6,53.6,127.6z"/>
		<path class="st1" d="M83.3,135.7c-0.6,1.3-1.4,2.5-2.7,3.1c-2.2,1-5,0.6-6.6-1.2c-1.8-2-2.1-5.1-0.9-7.4c1.3-2.9,5.3-4,8-2.4
			c1.1,0.6,1.8,1.7,2.2,2.8c-0.6,0.2-1.1,0.4-1.7,0.6c-0.3-0.6-0.6-1.3-1.2-1.7c-1.5-1.2-4-0.9-5.2,0.7c-1.4,1.7-1.4,4.5,0,6.2
			c1.2,1.5,3.6,1.8,5.1,0.6c0.6-0.5,0.9-1.2,1.3-1.8C82.2,135.3,82.8,135.5,83.3,135.7z"/>
		<path class="st1" d="M106.8,138.1c-1.5,1.3-3.7,1.4-5.5,0.8c-1.4-0.5-2.3-1.9-2.7-3.2c0.6-0.2,1.1-0.4,1.7-0.5c0.3,1,0.9,2,2,2.3
			c1.1,0.2,2.3,0.2,3.2-0.4c0.8-0.6,0.9-2,0-2.5c-1-0.6-2.3-0.6-3.4-1c-1.1-0.3-2.3-0.9-2.8-2c-0.5-1.2-0.2-2.7,0.8-3.5
			c1.3-1.2,3.2-1.3,4.8-0.9c1.5,0.4,2.5,1.8,2.9,3.2c-0.6,0.2-1.1,0.3-1.7,0.5c-0.3-0.9-0.8-1.8-1.7-2.1c-1.1-0.3-2.5-0.2-3.2,0.7
			c-0.6,0.7-0.4,1.8,0.4,2.1c1.6,0.8,3.6,0.6,5.1,1.7C108.2,134.4,108.2,137,106.8,138.1z"/>
		<g>
			<path class="st1" d="M157.4,130.9c0-1.6-1-3.1-2.5-3.5c-1.4-0.4-3-0.5-4.3,0.1c-1.3,0.5-2.1,1.8-2.3,3.1c0.5,0.1,1.1,0.3,1.6,0.4
				c0.2-0.8,0.5-1.7,1.3-2.1c1.1-0.5,2.5-0.5,3.5,0.2c0.8,0.6,0.9,1.6,0.9,2.5c-1.4,0.2-2.8,0.4-4.1,0.6c-1.1,0.3-2.3,0.7-3,1.7
				c-1,1.6-0.5,4.1,1.3,4.9c1.9,0.9,4.4,0.7,5.9-1c0,0.4,0.1,0.7,0.1,1.1c0.5,0,1,0,1.6,0C157.4,136.3,157.4,133.6,157.4,130.9z
				 M155.1,136.6c-1,1.2-2.9,1.4-4.2,0.8c-1.2-0.6-1.3-2.6-0.1-3.2c1.5-0.8,3.2-0.7,4.9-1C155.6,134.3,155.8,135.6,155.1,136.6z"/>
		</g>
		<path class="st1" d="M167.6,127.6c-0.2,0.5-0.5,1.1-0.7,1.6c-0.8-0.3-1.8-0.6-2.7-0.2c-1.2,0.6-1.9,1.9-1.9,3.2c0,2.2,0,4.5,0,6.7
			c-0.6,0-1.2,0-1.8,0c0-3.9,0-7.7,0-11.6h1.6c0.1,0.5,0.1,0.9,0.2,1.4C163.4,127,165.8,126.6,167.6,127.6z"/>
		<path class="st1" d="M190.6,138.1c-1.5,1.3-3.7,1.4-5.5,0.8c-1.4-0.5-2.3-1.9-2.7-3.2c0.6-0.2,1.1-0.4,1.7-0.5
			c0.4,1,1,2.1,2.1,2.3c1.1,0.2,2.4,0.2,3.2-0.6c0.7-0.6,0.6-1.9-0.2-2.3c-1.4-0.8-3.2-0.6-4.6-1.4c-1.1-0.5-1.8-1.7-1.7-2.9
			c0-1.5,1.3-2.7,2.7-3.1c1.6-0.4,3.4-0.3,4.7,0.8c0.7,0.6,1.1,1.5,1.4,2.4c-0.6,0.2-1.1,0.3-1.7,0.5c-0.3-0.9-0.9-2-1.9-2.2
			c-1.2-0.3-3.2,0-3.4,1.6c-0.1,1,0.9,1.5,1.7,1.7c1.4,0.4,3.1,0.5,4.3,1.5C192,134.6,192,137,190.6,138.1z"/>
		<path class="st1" d="M65.5,127.4c-1.5,3.9-2.9,7.7-4.4,11.6c-0.7,0-1.3,0-2,0c-1.5-3.9-3-7.7-4.5-11.6c0.6,0,1.3,0,1.9,0
			c1.2,3.1,2.3,6.2,3.5,9.4c1.3-3.1,2.3-6.3,3.6-9.4C64.3,127.4,64.9,127.4,65.5,127.4z"/>
		<path class="st1" d="M67.7,139c0-3.9,0-7.7,0-11.6c0.6,0,1.2,0,1.8,0c0,3.9,0,7.7,0,11.6C68.9,139,68.3,139,67.7,139z"/>
		<path class="st1" d="M146.8,127.4c-1.2,3.9-2.4,7.7-3.6,11.6c-0.6,0-1.3,0-1.9,0c-1-3.1-1.9-6.2-2.9-9.2c-0.9,3.1-1.9,6.2-2.8,9.2
			c-0.6,0-1.3,0-1.9,0c-1.2-3.9-2.4-7.7-3.6-11.6c0.6,0,1.3,0,1.9,0c0.9,3,1.8,6,2.6,9.1c1.1-3,1.8-6.1,2.8-9.1c0.7,0,1.3,0,2,0
			c0.9,3.1,1.8,6.1,2.8,9.2c0.9-3.1,1.8-6.1,2.7-9.2C145.5,127.4,146.1,127.4,146.8,127.4z"/>
		<g>
			<path class="st51" d="M34.7,128.4c2.1-1.9,5.7-1.8,7.7,0.3c1.3,1.3,1.6,3.3,1.5,5c-3.1,0-6.3,0-9.4,0c0.1,1.2,0.6,2.5,1.6,3.2
				c1.9,1.5,5,0.8,5.9-1.5c0.5,0.2,1.1,0.3,1.6,0.5c-0.6,1.2-1.5,2.3-2.8,2.8c-2,0.8-4.6,0.5-6.2-1C31.9,135.5,32,130.8,34.7,128.4z
				 M35.8,129.5c-0.8,0.7-1.2,1.6-1.4,2.6c2.6,0,5.2,0,7.7,0c-0.2-0.9-0.4-1.8-1.1-2.4C39.7,128.3,37.3,128.3,35.8,129.5z"/>
		</g>
		<g>
			<path class="st51" d="M87.4,128.6c1.9-1.9,5.3-2.1,7.4-0.3c1.6,1.3,2,3.5,1.9,5.5c-3.1,0-6.3,0-9.4,0c0.2,1.2,0.6,2.3,1.5,3.1
				c1.8,1.6,5.1,1,6.1-1.3c0.5,0.2,1.1,0.4,1.6,0.5c-0.6,1.2-1.4,2.2-2.6,2.8c-2.1,0.9-4.9,0.6-6.6-1
				C84.8,135.3,84.9,130.9,87.4,128.6z M88.5,129.7c-0.7,0.6-1,1.6-1.3,2.5c2.6,0,5.2,0,7.8,0c-0.2-0.9-0.5-1.9-1.3-2.5
				C92.3,128.2,89.9,128.3,88.5,129.7z"/>
		</g>
	</g>
	<g>
		<g>
			<path class="st1" d="M83.1,210.6H79c0.1,0.5,0.3,0.9,0.6,1.2s0.7,0.4,1.1,0.4c0.6,0,1.1-0.3,1.5-0.8l0.7,0.5
				c-0.5,0.8-1.3,1.2-2.1,1.2c-0.7,0-1.4-0.3-1.9-0.8c-0.5-0.5-0.7-1.2-0.7-2c0-0.8,0.2-1.4,0.7-2c0.5-0.5,1.1-0.8,1.8-0.8
				c0.7,0,1.3,0.3,1.8,0.8c0.5,0.5,0.7,1.2,0.7,2C83.1,210.5,83.1,210.6,83.1,210.6z M80.6,208.4c-0.3,0-0.7,0.1-1,0.4
				c-0.3,0.2-0.5,0.6-0.6,1h3.1c-0.1-0.4-0.3-0.7-0.6-1C81.3,208.5,81,208.4,80.6,208.4z"/>
			<path class="st1" d="M85.3,212.2c0.2,0,0.4-0.1,0.5-0.2c0.1-0.1,0.2-0.3,0.2-0.5c0-0.2-0.1-0.4-0.2-0.6c-0.1-0.2-0.4-0.3-0.7-0.5
				c-0.8-0.4-1.2-0.8-1.2-1.5c0-0.4,0.1-0.7,0.4-1c0.3-0.3,0.6-0.4,1-0.4c0.2,0,0.5,0.1,0.7,0.2c0.2,0.1,0.4,0.3,0.5,0.6l-0.6,0.5
				c-0.1-0.3-0.3-0.4-0.6-0.4c-0.1,0-0.3,0-0.4,0.1c-0.1,0.1-0.1,0.2-0.1,0.3c0,0.2,0.1,0.3,0.2,0.4c0.1,0.1,0.3,0.3,0.6,0.4
				c0.9,0.4,1.3,1,1.3,1.7c0,0.5-0.1,0.9-0.4,1.2c-0.3,0.3-0.7,0.5-1.2,0.5c-0.3,0-0.6-0.1-0.9-0.3c-0.3-0.2-0.5-0.5-0.7-0.9
				l0.7-0.5C84.6,212,84.9,212.2,85.3,212.2z"/>
			<path class="st1" d="M87.4,208.5v-0.9h0.8v-1.5h0.9v1.5h1.2v0.9h-1.2v4.4h-0.9v-4.4H87.4z"/>
			<path class="st1" d="M93.4,208.5v-0.9h0.8v-1.5h0.9v1.5h1.2v0.9h-1.2v4.4h-0.9v-4.4H93.4z"/>
			<path class="st1" d="M100,207.7l-0.2,0.9c-0.2-0.1-0.5-0.2-0.7-0.2c-0.3,0-0.6,0.1-0.8,0.4c-0.2,0.3-0.3,0.7-0.3,1.1v3h-0.9v-5.3
				h0.9v0.6c0.4-0.5,0.8-0.7,1.2-0.7C99.5,207.5,99.8,207.6,100,207.7z"/>
			<path class="st1" d="M105.4,210.6h-4.1c0.1,0.5,0.3,0.9,0.6,1.2s0.7,0.4,1.1,0.4c0.6,0,1.1-0.3,1.5-0.8l0.7,0.5
				c-0.5,0.8-1.3,1.2-2.1,1.2c-0.7,0-1.4-0.3-1.9-0.8c-0.5-0.5-0.7-1.2-0.7-2c0-0.8,0.2-1.4,0.7-2c0.5-0.5,1.1-0.8,1.8-0.8
				c0.7,0,1.3,0.3,1.8,0.8c0.5,0.5,0.7,1.2,0.7,2C105.4,210.5,105.4,210.6,105.4,210.6z M102.9,208.4c-0.3,0-0.7,0.1-1,0.4
				c-0.3,0.2-0.5,0.6-0.6,1h3.1c-0.1-0.4-0.3-0.7-0.6-1C103.6,208.5,103.3,208.4,102.9,208.4z"/>
			<path class="st1" d="M110.4,208.4v-0.8h0.9v5.3h-0.9v-0.8c-0.4,0.6-1,0.9-1.8,0.9c-0.7,0-1.3-0.3-1.8-0.8c-0.5-0.5-0.7-1.2-0.7-2
				c0-0.8,0.2-1.4,0.7-2s1.1-0.8,1.8-0.8C109.4,207.5,110,207.8,110.4,208.4z M107.5,209c-0.3,0.4-0.5,0.8-0.5,1.4
				c0,0.5,0.2,1,0.5,1.4c0.3,0.4,0.7,0.6,1.2,0.6c0.5,0,0.9-0.2,1.2-0.6c0.3-0.4,0.5-0.8,0.5-1.4c0-0.5-0.2-1-0.5-1.4
				c-0.3-0.4-0.8-0.6-1.2-0.6C108.2,208.4,107.8,208.6,107.5,209z"/>
			<path class="st1" d="M113.8,212.2c0.2,0,0.4-0.1,0.5-0.2s0.2-0.3,0.2-0.5c0-0.2-0.1-0.4-0.2-0.6c-0.1-0.2-0.4-0.3-0.7-0.5
				c-0.8-0.4-1.2-0.8-1.2-1.5c0-0.4,0.1-0.7,0.4-1c0.3-0.3,0.6-0.4,1-0.4c0.2,0,0.5,0.1,0.7,0.2c0.2,0.1,0.4,0.3,0.5,0.6l-0.6,0.5
				c-0.1-0.3-0.3-0.4-0.6-0.4c-0.1,0-0.3,0-0.4,0.1c-0.1,0.1-0.1,0.2-0.1,0.3c0,0.2,0.1,0.3,0.2,0.4c0.1,0.1,0.3,0.3,0.6,0.4
				c0.9,0.4,1.3,1,1.3,1.7c0,0.5-0.1,0.9-0.4,1.2c-0.3,0.3-0.7,0.5-1.2,0.5c-0.3,0-0.6-0.1-0.9-0.3c-0.3-0.2-0.5-0.5-0.7-0.9
				l0.7-0.5C113.1,212,113.4,212.2,113.8,212.2z"/>
			<path class="st1" d="M117.3,207.7v3.2c0,0.4,0.1,0.7,0.3,1c0.2,0.2,0.5,0.4,0.8,0.4c0.3,0,0.6-0.1,0.8-0.4
				c0.2-0.2,0.3-0.5,0.3-0.9v-3.3h0.9v5.3h-0.9v-0.5c-0.4,0.4-0.8,0.6-1.3,0.6c-0.5,0-0.9-0.2-1.3-0.5c-0.4-0.4-0.5-0.8-0.5-1.4
				v-3.4H117.3z"/>
			<path class="st1" d="M124.7,207.7l-0.2,0.9c-0.2-0.1-0.5-0.2-0.7-0.2c-0.3,0-0.6,0.1-0.8,0.4c-0.2,0.3-0.3,0.7-0.3,1.1v3h-0.9
				v-5.3h0.9v0.6c0.4-0.5,0.8-0.7,1.2-0.7C124.2,207.5,124.5,207.6,124.7,207.7z"/>
			<path class="st1" d="M136.3,213v-3.2c0-0.4-0.1-0.7-0.3-1c-0.2-0.2-0.5-0.4-0.8-0.4c-0.3,0-0.6,0.1-0.8,0.4
				c-0.2,0.2-0.3,0.6-0.3,0.9v3.3h-0.9v-5.3h0.9v0.5c0.4-0.4,0.8-0.6,1.3-0.6c0.7,0,1.2,0.3,1.5,0.9c0.4-0.6,1-0.9,1.6-0.9
				c0.5,0,0.9,0.2,1.3,0.5c0.3,0.4,0.5,0.9,0.5,1.5v3.4h-0.9v-3.2c0-0.4-0.1-0.7-0.3-1c-0.2-0.2-0.5-0.4-0.8-0.4
				c-0.3,0-0.6,0.1-0.8,0.4c-0.2,0.2-0.3,0.5-0.3,0.9v3.3H136.3z"/>
			<path class="st1" d="M145.6,208.4v-0.8h0.9v5.3h-0.9v-0.8c-0.4,0.6-1,0.9-1.8,0.9c-0.7,0-1.3-0.3-1.8-0.8c-0.5-0.5-0.7-1.2-0.7-2
				c0-0.8,0.2-1.4,0.7-2c0.5-0.5,1.1-0.8,1.8-0.8C144.6,207.5,145.2,207.8,145.6,208.4z M142.6,209c-0.3,0.4-0.5,0.8-0.5,1.4
				c0,0.5,0.2,1,0.5,1.4c0.3,0.4,0.7,0.6,1.2,0.6c0.5,0,0.9-0.2,1.2-0.6c0.3-0.4,0.5-0.8,0.5-1.4c0-0.5-0.2-1-0.5-1.4
				c-0.3-0.4-0.8-0.6-1.2-0.6C143.4,208.4,143,208.6,142.6,209z"/>
			<path class="st1" d="M150.9,213v-3.2c0-0.4-0.1-0.7-0.3-1c-0.2-0.2-0.5-0.4-0.8-0.4c-0.3,0-0.6,0.1-0.8,0.4
				c-0.2,0.2-0.3,0.6-0.3,0.9v3.3h-0.9v-5.3h0.9v0.5c0.4-0.4,0.8-0.6,1.3-0.6c0.5,0,0.9,0.2,1.3,0.5c0.4,0.4,0.5,0.8,0.5,1.4v3.4
				H150.9z"/>
			<path class="st1" d="M157.2,208.4v-0.8h0.9v5.3h-0.9v-0.8c-0.4,0.6-1,0.9-1.8,0.9c-0.7,0-1.3-0.3-1.8-0.8c-0.5-0.5-0.7-1.2-0.7-2
				c0-0.8,0.2-1.4,0.7-2c0.5-0.5,1.1-0.8,1.8-0.8C156.1,207.5,156.7,207.8,157.2,208.4z M154.2,209c-0.3,0.4-0.5,0.8-0.5,1.4
				c0,0.5,0.2,1,0.5,1.4c0.3,0.4,0.7,0.6,1.2,0.6c0.5,0,0.9-0.2,1.2-0.6c0.3-0.4,0.5-0.8,0.5-1.4c0-0.5-0.2-1-0.5-1.4
				c-0.3-0.4-0.8-0.6-1.2-0.6C154.9,208.4,154.5,208.6,154.2,209z"/>
			<path class="st1" d="M170.3,210.6h-4.1c0.1,0.5,0.3,0.9,0.6,1.2s0.7,0.4,1.1,0.4c0.6,0,1.1-0.3,1.5-0.8l0.7,0.5
				c-0.5,0.8-1.3,1.2-2.1,1.2c-0.7,0-1.4-0.3-1.9-0.8c-0.5-0.5-0.7-1.2-0.7-2c0-0.8,0.2-1.4,0.7-2c0.5-0.5,1.1-0.8,1.8-0.8
				c0.7,0,1.3,0.3,1.8,0.8c0.5,0.5,0.7,1.2,0.7,2C170.3,210.5,170.3,210.6,170.3,210.6z M167.8,208.4c-0.3,0-0.7,0.1-1,0.4
				c-0.3,0.2-0.5,0.6-0.6,1h3.1c-0.1-0.4-0.3-0.7-0.6-1C168.5,208.5,168.2,208.4,167.8,208.4z"/>
			<path class="st1" d="M174.5,213v-3.2c0-0.4-0.1-0.7-0.3-1c-0.2-0.2-0.5-0.4-0.8-0.4c-0.3,0-0.6,0.1-0.8,0.4
				c-0.2,0.2-0.3,0.6-0.3,0.9v3.3h-0.9v-5.3h0.9v0.5c0.4-0.4,0.8-0.6,1.3-0.6c0.7,0,1.2,0.3,1.5,0.9c0.4-0.6,1-0.9,1.6-0.9
				c0.5,0,0.9,0.2,1.3,0.5c0.3,0.4,0.5,0.9,0.5,1.5v3.4h-0.9v-3.2c0-0.4-0.1-0.7-0.3-1c-0.2-0.2-0.5-0.4-0.8-0.4
				c-0.3,0-0.6,0.1-0.8,0.4c-0.2,0.2-0.3,0.5-0.3,0.9v3.3H174.5z"/>
			<path class="st1" d="M184.5,210.6h-4.1c0.1,0.5,0.3,0.9,0.6,1.2s0.7,0.4,1.1,0.4c0.6,0,1.1-0.3,1.5-0.8l0.7,0.5
				c-0.5,0.8-1.3,1.2-2.1,1.2c-0.7,0-1.4-0.3-1.9-0.8c-0.5-0.5-0.7-1.2-0.7-2c0-0.8,0.2-1.4,0.7-2c0.5-0.5,1.1-0.8,1.8-0.8
				c0.7,0,1.3,0.3,1.8,0.8c0.5,0.5,0.7,1.2,0.7,2C184.5,210.5,184.5,210.6,184.5,210.6z M182,208.4c-0.3,0-0.7,0.1-1,0.4
				c-0.3,0.2-0.5,0.6-0.6,1h3.1c-0.1-0.4-0.3-0.7-0.6-1C182.7,208.5,182.4,208.4,182,208.4z"/>
			<path class="st1" d="M188.6,213v-3.2c0-0.4-0.1-0.7-0.3-1c-0.2-0.2-0.5-0.4-0.8-0.4c-0.3,0-0.6,0.1-0.8,0.4
				c-0.2,0.2-0.3,0.6-0.3,0.9v3.3h-0.9v-5.3h0.9v0.5c0.4-0.4,0.8-0.6,1.3-0.6c0.5,0,0.9,0.2,1.3,0.5c0.4,0.4,0.5,0.8,0.5,1.4v3.4
				H188.6z"/>
			<path class="st1" d="M190.3,208.5v-0.9h0.8v-1.5h0.9v1.5h1.2v0.9h-1.2v4.4h-0.9v-4.4H190.3z"/>
			<path class="st1" d="M198,212.2c0.2,0,0.4-0.1,0.5-0.2c0.1-0.1,0.2-0.3,0.2-0.5c0-0.2-0.1-0.4-0.2-0.6c-0.1-0.2-0.4-0.3-0.7-0.5
				c-0.8-0.4-1.2-0.8-1.2-1.5c0-0.4,0.1-0.7,0.4-1c0.3-0.3,0.6-0.4,1-0.4c0.2,0,0.5,0.1,0.7,0.2c0.2,0.1,0.4,0.3,0.5,0.6l-0.6,0.5
				c-0.1-0.3-0.3-0.4-0.6-0.4c-0.1,0-0.3,0-0.4,0.1c-0.1,0.1-0.1,0.2-0.1,0.3c0,0.2,0.1,0.3,0.2,0.4c0.1,0.1,0.3,0.3,0.6,0.4
				c0.9,0.4,1.3,1,1.3,1.7c0,0.5-0.1,0.9-0.4,1.2c-0.3,0.3-0.7,0.5-1.2,0.5c-0.3,0-0.6-0.1-0.9-0.3c-0.3-0.2-0.5-0.5-0.7-0.9
				l0.7-0.5C197.3,212,197.6,212.2,198,212.2z"/>
			<path class="st1" d="M206.6,212.2c0.2,0,0.4-0.1,0.5-0.2c0.1-0.1,0.2-0.3,0.2-0.5c0-0.2-0.1-0.4-0.2-0.6
				c-0.1-0.2-0.4-0.3-0.7-0.5c-0.8-0.4-1.2-0.8-1.2-1.5c0-0.4,0.1-0.7,0.4-1c0.3-0.3,0.6-0.4,1-0.4c0.2,0,0.5,0.1,0.7,0.2
				c0.2,0.1,0.4,0.3,0.5,0.6l-0.6,0.5c-0.1-0.3-0.3-0.4-0.6-0.4c-0.1,0-0.3,0-0.4,0.1c-0.1,0.1-0.1,0.2-0.1,0.3
				c0,0.2,0.1,0.3,0.2,0.4c0.1,0.1,0.3,0.3,0.6,0.4c0.9,0.4,1.3,1,1.3,1.7c0,0.5-0.1,0.9-0.4,1.2c-0.3,0.3-0.7,0.5-1.2,0.5
				c-0.3,0-0.6-0.1-0.9-0.3c-0.3-0.2-0.5-0.5-0.7-0.9l0.7-0.5C205.9,212,206.2,212.2,206.6,212.2z"/>
			<path class="st1" d="M208.7,208.5v-0.9h0.8v-1.5h0.9v1.5h1.2v0.9h-1.2v4.4h-0.9v-4.4H208.7z"/>
			<path class="st1" d="M217.1,210.6H213c0.1,0.5,0.3,0.9,0.6,1.2s0.7,0.4,1.1,0.4c0.6,0,1.1-0.3,1.5-0.8l0.7,0.5
				c-0.5,0.8-1.3,1.2-2.1,1.2c-0.7,0-1.4-0.3-1.9-0.8c-0.5-0.5-0.7-1.2-0.7-2c0-0.8,0.2-1.4,0.7-2c0.5-0.5,1.1-0.8,1.8-0.8
				c0.7,0,1.3,0.3,1.8,0.8c0.5,0.5,0.7,1.2,0.7,2C217.1,210.5,217.1,210.6,217.1,210.6z M214.6,208.4c-0.3,0-0.7,0.1-1,0.4
				c-0.3,0.2-0.5,0.6-0.6,1h3.1c-0.1-0.4-0.3-0.7-0.6-1C215.3,208.5,215,208.4,214.6,208.4z"/>
			<path class="st1" d="M221.2,213v-3.2c0-0.4-0.1-0.7-0.3-1c-0.2-0.2-0.5-0.4-0.8-0.4c-0.3,0-0.6,0.1-0.8,0.4
				c-0.2,0.2-0.3,0.6-0.3,0.9v3.3h-0.9v-5.3h0.9v0.5c0.4-0.4,0.8-0.6,1.3-0.6c0.7,0,1.2,0.3,1.5,0.9c0.4-0.6,1-0.9,1.6-0.9
				c0.5,0,0.9,0.2,1.3,0.5c0.3,0.4,0.5,0.9,0.5,1.5v3.4h-0.9v-3.2c0-0.4-0.1-0.7-0.3-1c-0.2-0.2-0.5-0.4-0.8-0.4
				c-0.3,0-0.6,0.1-0.8,0.4c-0.2,0.2-0.3,0.5-0.3,0.9v3.3H221.2z"/>
		</g>
		<g>
			<path class="st1" d="M72.1,204.9c1.3,0.1,2.7-0.2,3.9,0.2c1.4,0.6,1.4,2.7,0.3,3.5c0.5,0.4,1.1,0.9,1.1,1.6
				c0.3,1.2-0.8,2.5-2.1,2.5c-1.1,0.1-2.2,0-3.2,0C72.1,210.2,72.1,207.6,72.1,204.9z M73,205.7c0,0.9,0,1.8,0,2.7
				c0.8,0,1.7,0.1,2.6-0.1c0.9-0.4,1-1.9,0.1-2.4C74.8,205.6,73.9,205.7,73,205.7z M73,209.2c0,1,0,1.9,0,2.9c0.9,0,1.8,0.1,2.7-0.1
				c1.1-0.3,1.3-2.1,0.2-2.5C75,209,73.9,209.2,73,209.2z"/>
		</g>
		<g>
			<path class="st1" d="M160.4,207.9c1-0.5,2.2-0.3,2.9,0.5c0.1-0.5,0.2-0.8,0.8-0.7c-0.1,2,0.2,4.1-0.1,6.1c-0.7,2-4.1,1.9-4.7-0.1
				c0.2-0.1,0.5-0.2,0.7-0.2c0.4,1.1,1.8,1.4,2.7,0.8c0.7-0.5,0.6-1.4,0.7-2.2c-0.7,0.8-1.9,1.2-2.8,0.7
				C158.6,211.9,158.6,208.9,160.4,207.9z M160.8,208.5c-1.5,0.8-1.2,3.5,0.5,3.7c1.3,0.3,2.2-1.1,1.9-2.3
				C163.2,208.8,161.9,208,160.8,208.5z"/>
		</g>
		<path class="st1" d="M204.2,207.7c-0.2,0-0.5,0-0.7,0c0,1.1,0.1,2.2-0.1,3.3c-0.2,1.2-2,1.6-2.4,0.4c-0.2-1.2-0.1-2.5-0.1-3.7
			c-0.2,0-0.6,0-0.7,0c0,1.3-0.1,2.6,0.1,4c0.4,1.6,2.4,1.5,3.3,0.4c0,0.5-0.1,1-0.2,1.5c-0.2,0.6-0.7,0.9-1.3,0.9
			c-0.3,0-0.6-0.1-0.8-0.3c-0.2-0.2-0.4-0.4-0.6-0.7l-0.8,0c0.2,0.4,0.5,0.8,0.8,1.1c1.1,1,3.2,0.5,3.4-1.2
			C204.4,211.6,204.2,209.6,204.2,207.7z"/>
		<path class="st1" d="M129.9,207.7c-0.3,0-0.5,0-0.8,0c0,1.1,0.1,2.2-0.1,3.3c-0.2,1.2-2.2,1.6-2.6,0.4c-0.2-1.2-0.1-2.5-0.1-3.7
			c-0.2,0-0.6,0-0.8,0c0,1.3-0.1,2.6,0.1,4c0.5,1.6,2.6,1.5,3.6,0.4c-0.1,0.5-0.1,1-0.2,1.5c-0.2,0.6-0.8,0.9-1.4,0.9
			c-0.3,0-0.6-0.1-0.8-0.3c-0.2-0.2-0.5-0.4-0.6-0.7l-0.9,0c0.2,0.4,0.5,0.8,0.9,1.1c1.2,1,3.5,0.5,3.7-1.2
			C130,211.6,129.8,209.6,129.9,207.7z"/>
	</g>
	<g>
		<g>
			<path class="st1" d="M141.4,242.4v-0.7h0.8v5h-0.8v-0.7c-0.4,0.6-1,0.9-1.7,0.9c-0.7,0-1.2-0.3-1.7-0.8c-0.5-0.5-0.7-1.1-0.7-1.9
				c0-0.7,0.2-1.4,0.7-1.9c0.5-0.5,1-0.8,1.7-0.8C140.4,241.5,141,241.8,141.4,242.4z M138.6,242.9c-0.3,0.3-0.5,0.8-0.5,1.3
				c0,0.5,0.2,0.9,0.5,1.3c0.3,0.4,0.7,0.5,1.2,0.5c0.5,0,0.8-0.2,1.2-0.5c0.3-0.4,0.5-0.8,0.5-1.3c0-0.5-0.2-0.9-0.5-1.3
				c-0.3-0.4-0.7-0.5-1.2-0.5C139.3,242.3,138.9,242.5,138.6,242.9z"/>
			<path class="st1" d="M152.4,244.4h-3.9c0.1,0.5,0.2,0.8,0.6,1.1s0.7,0.4,1.1,0.4c0.6,0,1.1-0.3,1.4-0.8l0.6,0.5
				c-0.5,0.7-1.2,1.1-2,1.1c-0.7,0-1.3-0.2-1.8-0.7c-0.5-0.5-0.7-1.1-0.7-1.9c0-0.7,0.2-1.3,0.7-1.9c0.5-0.5,1-0.8,1.7-0.8
				c0.7,0,1.2,0.2,1.7,0.7c0.5,0.5,0.7,1.1,0.7,1.9C152.5,244.3,152.5,244.4,152.4,244.4z M150.1,242.3c-0.3,0-0.6,0.1-0.9,0.3
				c-0.3,0.2-0.5,0.5-0.6,0.9h3c-0.1-0.4-0.3-0.7-0.5-0.9C150.8,242.5,150.4,242.3,150.1,242.3z"/>
			<path class="st1" d="M156.4,246.6v-3c0-0.4-0.1-0.7-0.3-0.9c-0.2-0.2-0.5-0.3-0.8-0.3c-0.3,0-0.5,0.1-0.7,0.3
				c-0.2,0.2-0.3,0.5-0.3,0.9v3.1h-0.8v-5h0.8v0.4c0.3-0.4,0.8-0.6,1.3-0.6c0.5,0,0.9,0.2,1.2,0.5c0.3,0.3,0.5,0.8,0.5,1.3v3.3
				H156.4z"/>
			<path class="st1" d="M157.9,242.5v-0.8h0.8v-1.4h0.8v1.4h1.1v0.8h-1.1v4.2h-0.8v-4.2H157.9z"/>
			<path class="st1" d="M165.2,242.4v-0.7h0.8v5h-0.8v-0.7c-0.4,0.6-1,0.9-1.7,0.9c-0.7,0-1.2-0.3-1.7-0.8c-0.5-0.5-0.7-1.1-0.7-1.9
				c0-0.7,0.2-1.4,0.7-1.9c0.5-0.5,1-0.8,1.7-0.8C164.2,241.5,164.8,241.8,165.2,242.4z M162.4,242.9c-0.3,0.3-0.5,0.8-0.5,1.3
				c0,0.5,0.2,0.9,0.5,1.3c0.3,0.4,0.7,0.5,1.2,0.5c0.5,0,0.8-0.2,1.2-0.5c0.3-0.4,0.5-0.8,0.5-1.3c0-0.5-0.2-0.9-0.5-1.3
				c-0.3-0.4-0.7-0.5-1.2-0.5C163.1,242.3,162.7,242.5,162.4,242.9z"/>
		</g>
		<path class="st1" d="M147.3,241.6c-0.3,0-0.5,0-0.8,0c0,1.1,0.1,2.1-0.1,3.2c-0.2,1.1-2.1,1.5-2.5,0.3c-0.2-1.1-0.1-2.3-0.1-3.5
			c-0.2,0-0.6,0-0.8,0c0,1.2-0.1,2.5,0.1,3.7c0.5,1.5,2.5,1.4,3.4,0.4c-0.1,0.5-0.1,1-0.2,1.4c-0.2,0.5-0.8,0.8-1.3,0.8
			c-0.3,0-0.6-0.1-0.8-0.2c-0.2-0.2-0.4-0.4-0.6-0.6l-0.9,0c0.2,0.4,0.5,0.7,0.8,1c1.1,1,3.3,0.5,3.5-1.1
			C147.4,245.3,147.2,243.4,147.3,241.6z"/>
		<path class="st1" d="M131.7,239.3c0.2,0,0.6,0,0.8,0c0,1.2,0,2.3,0,3.5c1.1-1.1,2.2-2.3,3.3-3.4c0.4,0,0.7,0,1.1,0
			c-1,1-2,2-2.9,3.1c1,1.4,2,2.9,3.1,4.3c-0.3,0-0.8,0-1,0c-0.9-1.2-1.7-2.5-2.6-3.7c-0.3,0.3-0.6,0.6-0.9,1c-0.1,0.9,0,1.8,0,2.7
			c-0.2,0-0.6,0-0.8,0C131.7,244.2,131.7,241.7,131.7,239.3z"/>
	</g>
</g>
</svg>
